SplineFontDB: 3.2
FontName: NKL_Mikhak-Bold
FullName: NKL Mikhak Bold
FamilyName: NKL Mikhak Bold
Weight: Bold
Copyright: License: The Unlicensed\nModified for Jawi script only at 30.8.2021 by niskala5570@gmail.com
Version: 2.727 Jawi
ItalicAngle: 0
UnderlinePosition: 0
UnderlineWidth: 0
Ascent: 1638
Descent: 410
InvalidEm: 0
sfntRevision: 0x00020003
LayerCount: 2
Layer: 0 1 "Back" 1
Layer: 1 1 "Fore" 0
XUID: [1021 250 -1551560589 26400]
StyleMap: 0x0040
FSType: 0
OS2Version: 4
OS2_WeightWidthSlopeOnly: 0
OS2_UseTypoMetrics: 1
CreationTime: 1497005464
ModificationTime: 1631809946
PfmFamily: 17
TTFWeight: 700
TTFWidth: 5
LineGap: 0
VLineGap: 0
Panose: 2 0 8 3 0 0 0 0 0 0
OS2TypoAscent: 2238
OS2TypoAOffset: 0
OS2TypoDescent: -960
OS2TypoDOffset: 0
OS2TypoLinegap: 0
OS2WinAscent: 2215
OS2WinAOffset: 0
OS2WinDescent: 1200
OS2WinDOffset: 0
HheadAscent: 2215
HheadAOffset: 0
HheadDescent: -1200
HheadDOffset: 0
OS2SubXSize: 1277
OS2SubYSize: 1185
OS2SubXOff: 0
OS2SubYOff: 256
OS2SupXSize: 1277
OS2SupYSize: 1185
OS2SupXOff: 0
OS2SupYOff: 870
OS2StrikeYSize: 91
OS2StrikeYPos: 766
OS2CapHeight: 1400
OS2XHeight: 1012
OS2Vendor: 'AA68'
OS2CodePages: 00000041.00000000
OS2UnicodeRanges: 80002007.90000000.00000008.00000000
Lookup: 4 1 0 "'ccmp' Glyph Composition/Decomposition in Arabic lookup 0" { "'ccmp' Glyph Composition/Decomposition in Arabic lookup 0 subtable"  } ['ccmp' ('arab' <'FAR ' 'dflt' > ) ]
Lookup: 1 9 0 "Single Substitution lookup 1" { "Single Substitution lookup 1 subtable"  } []
Lookup: 2 9 0 "Multiple Substitution lookup 2" { "Multiple Substitution lookup 2 subtable"  } []
Lookup: 2 9 0 "Multiple Substitution lookup 3" { "Multiple Substitution lookup 3 subtable"  } []
Lookup: 1 9 0 "Mikhak-Light-'fina' Terminal Forms in Arabic lookup 4" { "Mikhak-Light-'fina' Terminal Forms in Arabic lookup 4 subtable"  } ['fina' ('arab' <'FAR ' 'dflt' > ) ]

StartChar: .notdef
Encoding: 0 -1 0
Width: 748
Flags: W
LayerCount: 2
Fore
SplineSet
68 0 m 1,0,-1
 68 1365 l 1,1,-1
 612 1365 l 1,2,-1
 612 0 l 1,3,-1
 68 0 l 1,0,-1
136 68 m 1,4,-1
 544 68 l 1,5,-1
 544 1297 l 1,6,-1
 136 1297 l 1,7,-1
 136 68 l 1,4,-1
EndSplineSet
Validated: 1
EndChar

StartChar: exclam
Encoding: 4 33 4
Width: 583
GlyphClass: 2
Flags: W
LayerCount: 2
Fore
SplineSet
150 1361 m 0,0,1
 150 1401 150 1401 179 1431 c 128,-1,2
 208 1461 208 1461 250 1461 c 0,3,4
 287 1461 287 1461 315.5 1436.5 c 128,-1,5
 344 1412 344 1412 349 1375 c 0,6,7
 395 1038 395 1038 395 547 c 0,8,9
 395 465 395 465 394 422 c 0,10,11
 393 382 393 382 364 353 c 128,-1,12
 335 324 335 324 294 324 c 128,-1,13
 253 324 253 324 223.5 353.5 c 128,-1,14
 194 383 194 383 194 424 c 0,15,16
 194 445 194 445 194.5 486 c 128,-1,17
 195 527 195 527 195 547 c 0,18,19
 195 1024 195 1024 151 1347 c 0,20,21
 150 1351 150 1351 150 1361 c 0,0,1
433 85 m 0,22,23
 433 36 433 36 396 -9.5 c 128,-1,24
 359 -55 359 -55 298 -55 c 0,25,26
 246 -55 246 -55 198 -20 c 128,-1,27
 150 15 150 15 150 84 c 0,28,29
 150 143 150 143 192 185.5 c 128,-1,30
 234 228 234 228 294 228 c 0,31,32
 355 228 355 228 394 183 c 128,-1,33
 433 138 433 138 433 85 c 0,22,23
EndSplineSet
Validated: 1
EndChar

StartChar: numbersign
Encoding: 6 35 6
Width: 1734
GlyphClass: 2
Flags: W
LayerCount: 2
Fore
SplineSet
1113 847 m 1,0,-1
 743 836 l 1,1,-1
 665 577 l 1,2,-1
 1059 562 l 1,3,-1
 1113 847 l 1,0,-1
387 -100 m 0,4,5
 344 -100 344 -100 316 -69.5 c 128,-1,6
 288 -39 288 -39 288 1 c 0,7,8
 288 17 288 17 292 29 c 2,9,-1
 399 387 l 1,10,-1
 156 396 l 2,11,12
 116 397 116 397 88 426.5 c 128,-1,13
 60 456 60 456 60 496 c 0,14,15
 60 538 60 538 89.5 567 c 128,-1,16
 119 596 119 596 160 596 c 2,17,-1
 164 596 l 1,18,-1
 459 585 l 1,19,-1
 532 830 l 1,20,-1
 255 822 l 1,21,-1
 252 822 l 2,22,23
 211 822 211 822 181.5 851.5 c 128,-1,24
 152 881 152 881 152 922 c 0,25,26
 152 962 152 962 180.5 991.5 c 128,-1,27
 209 1021 209 1021 249 1022 c 2,28,-1
 592 1032 l 1,29,-1
 699 1390 l 2,30,31
 709 1422 709 1422 736 1441.5 c 128,-1,32
 763 1461 763 1461 796 1461 c 0,33,34
 839 1461 839 1461 867 1430.5 c 128,-1,35
 895 1400 895 1400 895 1360 c 0,36,37
 895 1344 895 1344 891 1332 c 2,38,-1
 803 1038 l 1,39,-1
 1152 1049 l 1,40,-1
 1215 1380 l 2,41,42
 1222 1415 1222 1415 1250 1438 c 128,-1,43
 1278 1461 1278 1461 1313 1461 c 0,44,45
 1356 1461 1356 1461 1384.5 1431 c 128,-1,46
 1413 1401 1413 1401 1413 1361 c 0,47,48
 1413 1354 1413 1354 1411 1342 c 2,49,-1
 1356 1055 l 1,50,-1
 1571 1061 l 1,51,-1
 1574 1061 l 2,52,53
 1615 1061 1615 1061 1644.5 1031.5 c 128,-1,54
 1674 1002 1674 1002 1674 961 c 0,55,56
 1674 921 1674 921 1645.5 892 c 128,-1,57
 1617 863 1617 863 1577 861 c 2,58,-1
 1318 853 l 1,59,-1
 1261 554 l 1,60,-1
 1514 545 l 2,61,62
 1554 544 1554 544 1582 514.5 c 128,-1,63
 1610 485 1610 485 1610 445 c 0,64,65
 1610 403 1610 403 1580.5 374 c 128,-1,66
 1551 345 1551 345 1510 345 c 2,67,-1
 1506 345 l 1,68,-1
 1223 356 l 1,69,-1
 1151 -19 l 2,70,71
 1144 -54 1144 -54 1116 -77 c 128,-1,72
 1088 -100 1088 -100 1053 -100 c 0,73,74
 1010 -100 1010 -100 981.5 -70 c 128,-1,75
 953 -40 953 -40 953 0 c 0,76,77
 953 7 953 7 955 19 c 2,78,-1
 1021 363 l 1,79,-1
 606 379 l 1,80,-1
 484 -29 l 2,81,82
 474 -61 474 -61 447 -80.5 c 128,-1,83
 420 -100 420 -100 387 -100 c 0,4,5
EndSplineSet
Validated: 1
EndChar

StartChar: dollar
Encoding: 7 36 7
Width: 1182
GlyphClass: 2
Flags: W
LayerCount: 2
Fore
SplineSet
575 1719 m 128,-1,1
 616 1719 616 1719 645.5 1689.5 c 128,-1,2
 675 1660 675 1660 675 1619 c 2,3,-1
 675 -142 l 2,4,5
 675 -182 675 -182 645.5 -212 c 128,-1,6
 616 -242 616 -242 575 -242 c 128,-1,7
 534 -242 534 -242 504.5 -212 c 128,-1,8
 475 -182 475 -182 475 -142 c 2,9,-1
 475 1619 l 2,10,11
 475 1660 475 1660 504.5 1689.5 c 128,-1,0
 534 1719 534 1719 575 1719 c 128,-1,1
1061 1229 m 0,12,13
 1061 1186 1061 1186 1030 1158 c 128,-1,14
 999 1130 999 1130 960 1130 c 0,15,16
 936 1130 936 1130 912 1143 c 0,17,18
 781 1216 781 1216 619 1216 c 0,19,20
 467 1216 467 1216 366 1140.5 c 128,-1,21
 265 1065 265 1065 265 960 c 0,22,23
 265 910 265 910 348 863 c 128,-1,24
 431 816 431 816 611 762 c 0,25,26
 782 710 782 710 842 685 c 0,27,28
 1070 590 1070 590 1112 426 c 0,29,30
 1122 387 1122 387 1122 343 c 0,31,32
 1122 253 1122 253 1087.5 182.5 c 128,-1,33
 1053 112 1053 112 998 68.5 c 128,-1,34
 943 25 943 25 869.5 -4 c 128,-1,35
 796 -33 796 -33 724.5 -44 c 128,-1,36
 653 -55 653 -55 578 -55 c 0,37,38
 449 -55 449 -55 326 -27.5 c 128,-1,39
 203 0 203 0 112 51 c 0,40,41
 88 64 88 64 74 88 c 128,-1,42
 60 112 60 112 60 139 c 0,43,44
 60 182 60 182 91 210 c 128,-1,45
 122 238 122 238 161 238 c 0,46,47
 185 238 185 238 209 225 c 0,48,49
 271 191 271 191 373 168 c 128,-1,50
 475 145 475 145 578 145 c 0,51,52
 744 145 744 145 833 196.5 c 128,-1,53
 922 248 922 248 922 343 c 0,54,55
 922 408 922 408 833 460 c 128,-1,56
 744 512 744 512 553 570 c 0,57,58
 388 619 388 619 335 641 c 0,59,60
 113 731 113 731 74 885 c 0,61,62
 65 921 65 921 65 960 c 0,63,64
 65 1046 65 1046 97 1120.5 c 128,-1,65
 129 1195 129 1195 184 1248.5 c 128,-1,66
 239 1302 239 1302 310 1340.5 c 128,-1,67
 381 1379 381 1379 460 1397.5 c 128,-1,68
 539 1416 539 1416 619 1416 c 0,69,70
 833 1416 833 1416 1010 1317 c 0,71,72
 1061 1288 1061 1288 1061 1229 c 0,12,13
EndSplineSet
Validated: 5
EndChar

StartChar: percent
Encoding: 8 37 8
Width: 1348
GlyphClass: 2
Flags: W
LayerCount: 2
Fore
SplineSet
382 -100 m 0,0,1
 339 -100 339 -100 311 -69.5 c 128,-1,2
 283 -39 283 -39 283 1 c 0,3,4
 283 12 283 12 286 24 c 0,5,6
 327 189 327 189 384 351 c 128,-1,7
 441 513 441 513 495 638.5 c 128,-1,8
 549 764 549 764 627 914.5 c 128,-1,9
 705 1065 705 1065 761 1163 c 128,-1,10
 817 1261 817 1261 907 1412 c 0,11,12
 937 1461 937 1461 994 1461 c 0,13,14
 1037 1461 1037 1461 1065 1430.5 c 128,-1,15
 1093 1400 1093 1400 1093 1360 c 0,16,17
 1093 1335 1093 1335 1079 1310 c 0,18,19
 966 1120 966 1120 898 998 c 128,-1,20
 830 876 830 876 743.5 700.5 c 128,-1,21
 657 525 657 525 592.5 347.5 c 128,-1,22
 528 170 528 170 480 -24 c 0,23,24
 472 -57 472 -57 444 -78.5 c 128,-1,25
 416 -100 416 -100 382 -100 c 0,0,1
967 186 m 0,26,27
 1015 186 1015 186 1051.5 217.5 c 128,-1,28
 1088 249 1088 249 1088 283 c 0,29,30
 1088 320 1088 320 1058 347 c 128,-1,31
 1028 374 1028 374 979 374 c 0,32,33
 931 374 931 374 912 355.5 c 128,-1,34
 893 337 893 337 893 293 c 0,35,36
 893 243 893 243 917.5 214.5 c 128,-1,37
 942 186 942 186 967 186 c 0,26,27
967 -14 m 0,38,39
 846 -14 846 -14 769.5 79.5 c 128,-1,40
 693 173 693 173 693 293 c 0,41,42
 693 416 693 416 775 495 c 128,-1,43
 857 574 857 574 979 574 c 0,44,45
 1102 574 1102 574 1195 492.5 c 128,-1,46
 1288 411 1288 411 1288 283 c 0,47,48
 1288 196 1288 196 1239 126.5 c 128,-1,49
 1190 57 1190 57 1117.5 21.5 c 128,-1,50
 1045 -14 1045 -14 967 -14 c 0,38,39
260 1158 m 0,51,52
 260 1110 260 1110 291.5 1074 c 128,-1,53
 323 1038 323 1038 357 1038 c 0,54,55
 395 1038 395 1038 421 1067 c 128,-1,56
 447 1096 447 1096 447 1145 c 0,57,58
 447 1193 447 1193 428.5 1212 c 128,-1,59
 410 1231 410 1231 367 1231 c 0,60,61
 317 1231 317 1231 288.5 1206.5 c 128,-1,62
 260 1182 260 1182 260 1158 c 0,51,52
60 1158 m 0,63,64
 60 1279 60 1279 153.5 1355 c 128,-1,65
 247 1431 247 1431 367 1431 c 0,66,67
 490 1431 490 1431 568.5 1348.5 c 128,-1,68
 647 1266 647 1266 647 1145 c 0,69,70
 647 1023 647 1023 565.5 930.5 c 128,-1,71
 484 838 484 838 357 838 c 0,72,73
 228 838 228 838 144 937 c 128,-1,74
 60 1036 60 1036 60 1158 c 0,63,64
EndSplineSet
Validated: 1
EndChar

StartChar: ampersand
Encoding: 9 38 9
Width: 1194
GlyphClass: 2
Flags: W
LayerCount: 2
Fore
SplineSet
963 1095 m 0,0,1
 963 1035 963 1035 948.5 982.5 c 128,-1,2
 934 930 934 930 911.5 890.5 c 128,-1,3
 889 851 889 851 854 815.5 c 128,-1,4
 819 780 819 780 785 755.5 c 128,-1,5
 751 731 751 731 706.5 707 c 128,-1,6
 662 683 662 683 627.5 667.5 c 128,-1,7
 593 652 593 652 550 634 c 0,8,9
 535 628 535 628 528 625 c 1,10,11
 677 427 677 427 893 261 c 1,12,13
 919 284 919 284 937 317 c 0,14,15
 965 370 965 370 1026 370 c 0,16,17
 1069 370 1069 370 1097 339 c 128,-1,18
 1125 308 1125 308 1125 269 c 0,19,20
 1125 246 1125 246 1113 223 c 0,21,22
 1090 180 1090 180 1059 146 c 1,23,24
 1063 144 1063 144 1071.5 139 c 128,-1,25
 1080 134 1080 134 1084 132 c 0,26,27
 1134 104 1134 104 1134 44 c 0,28,29
 1134 1 1134 1 1103.5 -27 c 128,-1,30
 1073 -55 1073 -55 1033 -55 c 0,31,32
 1006 -55 1006 -55 984 -42 c 0,33,34
 952 -24 952 -24 886 20 c 1,35,36
 728 -55 728 -55 549 -55 c 0,37,38
 460 -55 460 -55 376.5 -31 c 128,-1,39
 293 -7 293 -7 220.5 41 c 128,-1,40
 148 89 148 89 104 172.5 c 128,-1,41
 60 256 60 256 60 364 c 0,42,43
 60 575 60 575 244 703 c 1,44,45
 157 879 157 879 157 1033 c 0,46,47
 157 1135 157 1135 193 1219 c 128,-1,48
 229 1303 229 1303 288.5 1354.5 c 128,-1,49
 348 1406 348 1406 420 1433.5 c 128,-1,50
 492 1461 492 1461 569 1461 c 0,51,52
 640 1461 640 1461 709 1437 c 128,-1,53
 778 1413 778 1413 835.5 1368.5 c 128,-1,54
 893 1324 893 1324 928 1252.5 c 128,-1,55
 963 1181 963 1181 963 1095 c 0,0,1
420 796 m 1,56,57
 428 800 428 800 444.5 807 c 128,-1,58
 461 814 461 814 469 817 c 0,59,60
 534 845 534 845 572 863 c 128,-1,61
 610 881 610 881 651.5 907 c 128,-1,62
 693 933 693 933 714 958 c 128,-1,63
 735 983 735 983 749 1017.5 c 128,-1,64
 763 1052 763 1052 763 1095 c 0,65,66
 763 1170 763 1170 708 1215.5 c 128,-1,67
 653 1261 653 1261 569 1261 c 0,68,69
 479 1261 479 1261 418 1205 c 128,-1,70
 357 1149 357 1149 357 1033 c 0,71,72
 357 925 357 925 420 796 c 1,56,57
348 532 m 1,73,74
 302 498 302 498 281 460.5 c 128,-1,75
 260 423 260 423 260 364 c 0,76,77
 260 255 260 255 335.5 200 c 128,-1,78
 411 145 411 145 549 145 c 0,79,80
 623 145 623 145 695 163 c 1,81,82
 489 334 489 334 348 532 c 1,73,74
EndSplineSet
Validated: 1
EndChar

StartChar: quotesingle
Encoding: 10 39 10
Width: 331
GlyphClass: 2
Flags: W
LayerCount: 2
Fore
SplineSet
160 845 m 0,0,1
 132 845 132 845 113.5 864.5 c 128,-1,2
 95 884 95 884 95 910 c 2,3,-1
 95 917 l 1,4,5
 106 1013 106 1013 106 1126 c 0,6,7
 106 1242 106 1242 95 1355 c 1,8,-1
 95 1361 l 2,9,10
 95 1387 95 1387 114 1406.5 c 128,-1,11
 133 1426 133 1426 160 1426 c 0,12,13
 185 1426 185 1426 204 1409 c 128,-1,14
 223 1392 223 1392 225 1367 c 0,15,16
 236 1248 236 1248 236 1126 c 0,17,18
 236 1008 236 1008 225 903 c 0,19,20
 222 878 222 878 203 861.5 c 128,-1,21
 184 845 184 845 160 845 c 0,0,1
EndSplineSet
Validated: 1
EndChar

StartChar: parenleft
Encoding: 11 40 11
Width: 636
GlyphClass: 2
Flags: W
LayerCount: 2
Fore
SplineSet
376 1512 m 0,0,1
 419 1512 419 1512 447 1481.5 c 128,-1,2
 475 1451 475 1451 475 1411 c 0,3,4
 475 1388 475 1388 465 1368 c 0,5,6
 376 1184 376 1184 345.5 1040 c 128,-1,7
 315 896 315 896 315 682 c 0,8,9
 315 499 315 499 358.5 360.5 c 128,-1,10
 402 222 402 222 511 -2 c 0,11,12
 521 -22 521 -22 521 -45 c 0,13,14
 521 -85 521 -85 493 -115.5 c 128,-1,15
 465 -146 465 -146 422 -146 c 0,16,17
 394 -146 394 -146 369 -131 c 128,-1,18
 344 -116 344 -116 331 -90 c 0,19,20
 275 25 275 25 242 101.5 c 128,-1,21
 209 178 209 178 176.5 276 c 128,-1,22
 144 374 144 374 129.5 472.5 c 128,-1,23
 115 571 115 571 115 682 c 0,24,25
 115 911 115 911 151.5 1084 c 128,-1,26
 188 1257 188 1257 285 1456 c 0,27,28
 298 1482 298 1482 323 1497 c 128,-1,29
 348 1512 348 1512 376 1512 c 0,0,1
EndSplineSet
Validated: 1
EndChar

StartChar: asterisk
Encoding: 13 42 13
Width: 1108
GlyphClass: 2
Flags: W
LayerCount: 2
Fore
SplineSet
417 1345 m 0,0,1
 417 1385 417 1385 445.5 1415 c 128,-1,2
 474 1445 474 1445 517 1445 c 0,3,4
 553 1445 553 1445 581 1421.5 c 128,-1,5
 609 1398 609 1398 615 1362 c 0,6,7
 640 1222 640 1222 649 1080 c 1,8,9
 785 1147 785 1147 913 1195 c 0,10,11
 930 1201 930 1201 947 1201 c 0,12,13
 987 1201 987 1201 1017.5 1173 c 128,-1,14
 1048 1145 1048 1145 1048 1102 c 0,15,16
 1048 1071 1048 1071 1030.5 1044.5 c 128,-1,17
 1013 1018 1013 1018 983 1007 c 0,18,19
 857 959 857 959 754 909 c 1,20,21
 854 843 854 843 971 747 c 0,22,23
 1007 717 1007 717 1007 670 c 0,24,25
 1007 629 1007 629 977 599.5 c 128,-1,26
 947 570 947 570 907 570 c 0,27,28
 871 570 871 570 843 593 c 0,29,30
 745 674 745 674 648 739 c 1,31,32
 639 609 639 609 616 466 c 0,33,34
 610 430 610 430 581.5 406 c 128,-1,35
 553 382 553 382 517 382 c 0,36,37
 474 382 474 382 445.5 412 c 128,-1,38
 417 442 417 442 417 482 c 0,39,40
 417 493 417 493 418 498 c 0,41,42
 438 619 438 619 447 731 c 1,43,44
 352 666 352 666 264 593 c 0,45,46
 236 570 236 570 200 570 c 0,47,48
 160 570 160 570 130 599.5 c 128,-1,49
 100 629 100 629 100 670 c 0,50,51
 100 717 100 717 136 747 c 0,52,53
 239 832 239 832 354 909 c 1,54,55
 257 957 257 957 125 1007 c 0,56,57
 95 1018 95 1018 77.5 1044.5 c 128,-1,58
 60 1071 60 1071 60 1102 c 0,59,60
 60 1145 60 1145 90.5 1173 c 128,-1,61
 121 1201 121 1201 161 1201 c 0,62,63
 178 1201 178 1201 195 1195 c 0,64,65
 325 1146 325 1146 448 1085 c 1,66,67
 438 1215 438 1215 419 1328 c 0,68,69
 417 1340 417 1340 417 1345 c 0,0,1
EndSplineSet
Validated: 1
EndChar

StartChar: plus
Encoding: 14 43 14
Width: 1033
GlyphClass: 2
Flags: W
LayerCount: 2
Fore
SplineSet
160 541 m 0,0,1
 120 541 120 541 90 570 c 128,-1,2
 60 599 60 599 60 641 c 0,3,4
 60 678 60 678 85.5 707 c 128,-1,5
 111 736 111 736 148 740 c 0,6,7
 273 756 273 756 408 762 c 1,8,9
 396 910 396 910 369 1031 c 0,10,11
 367 1038 367 1038 367 1052 c 0,12,13
 367 1092 367 1092 395 1122.5 c 128,-1,14
 423 1153 423 1153 466 1153 c 0,15,16
 501 1153 501 1153 529.5 1131 c 128,-1,17
 558 1109 558 1109 565 1075 c 0,18,19
 595 943 595 943 608 767 c 1,20,-1
 618 767 l 2,21,22
 746 767 746 767 878 761 c 0,23,24
 918 760 918 760 945.5 730.5 c 128,-1,25
 973 701 973 701 973 661 c 0,26,27
 973 620 973 620 943 590.5 c 128,-1,28
 913 561 913 561 873 561 c 0,29,30
 830 561 830 561 745 564 c 128,-1,31
 660 567 660 567 618 567 c 2,32,-1
 616 567 l 1,33,-1
 616 566 l 2,34,35
 616 357 616 357 582 260 c 0,36,37
 572 230 572 230 544.5 211.5 c 128,-1,38
 517 193 517 193 486 193 c 0,39,40
 443 193 443 193 415 223.5 c 128,-1,41
 387 254 387 254 387 294 c 0,42,43
 387 310 387 310 393 326 c 0,44,45
 416 391 416 391 416 562 c 1,46,47
 283 555 283 555 172 542 c 0,48,49
 170 542 170 542 166 541.5 c 128,-1,50
 162 541 162 541 160 541 c 0,0,1
EndSplineSet
Validated: 1
EndChar

StartChar: comma
Encoding: 15 44 15
Width: 478
GlyphClass: 2
Flags: W
LayerCount: 2
Fore
SplineSet
111 -307 m 0,0,1
 68 -307 68 -307 40 -276.5 c 128,-1,2
 12 -246 12 -246 12 -206 c 0,3,4
 12 -180 12 -180 26 -157 c 2,5,-1
 256 239 l 2,6,7
 284 289 284 289 343 289 c 0,8,9
 386 289 386 289 414 258.5 c 128,-1,10
 442 228 442 228 442 188 c 0,11,12
 442 162 442 162 428 139 c 2,13,-1
 198 -257 l 2,14,15
 170 -307 170 -307 111 -307 c 0,0,1
EndSplineSet
Validated: 1
EndChar

StartChar: hyphen
Encoding: 16 45 16
Width: 1037
GlyphClass: 2
Flags: W
LayerCount: 2
Fore
SplineSet
160 337 m 2,0,1
 120 337 120 337 90 366 c 128,-1,2
 60 395 60 395 60 437 c 0,3,4
 60 475 60 475 86.5 504.5 c 128,-1,5
 113 534 113 534 151 537 c 0,6,7
 432 561 432 561 877 561 c 0,8,9
 918 561 918 561 947.5 531.5 c 128,-1,10
 977 502 977 502 977 461 c 128,-1,11
 977 420 977 420 947.5 390.5 c 128,-1,12
 918 361 918 361 877 361 c 0,13,14
 440 361 440 361 169 337 c 1,15,-1
 160 337 l 2,0,1
EndSplineSet
Validated: 1
EndChar

StartChar: period
Encoding: 17 46 17
Width: 518
GlyphClass: 2
Flags: W
LayerCount: 2
Fore
SplineSet
66 103 m 0,0,1
 66 154 66 154 110 189.5 c 128,-1,2
 154 225 154 225 213 225 c 0,3,4
 271 225 271 225 302.5 190 c 128,-1,5
 334 155 334 155 334 95 c 128,-1,6
 334 35 334 35 298 -8.5 c 128,-1,7
 262 -52 262 -52 205 -52 c 128,-1,8
 148 -52 148 -52 107 -4 c 128,-1,9
 66 44 66 44 66 103 c 0,0,1
EndSplineSet
Validated: 1
EndChar

StartChar: slash
Encoding: 18 47 18
Width: 965
GlyphClass: 2
Flags: W
LayerCount: 2
Fore
SplineSet
199 -100 m 0,0,1
 156 -100 156 -100 128 -69.5 c 128,-1,2
 100 -39 100 -39 100 1 c 0,3,4
 100 30 100 30 114 52 c 0,5,6
 322 398 322 398 460 724 c 128,-1,7
 598 1050 598 1050 667 1381 c 0,8,9
 674 1416 674 1416 702.5 1438.5 c 128,-1,10
 731 1461 731 1461 766 1461 c 0,11,12
 809 1461 809 1461 837 1430.5 c 128,-1,13
 865 1400 865 1400 865 1360 c 0,14,15
 865 1355 865 1355 863 1341 c 0,16,17
 724 674 724 674 286 -52 c 0,18,19
 257 -100 257 -100 199 -100 c 0,0,1
EndSplineSet
Validated: 1
EndChar

StartChar: zero
Encoding: 19 48 19
Width: 1141
GlyphClass: 2
Flags: W
LayerCount: 2
Fore
SplineSet
260 516 m 0,0,1
 260 331 260 331 314 238 c 128,-1,2
 368 145 368 145 490 145 c 0,3,4
 590 145 590 145 667 204.5 c 128,-1,5
 744 264 744 264 790 367 c 128,-1,6
 836 470 836 470 858.5 598 c 128,-1,7
 881 726 881 726 881 873 c 0,8,9
 881 1049 881 1049 805.5 1155 c 128,-1,10
 730 1261 730 1261 600 1261 c 0,11,12
 519 1261 519 1261 452.5 1194 c 128,-1,13
 386 1127 386 1127 345 1018.5 c 128,-1,14
 304 910 304 910 282 780 c 128,-1,15
 260 650 260 650 260 516 c 0,0,1
60 516 m 0,16,17
 60 590 60 590 65.5 666.5 c 128,-1,18
 71 743 71 743 86.5 838 c 128,-1,19
 102 933 102 933 126.5 1018 c 128,-1,20
 151 1103 151 1103 193.5 1186 c 128,-1,21
 236 1269 236 1269 290.5 1328.5 c 128,-1,22
 345 1388 345 1388 424.5 1424.5 c 128,-1,23
 504 1461 504 1461 600 1461 c 0,24,25
 697 1461 697 1461 778 1426.5 c 128,-1,26
 859 1392 859 1392 914 1334.5 c 128,-1,27
 969 1277 969 1277 1007.5 1200.5 c 128,-1,28
 1046 1124 1046 1124 1063.5 1041.5 c 128,-1,29
 1081 959 1081 959 1081 873 c 0,30,31
 1081 789 1081 789 1074 707 c 128,-1,32
 1067 625 1067 625 1049 531 c 128,-1,33
 1031 437 1031 437 1002.5 355 c 128,-1,34
 974 273 974 273 927.5 196.5 c 128,-1,35
 881 120 881 120 821.5 65.5 c 128,-1,36
 762 11 762 11 676.5 -22 c 128,-1,37
 591 -55 591 -55 490 -55 c 0,38,39
 391 -55 391 -55 313.5 -19 c 128,-1,40
 236 17 236 17 189.5 73.5 c 128,-1,41
 143 130 143 130 112.5 207.5 c 128,-1,42
 82 285 82 285 71 360 c 128,-1,43
 60 435 60 435 60 516 c 0,16,17
EndSplineSet
Validated: 1
EndChar

StartChar: one
Encoding: 20 49 20
Width: 616
GlyphClass: 2
Flags: W
LayerCount: 2
Fore
SplineSet
379 -100 m 0,0,1
 338 -100 338 -100 308.5 -70 c 128,-1,2
 279 -40 279 -40 279 0 c 2,3,-1
 279 6 l 1,4,-1
 344 1121 l 1,5,6
 278 1072 278 1072 210 1032 c 0,7,8
 187 1018 187 1018 161 1018 c 0,9,10
 121 1018 121 1018 90.5 1046 c 128,-1,11
 60 1074 60 1074 60 1117 c 0,12,13
 60 1176 60 1176 110 1204 c 0,14,15
 236 1277 236 1277 354 1389 c 0,16,17
 383 1416 383 1416 422 1416 c 2,18,-1
 456 1416 l 2,19,20
 496 1416 496 1416 526 1386.5 c 128,-1,21
 556 1357 556 1357 556 1316 c 2,22,-1
 556 1310 l 1,23,-1
 479 -6 l 2,24,25
 477 -45 477 -45 447.5 -72.5 c 128,-1,26
 418 -100 418 -100 379 -100 c 0,0,1
EndSplineSet
Validated: 1
EndChar

StartChar: two
Encoding: 21 50 21
Width: 1171
GlyphClass: 2
Flags: W
LayerCount: 2
Fore
SplineSet
161 -55 m 0,0,1
 120 -55 120 -55 90 -25.5 c 128,-1,2
 60 4 60 4 60 45 c 0,3,4
 60 88 60 88 93 119 c 2,5,-1
 470 463 l 2,6,7
 567 552 567 552 631 616.5 c 128,-1,8
 695 681 695 681 749 748.5 c 128,-1,9
 803 816 803 816 828 875.5 c 128,-1,10
 853 935 853 935 853 991 c 0,11,12
 853 1081 853 1081 787.5 1148.5 c 128,-1,13
 722 1216 722 1216 609 1216 c 0,14,15
 478 1216 478 1216 393 1117.5 c 128,-1,16
 308 1019 308 1019 308 874 c 0,17,18
 308 834 308 834 278 804 c 128,-1,19
 248 774 248 774 208 774 c 128,-1,20
 168 774 168 774 138 804 c 128,-1,21
 108 834 108 834 108 874 c 0,22,23
 108 978 108 978 143.5 1075 c 128,-1,24
 179 1172 179 1172 242 1248 c 128,-1,25
 305 1324 305 1324 401 1370 c 128,-1,26
 497 1416 497 1416 609 1416 c 0,27,28
 739 1416 739 1416 842.5 1354 c 128,-1,29
 946 1292 946 1292 999.5 1196 c 128,-1,30
 1053 1100 1053 1100 1053 991 c 0,31,32
 1053 927 1053 927 1037.5 865.5 c 128,-1,33
 1022 804 1022 804 989 745.5 c 128,-1,34
 956 687 956 687 921.5 638.5 c 128,-1,35
 887 590 887 590 831.5 532.5 c 128,-1,36
 776 475 776 475 733.5 435 c 128,-1,37
 691 395 691 395 625 334 c 0,38,39
 611 321 611 321 604 315 c 2,40,-1
 439 164 l 1,41,42
 532 167 532 167 626 167 c 0,43,44
 776 167 776 167 1016 156 c 0,45,46
 1056 155 1056 155 1083.5 125.5 c 128,-1,47
 1111 96 1111 96 1111 56 c 0,48,49
 1111 15 1111 15 1081 -14.5 c 128,-1,50
 1051 -44 1051 -44 1011 -44 c 2,51,-1
 1006 -44 l 1,52,53
 768 -33 768 -33 626 -33 c 0,54,55
 368 -33 368 -33 170 -54 c 0,56,57
 168 -54 168 -54 165 -54.5 c 128,-1,58
 162 -55 162 -55 161 -55 c 0,0,1
EndSplineSet
Validated: 1
EndChar

StartChar: three
Encoding: 22 51 22
Width: 1078
GlyphClass: 2
Flags: W
LayerCount: 2
Fore
SplineSet
224 937 m 0,0,1
 181 937 181 937 153 967.5 c 128,-1,2
 125 998 125 998 125 1038 c 0,3,4
 125 1052 125 1052 127 1059 c 0,5,6
 164 1222 164 1222 295.5 1319 c 128,-1,7
 427 1416 427 1416 581 1416 c 0,8,9
 658 1416 658 1416 727.5 1387 c 128,-1,10
 797 1358 797 1358 851.5 1304.5 c 128,-1,11
 906 1251 906 1251 938 1166.5 c 128,-1,12
 970 1082 970 1082 970 978 c 0,13,14
 970 819 970 819 846 720 c 1,15,16
 922 679 922 679 968 606 c 128,-1,17
 1014 533 1014 533 1018 435 c 1,18,19
 1018 321 1018 321 973.5 227 c 128,-1,20
 929 133 929 133 854.5 72 c 128,-1,21
 780 11 780 11 684 -22 c 128,-1,22
 588 -55 588 -55 484 -55 c 0,23,24
 259 -55 259 -55 97 79 c 0,25,26
 60 110 60 110 60 156 c 0,27,28
 60 197 60 197 90 226.5 c 128,-1,29
 120 256 120 256 160 256 c 0,30,31
 196 256 196 256 224 233 c 0,32,33
 331 145 331 145 484 145 c 0,34,35
 633 145 633 145 725 222.5 c 128,-1,36
 817 300 817 300 818 431 c 0,37,38
 815 499 815 499 774 531.5 c 128,-1,39
 733 564 733 564 629 581 c 0,40,41
 577 590 577 590 531 590 c 0,42,43
 500 590 500 590 444 580.5 c 128,-1,44
 388 571 388 571 361 571 c 0,45,46
 321 571 321 571 291 600 c 128,-1,47
 261 629 261 629 261 671 c 0,48,49
 261 708 261 708 286 736.5 c 128,-1,50
 311 765 311 765 344 770 c 0,51,52
 364 773 364 773 427.5 783 c 128,-1,53
 491 793 491 793 533.5 801.5 c 128,-1,54
 576 810 576 810 609 821 c 0,55,56
 697 849 697 849 733.5 885 c 128,-1,57
 770 921 770 921 770 978 c 0,58,59
 770 1216 770 1216 581 1216 c 0,60,61
 494 1216 494 1216 418.5 1160 c 128,-1,62
 343 1104 343 1104 323 1015 c 0,63,64
 316 981 316 981 287.5 959 c 128,-1,65
 259 937 259 937 224 937 c 0,0,1
EndSplineSet
Validated: 1
EndChar

StartChar: four
Encoding: 23 52 23
Width: 1268
GlyphClass: 2
Flags: W
LayerCount: 2
Fore
SplineSet
834 1024 m 0,0,1
 876 1024 876 1024 905 994 c 128,-1,2
 934 964 934 964 934 924 c 0,3,4
 934 922 934 922 933.5 918.5 c 128,-1,5
 933 915 933 915 933 913 c 2,6,-1
 878 434 l 1,7,8
 976 452 976 452 1084 478 c 0,9,10
 1096 481 1096 481 1107 481 c 0,11,12
 1147 481 1147 481 1177.5 453 c 128,-1,13
 1208 425 1208 425 1208 382 c 0,14,15
 1208 348 1208 348 1186.5 320 c 128,-1,16
 1165 292 1165 292 1132 284 c 0,17,18
 1001 252 1001 252 855 227 c 1,19,-1
 827 -11 l 2,20,21
 822 -49 822 -49 793.5 -74.5 c 128,-1,22
 765 -100 765 -100 728 -100 c 0,23,24
 686 -100 686 -100 657 -70 c 128,-1,25
 628 -40 628 -40 628 0 c 0,26,27
 628 2 628 2 628.5 5.5 c 128,-1,28
 629 9 629 9 629 11 c 2,29,-1
 650 199 l 1,30,31
 509 184 509 184 368 184 c 0,32,33
 293 184 293 184 231 193 c 0,34,35
 122 204 122 204 79 284 c 0,36,37
 60 320 60 320 60 359 c 0,38,39
 60 424 60 424 102 480 c 0,40,41
 207 623 207 623 261 698 c 128,-1,42
 315 773 315 773 390.5 889.5 c 128,-1,43
 466 1006 466 1006 522 1116 c 128,-1,44
 578 1226 578 1226 629 1353 c 0,45,46
 641 1382 641 1382 667 1399 c 128,-1,47
 693 1416 693 1416 723 1416 c 0,48,49
 766 1416 766 1416 794 1385.5 c 128,-1,50
 822 1355 822 1355 822 1315 c 0,51,52
 822 1296 822 1296 815 1279 c 0,53,54
 746 1107 746 1107 654 943 c 128,-1,55
 562 779 562 779 486.5 670 c 128,-1,56
 411 561 411 561 283 388 c 1,57,58
 322 384 322 384 368 384 c 0,59,60
 512 384 512 384 674 403 c 1,61,-1
 735 935 l 2,62,63
 740 973 740 973 768.5 998.5 c 128,-1,64
 797 1024 797 1024 834 1024 c 0,0,1
EndSplineSet
Validated: 1
EndChar

StartChar: five
Encoding: 24 53 24
Width: 1133
GlyphClass: 2
Flags: W
LayerCount: 2
Fore
SplineSet
962 1437 m 0,0,1
 1002 1437 1002 1437 1032.5 1409 c 128,-1,2
 1063 1381 1063 1381 1063 1338 c 0,3,4
 1063 1303 1063 1303 1041 1274.5 c 128,-1,5
 1019 1246 1019 1246 984 1239 c 0,6,7
 873 1216 873 1216 637 1216 c 0,8,9
 476 1216 476 1216 347 1228 c 1,10,-1
 333 1028 l 1,11,12
 432 1066 432 1066 538 1066 c 0,13,14
 642 1066 642 1066 737.5 1028 c 128,-1,15
 833 990 833 990 908 920.5 c 128,-1,16
 983 851 983 851 1028 744 c 128,-1,17
 1073 637 1073 637 1073 510 c 0,18,19
 1073 375 1073 375 1023.5 263 c 128,-1,20
 974 151 974 151 892.5 80.5 c 128,-1,21
 811 10 811 10 708.5 -28.5 c 128,-1,22
 606 -67 606 -67 496 -67 c 0,23,24
 271 -67 271 -67 98 72 c 0,25,26
 60 102 60 102 60 150 c 0,27,28
 60 191 60 191 90 220.5 c 128,-1,29
 120 250 120 250 160 250 c 0,30,31
 194 250 194 250 222 228 c 0,32,33
 341 133 341 133 496 133 c 0,34,35
 598 133 598 133 682 173.5 c 128,-1,36
 766 214 766 214 819.5 301.5 c 128,-1,37
 873 389 873 389 873 510 c 0,38,39
 873 680 873 680 775.5 773 c 128,-1,40
 678 866 678 866 538 866 c 0,41,42
 395 866 395 866 286 769 c 0,43,44
 258 744 258 744 219 744 c 0,45,46
 178 744 178 744 148.5 773.5 c 128,-1,47
 119 803 119 803 119 844 c 2,48,-1
 119 851 l 1,49,-1
 155 1348 l 2,50,51
 158 1385 158 1385 187.5 1413 c 128,-1,52
 217 1441 217 1441 256 1441 c 0,53,54
 263 1441 263 1441 275 1439 c 0,55,56
 392 1416 392 1416 637 1416 c 0,57,58
 856 1416 856 1416 942 1435 c 0,59,60
 956 1437 956 1437 962 1437 c 0,0,1
EndSplineSet
Validated: 1
EndChar

StartChar: six
Encoding: 25 54 25
Width: 1130
GlyphClass: 2
Flags: W
LayerCount: 2
Fore
SplineSet
611 1429 m 0,0,1
 650 1429 650 1429 681 1401 c 128,-1,2
 712 1373 712 1373 712 1330 c 0,3,4
 712 1270 712 1270 659 1241 c 0,5,6
 470 1140 470 1140 376 927 c 1,7,8
 492 990 492 990 621 990 c 0,9,10
 741 990 741 990 843.5 932.5 c 128,-1,11
 946 875 946 875 1006 764 c 0,12,13
 1070 647 1070 647 1070 490 c 0,14,15
 1070 389 1070 389 1032.5 291 c 128,-1,16
 995 193 995 193 929.5 116 c 128,-1,17
 864 39 864 39 768 -8 c 128,-1,18
 672 -55 672 -55 564 -55 c 0,19,20
 457 -55 457 -55 370 -17.5 c 128,-1,21
 283 20 283 20 226.5 85.5 c 128,-1,22
 170 151 170 151 136.5 232.5 c 128,-1,23
 103 314 103 314 95 408 c 1,24,25
 60 438 60 438 60 485 c 0,26,27
 60 493 60 493 64 511 c 0,28,29
 74 547 74 547 97 605 c 1,30,31
 105 706 105 706 123 790 c 0,32,33
 144 886 144 886 179 973 c 128,-1,34
 214 1060 214 1060 267 1142.5 c 128,-1,35
 320 1225 320 1225 395.5 1295.5 c 128,-1,36
 471 1366 471 1366 565 1417 c 0,37,38
 588 1429 588 1429 611 1429 c 0,0,1
294 556 m 1,39,40
 292 508 292 508 292 483 c 0,41,42
 292 145 292 145 564 145 c 0,43,44
 686 145 686 145 778 249.5 c 128,-1,45
 870 354 870 354 870 490 c 0,46,47
 870 698 870 698 729 767 c 0,48,49
 681 791 681 791 621 791 c 0,50,51
 477 791 477 791 366 666 c 0,52,53
 326 622 326 622 294 556 c 1,39,40
EndSplineSet
Validated: 1
EndChar

StartChar: seven
Encoding: 26 55 26
Width: 1080
GlyphClass: 2
Flags: W
LayerCount: 2
Fore
SplineSet
160 1165 m 2,0,1
 120 1165 120 1165 90 1194 c 128,-1,2
 60 1223 60 1223 60 1265 c 0,3,4
 60 1304 60 1304 86.5 1333 c 128,-1,5
 113 1362 113 1362 152 1365 c 2,6,-1
 780 1415 l 2,7,8
 810 1420 810 1420 843 1420 c 0,9,10
 927 1420 927 1420 974 1376 c 0,11,12
 1020 1333 1020 1333 1020 1265 c 0,13,14
 1020 1211 1020 1211 994 1159 c 0,15,16
 865 901 865 901 781.5 617 c 128,-1,17
 698 333 698 333 641 -16 c 0,18,19
 635 -52 635 -52 606.5 -76 c 128,-1,20
 578 -100 578 -100 542 -100 c 0,21,22
 499 -100 499 -100 470.5 -70 c 128,-1,23
 442 -40 442 -40 442 0 c 0,24,25
 442 11 442 11 443 16 c 0,26,27
 557 716 557 716 800 1216 c 1,28,-1
 168 1165 l 1,29,-1
 160 1165 l 2,0,1
EndSplineSet
Validated: 1
EndChar

StartChar: eight
Encoding: 27 56 27
Width: 1079
GlyphClass: 2
Flags: W
LayerCount: 2
Fore
SplineSet
937 1215 m 0,0,1
 937 1173 937 1173 907 1144 c 128,-1,2
 877 1115 877 1115 837 1115 c 0,3,4
 805 1115 805 1115 777 1135 c 0,5,6
 668 1216 668 1216 512 1216 c 0,7,8
 385 1216 385 1216 322.5 1155 c 128,-1,9
 260 1094 260 1094 260 994 c 0,10,11
 260 896 260 896 376 814 c 1,12,13
 543 939 543 939 879 1088 c 0,14,15
 896 1096 896 1096 918 1096 c 0,16,17
 958 1096 958 1096 988.5 1068 c 128,-1,18
 1019 1040 1019 1040 1019 997 c 0,19,20
 1019 967 1019 967 1002.5 941.5 c 128,-1,21
 986 916 986 916 959 904 c 0,22,23
 715 796 715 796 584 714 c 1,24,25
 628 695 628 695 658 680 c 128,-1,26
 688 665 688 665 733.5 639.5 c 128,-1,27
 779 614 779 614 809.5 586.5 c 128,-1,28
 840 559 840 559 870.5 523.5 c 128,-1,29
 901 488 901 488 916 444 c 128,-1,30
 931 400 931 400 931 350 c 0,31,32
 931 173 931 173 805.5 59 c 128,-1,33
 680 -55 680 -55 506 -55 c 0,34,35
 329 -55 329 -55 208.5 60.5 c 128,-1,36
 88 176 88 176 88 354 c 0,37,38
 88 523 88 523 225 678 c 1,39,40
 60 812 60 812 60 994 c 0,41,42
 60 1173 60 1173 185 1294.5 c 128,-1,43
 310 1416 310 1416 512 1416 c 0,44,45
 735 1416 735 1416 897 1295 c 0,46,47
 937 1266 937 1266 937 1215 c 0,0,1
401 573 m 1,48,49
 288 460 288 460 288 354 c 0,50,51
 288 258 288 258 346.5 201.5 c 128,-1,52
 405 145 405 145 506 145 c 0,53,54
 606 145 606 145 668.5 202.5 c 128,-1,55
 731 260 731 260 731 350 c 0,56,57
 731 391 731 391 649 448.5 c 128,-1,58
 567 506 567 506 429 561 c 0,59,60
 411 569 411 569 401 573 c 1,48,49
EndSplineSet
Validated: 1
EndChar

StartChar: nine
Encoding: 28 57 28
Width: 1112
GlyphClass: 2
Flags: W
LayerCount: 2
Fore
SplineSet
644 553 m 0,0,1
 683 553 683 553 714 524.5 c 128,-1,2
 745 496 745 496 745 455 c 0,3,4
 745 436 745 436 740 421 c 1,5,6
 852 645 852 645 852 872 c 0,7,8
 852 960 852 960 826 1028 c 128,-1,9
 800 1096 800 1096 756.5 1136 c 128,-1,10
 713 1176 713 1176 661 1196 c 128,-1,11
 609 1216 609 1216 552 1216 c 0,12,13
 434 1216 434 1216 347 1105.5 c 128,-1,14
 260 995 260 995 260 848 c 0,15,16
 260 711 260 711 330 627 c 128,-1,17
 400 543 400 543 547 543 c 0,18,19
 565 543 565 543 597.5 548 c 128,-1,20
 630 553 630 553 644 553 c 0,0,1
725 394 m 1,21,22
 688 343 688 343 547 343 c 0,23,24
 449 343 449 343 367.5 372 c 128,-1,25
 286 401 286 401 230 450.5 c 128,-1,26
 174 500 174 500 135 565 c 128,-1,27
 96 630 96 630 78 701.5 c 128,-1,28
 60 773 60 773 60 848 c 0,29,30
 60 927 60 927 81 1007.5 c 128,-1,31
 102 1088 102 1088 144 1161 c 128,-1,32
 186 1234 186 1234 244 1291 c 128,-1,33
 302 1348 302 1348 382 1382 c 128,-1,34
 462 1416 462 1416 552 1416 c 0,35,36
 647 1416 647 1416 736 1379.5 c 128,-1,37
 825 1343 825 1343 896 1276 c 128,-1,38
 967 1209 967 1209 1009.5 1104 c 128,-1,39
 1052 999 1052 999 1052 872 c 0,40,41
 1052 774 1052 774 1031.5 665 c 128,-1,42
 1011 556 1011 556 973 447.5 c 128,-1,43
 935 339 935 339 876 240.5 c 128,-1,44
 817 142 817 142 745 66 c 128,-1,45
 673 -10 673 -10 578.5 -55 c 128,-1,46
 484 -100 484 -100 381 -100 c 0,47,48
 340 -100 340 -100 310.5 -70 c 128,-1,49
 281 -40 281 -40 281 0 c 128,-1,50
 281 40 281 40 310.5 70 c 128,-1,51
 340 100 340 100 381 100 c 0,52,53
 471 100 471 100 562.5 180.5 c 128,-1,54
 654 261 654 261 725 394 c 1,21,22
EndSplineSet
Validated: 1
EndChar

StartChar: less
Encoding: 31 60 31
Width: 585
GlyphClass: 2
Flags: W
LayerCount: 2
Fore
SplineSet
525 414 m 0,0,1
 525 374 525 374 497 343.5 c 128,-1,2
 469 313 469 313 426 313 c 0,3,4
 368 313 368 313 339 361 c 0,5,6
 235 531 235 531 94 654 c 0,7,8
 62 682 62 682 62 727 c 0,9,10
 62 778 62 778 96 806 c 0,11,12
 242 927 242 927 338 1095 c 0,13,14
 366 1145 366 1145 426 1145 c 0,15,16
 469 1145 469 1145 497 1114 c 128,-1,17
 525 1083 525 1083 525 1044 c 0,18,19
 525 1017 525 1017 512 995 c 0,20,21
 427 846 427 846 307 728 c 1,22,23
 424 608 424 608 511 465 c 0,24,25
 525 443 525 443 525 414 c 0,0,1
EndSplineSet
Validated: 1
EndChar

StartChar: equal
Encoding: 32 61 32
Width: 1037
GlyphClass: 2
Flags: W
LayerCount: 2
Fore
SplineSet
60 875 m 0,0,1
 60 917 60 917 90 946 c 128,-1,2
 120 975 120 975 160 975 c 2,3,-1
 169 975 l 1,4,5
 339 961 339 961 557 961 c 0,6,7
 712 961 712 961 869 975 c 1,8,-1
 877 975 l 2,9,10
 917 975 917 975 947 946 c 128,-1,11
 977 917 977 917 977 875 c 0,12,13
 977 837 977 837 950.5 807.5 c 128,-1,14
 924 778 924 778 886 775 c 0,15,16
 718 761 718 761 557 761 c 0,17,18
 305 761 305 761 151 775 c 0,19,20
 113 778 113 778 86.5 807.5 c 128,-1,21
 60 837 60 837 60 875 c 0,0,1
60 472 m 0,22,23
 60 515 60 515 90.5 543 c 128,-1,24
 121 571 121 571 161 571 c 0,25,26
 167 571 167 571 179 569 c 0,27,28
 203 564 203 564 310 560 c 128,-1,29
 417 556 417 556 498 556 c 0,30,31
 678 556 678 556 869 571 c 1,32,-1
 877 571 l 2,33,34
 917 571 917 571 947 542 c 128,-1,35
 977 513 977 513 977 471 c 0,36,37
 977 432 977 432 950.5 403 c 128,-1,38
 924 374 924 374 885 371 c 0,39,40
 686 356 686 356 498 356 c 0,41,42
 229 356 229 356 141 373 c 0,43,44
 106 380 106 380 83 408 c 128,-1,45
 60 436 60 436 60 472 c 0,22,23
EndSplineSet
Validated: 1
EndChar

StartChar: question
Encoding: 34 63 34
Width: 954
GlyphClass: 2
Flags: W
LayerCount: 2
Fore
SplineSet
595 89 m 128,-1,1
 595 30 595 30 553 -12.5 c 128,-1,2
 511 -55 511 -55 451 -55 c 0,3,4
 392 -55 392 -55 349 -13.5 c 128,-1,5
 306 28 306 28 306 89 c 0,6,7
 306 149 306 149 348.5 191.5 c 128,-1,8
 391 234 391 234 451 234 c 0,9,10
 512 234 512 234 553.5 191 c 128,-1,0
 595 148 595 148 595 89 c 128,-1,1
268 939 m 0,11,12
 268 899 268 899 239.5 869 c 128,-1,13
 211 839 211 839 168 839 c 0,14,15
 133 839 133 839 105 862 c 128,-1,16
 77 885 77 885 70 921 c 0,17,18
 60 973 60 973 60 1017 c 0,19,20
 60 1136 60 1136 119.5 1229 c 128,-1,21
 179 1322 179 1322 270.5 1369 c 128,-1,22
 362 1416 362 1416 465 1416 c 0,23,24
 546 1416 546 1416 622 1385.5 c 128,-1,25
 698 1355 698 1355 759 1299 c 128,-1,26
 820 1243 820 1243 857 1153 c 128,-1,27
 894 1063 894 1063 894 954 c 0,28,29
 894 886 894 886 874.5 826 c 128,-1,30
 855 766 855 766 818 717 c 128,-1,31
 781 668 781 668 751.5 638 c 128,-1,32
 722 608 722 608 677 571 c 0,33,34
 603 508 603 508 571 463.5 c 128,-1,35
 539 419 539 419 539 366 c 0,36,37
 539 325 539 325 509.5 295.5 c 128,-1,38
 480 266 480 266 439 266 c 128,-1,39
 398 266 398 266 368.5 295.5 c 128,-1,40
 339 325 339 325 339 366 c 0,41,42
 339 417 339 417 353 464.5 c 128,-1,43
 367 512 367 512 385.5 545.5 c 128,-1,44
 404 579 404 579 436.5 616.5 c 128,-1,45
 469 654 469 654 490.5 673.5 c 128,-1,46
 512 693 512 693 547 723 c 0,47,48
 625 788 625 788 659.5 837.5 c 128,-1,49
 694 887 694 887 694 954 c 0,50,51
 694 1087 694 1087 627 1151.5 c 128,-1,52
 560 1216 560 1216 465 1216 c 0,53,54
 378 1216 378 1216 319 1162 c 128,-1,55
 260 1108 260 1108 260 1017 c 0,56,57
 260 1007 260 1007 264 980 c 128,-1,58
 268 953 268 953 268 939 c 0,11,12
EndSplineSet
Validated: 1
EndChar

StartChar: at
Encoding: 35 64 35
Width: 2047
GlyphClass: 2
Flags: W
LayerCount: 2
Fore
SplineSet
1627 -102 m 0,0,1
 1667 -102 1667 -102 1697 -131.5 c 128,-1,2
 1727 -161 1727 -161 1727 -202 c 0,3,4
 1727 -246 1727 -246 1693 -277 c 0,5,6
 1561 -393 1561 -393 1394.5 -457 c 128,-1,7
 1228 -521 1228 -521 1045 -521 c 0,8,9
 846 -521 846 -521 666 -453.5 c 128,-1,10
 486 -386 486 -386 352 -266.5 c 128,-1,11
 218 -147 218 -147 139 27 c 128,-1,12
 60 201 60 201 60 403 c 0,13,14
 60 563 60 563 112 719.5 c 128,-1,15
 164 876 164 876 259.5 1006.5 c 128,-1,16
 355 1137 355 1137 480 1237.5 c 128,-1,17
 605 1338 605 1338 760 1394.5 c 128,-1,18
 915 1451 915 1451 1076 1451 c 0,19,20
 1258 1451 1258 1451 1425 1382 c 128,-1,21
 1592 1313 1592 1313 1716 1195.5 c 128,-1,22
 1840 1078 1840 1078 1913.5 911.5 c 128,-1,23
 1987 745 1987 745 1987 559 c 0,24,25
 1987 502 1987 502 1977.5 438 c 128,-1,26
 1968 374 1968 374 1948 304 c 128,-1,27
 1928 234 1928 234 1893.5 171.5 c 128,-1,28
 1859 109 1859 109 1814.5 58 c 128,-1,29
 1770 7 1770 7 1705 -23 c 128,-1,30
 1640 -53 1640 -53 1564 -53 c 0,31,32
 1399 -53 1399 -53 1310 110 c 1,33,34
 1169 -55 1169 -55 938 -55 c 0,35,36
 741 -55 741 -55 613 76.5 c 128,-1,37
 485 208 485 208 485 402 c 0,38,39
 485 543 485 543 533 661.5 c 128,-1,40
 581 780 581 780 661.5 858.5 c 128,-1,41
 742 937 742 937 847.5 980.5 c 128,-1,42
 953 1024 953 1024 1069 1024 c 0,43,44
 1282 1024 1282 1024 1464 892 c 0,45,46
 1506 862 1506 862 1506 810 c 0,47,48
 1506 801 1506 801 1505 797 c 2,49,-1
 1454 447 l 2,50,51
 1454 436 1454 436 1451 406.5 c 128,-1,52
 1448 377 1448 377 1448 362 c 0,53,54
 1448 265 1448 265 1487 206 c 128,-1,55
 1526 147 1526 147 1564 147 c 0,56,57
 1616 147 1616 147 1668 206 c 128,-1,58
 1720 265 1720 265 1753.5 362 c 128,-1,59
 1787 459 1787 459 1787 559 c 0,60,61
 1787 703 1787 703 1730 832 c 128,-1,62
 1673 961 1673 961 1577 1052.5 c 128,-1,63
 1481 1144 1481 1144 1350 1197.5 c 128,-1,64
 1219 1251 1219 1251 1076 1251 c 0,65,66
 950 1251 950 1251 827 1205 c 128,-1,67
 704 1159 704 1159 603 1077.5 c 128,-1,68
 502 996 502 996 424.5 890.5 c 128,-1,69
 347 785 347 785 303.5 658 c 128,-1,70
 260 531 260 531 260 403 c 0,71,72
 260 193 260 193 363.5 27 c 128,-1,73
 467 -139 467 -139 646 -230 c 128,-1,74
 825 -321 825 -321 1045 -321 c 0,75,76
 1340 -321 1340 -321 1561 -127 c 0,77,78
 1591 -102 1591 -102 1627 -102 c 0,0,1
1298 762 m 1,79,80
 1187 824 1187 824 1069 824 c 0,81,82
 992 824 992 824 923.5 797 c 128,-1,83
 855 770 855 770 801.5 718.5 c 128,-1,84
 748 667 748 667 716.5 585.5 c 128,-1,85
 685 504 685 504 685 402 c 0,86,87
 685 286 685 286 753.5 215.5 c 128,-1,88
 822 145 822 145 938 145 c 0,89,90
 1011 145 1011 145 1069 171 c 128,-1,91
 1127 197 1127 197 1164 243.5 c 128,-1,92
 1201 290 1201 290 1223 346 c 128,-1,93
 1245 402 1245 402 1255 469 c 2,94,-1
 1298 762 l 1,79,80
EndSplineSet
Validated: 1
EndChar

StartChar: A
Encoding: 36 65 36
Width: 1416
GlyphClass: 2
Flags: W
LayerCount: 2
Fore
SplineSet
527 604 m 1,0,-1
 925 568 l 1,1,-1
 732 1059 l 1,2,-1
 527 604 l 1,0,-1
159 -68 m 0,3,4
 116 -68 116 -68 88 -37.5 c 128,-1,5
 60 -7 60 -7 60 33 c 0,6,7
 60 54 60 54 69 73 c 2,8,-1
 249 474 l 1,9,10
 238 496 238 496 238 520 c 0,11,12
 238 555 238 555 260 581.5 c 128,-1,13
 282 608 282 608 314 617 c 1,14,-1
 647 1357 l 2,15,16
 660 1384 660 1384 685 1400 c 128,-1,17
 710 1416 710 1416 739 1416 c 0,18,19
 771 1416 771 1416 795.5 1397.5 c 128,-1,20
 820 1379 820 1379 831 1353 c 2,21,-1
 1157 524 l 1,22,23
 1188 495 1188 495 1188 452 c 2,24,-1
 1188 446 l 1,25,-1
 1349 37 l 2,26,27
 1356 20 1356 20 1356 1 c 0,28,29
 1356 -39 1356 -39 1328 -69.5 c 128,-1,30
 1300 -100 1300 -100 1257 -100 c 0,31,32
 1226 -100 1226 -100 1200 -83 c 128,-1,33
 1174 -66 1174 -66 1163 -37 c 2,34,-1
 1007 358 l 1,35,-1
 440 410 l 1,36,-1
 251 -9 l 2,37,38
 238 -36 238 -36 213 -52 c 128,-1,39
 188 -68 188 -68 159 -68 c 0,3,4
EndSplineSet
Validated: 1
EndChar

StartChar: B
Encoding: 37 66 37
Width: 1098
GlyphClass: 2
Flags: W
LayerCount: 2
Fore
SplineSet
446 639 m 0,0,1
 432 639 432 639 285 629 c 1,2,3
 283 403 283 403 268 165 c 1,4,5
 362 145 362 145 461 145 c 0,6,7
 640 145 640 145 739 209 c 128,-1,8
 838 273 838 273 838 406 c 0,9,10
 838 593 838 593 563 631 c 0,11,12
 504 639 504 639 446 639 c 0,0,1
284 833 m 1,13,14
 452 845 452 845 545 869 c 0,15,16
 653 897 653 897 705 938 c 128,-1,17
 757 979 757 979 757 1028 c 0,18,19
 757 1216 757 1216 493 1216 c 0,20,21
 382 1216 382 1216 266 1181 c 1,22,23
 282 985 282 985 284 833 c 1,13,14
808 766 m 1,24,25
 911 715 911 715 974.5 622.5 c 128,-1,26
 1038 530 1038 530 1038 406 c 0,27,28
 1038 305 1038 305 1002.5 224 c 128,-1,29
 967 143 967 143 909.5 92 c 128,-1,30
 852 41 852 41 775 7 c 128,-1,31
 698 -27 698 -27 620 -41 c 128,-1,32
 542 -55 542 -55 461 -55 c 0,33,34
 291 -55 291 -55 133 -6 c 0,35,36
 102 4 102 4 82.5 31 c 128,-1,37
 63 58 63 58 63 90 c 2,38,-1
 63 97 l 1,39,40
 85 384 85 384 85 706 c 0,41,42
 85 937 85 937 60 1242 c 1,43,-1
 60 1250 l 2,44,45
 60 1281 60 1281 78 1306.5 c 128,-1,46
 96 1332 96 1332 124 1343 c 0,47,48
 313 1416 313 1416 493 1416 c 0,49,50
 561 1416 561 1416 625 1403.5 c 128,-1,51
 689 1391 689 1391 750 1361 c 128,-1,52
 811 1331 811 1331 856.5 1287.5 c 128,-1,53
 902 1244 902 1244 929.5 1177 c 128,-1,54
 957 1110 957 1110 957 1028 c 0,55,56
 957 945 957 945 915.5 878 c 128,-1,57
 874 811 874 811 808 766 c 1,24,25
EndSplineSet
Validated: 1
EndChar

StartChar: C
Encoding: 38 67 38
Width: 1271
GlyphClass: 2
Flags: W
LayerCount: 2
Fore
SplineSet
1176 1277 m 0,0,1
 1176 1234 1176 1234 1145.5 1206 c 128,-1,2
 1115 1178 1115 1178 1075 1178 c 0,3,4
 1054 1178 1054 1178 1035 1187 c 0,5,6
 935 1232 935 1232 814 1232 c 0,7,8
 574 1232 574 1232 417 1069.5 c 128,-1,9
 260 907 260 907 260 662 c 0,10,11
 260 428 260 428 411.5 286.5 c 128,-1,12
 563 145 563 145 810 145 c 0,13,14
 947 145 947 145 1065 207 c 0,15,16
 1088 219 1088 219 1110 219 c 0,17,18
 1149 219 1149 219 1180 191 c 128,-1,19
 1211 163 1211 163 1211 120 c 0,20,21
 1211 59 1211 59 1158 31 c 0,22,23
 995 -55 995 -55 810 -55 c 0,24,25
 599 -55 599 -55 428.5 34 c 128,-1,26
 258 123 258 123 159 287.5 c 128,-1,27
 60 452 60 452 60 662 c 0,28,29
 60 820 60 820 117 962 c 128,-1,30
 174 1104 174 1104 273 1207.5 c 128,-1,31
 372 1311 372 1311 513 1371.5 c 128,-1,32
 654 1432 654 1432 814 1432 c 0,33,34
 975 1432 975 1432 1117 1369 c 0,35,36
 1144 1357 1144 1357 1160 1331.5 c 128,-1,37
 1176 1306 1176 1306 1176 1277 c 0,0,1
EndSplineSet
Validated: 1
EndChar

StartChar: D
Encoding: 39 68 39
Width: 1239
GlyphClass: 2
Flags: W
LayerCount: 2
Fore
SplineSet
286 1212 m 1,0,1
 305 1013 305 1013 305 811 c 0,2,3
 305 486 305 486 269 162 c 1,4,5
 342 145 342 145 412 145 c 0,6,7
 660 145 660 145 819.5 300 c 128,-1,8
 979 455 979 455 979 701 c 0,9,10
 979 969 979 969 824.5 1092.5 c 128,-1,11
 670 1216 670 1216 366 1216 c 0,12,13
 323 1216 323 1216 286 1212 c 1,0,1
155 1392 m 0,14,15
 258 1416 258 1416 366 1416 c 0,16,17
 505 1416 505 1416 626.5 1389.5 c 128,-1,18
 748 1363 748 1363 850 1306.5 c 128,-1,19
 952 1250 952 1250 1025 1167 c 128,-1,20
 1098 1084 1098 1084 1138.5 965 c 128,-1,21
 1179 846 1179 846 1179 701 c 0,22,23
 1179 485 1179 485 1077.5 311 c 128,-1,24
 976 137 976 137 801 41 c 128,-1,25
 626 -55 626 -55 412 -55 c 0,26,27
 262 -55 262 -55 124 -1 c 0,28,29
 95 11 95 11 77.5 38 c 128,-1,30
 60 65 60 65 60 94 c 0,31,32
 60 96 60 96 60.5 99.5 c 128,-1,33
 61 103 61 103 61 105 c 0,34,35
 105 454 105 454 105 811 c 0,36,37
 105 1024 105 1024 78 1285 c 0,38,39
 78 1286 78 1286 77.5 1289 c 128,-1,40
 77 1292 77 1292 77 1294 c 0,41,42
 77 1329 77 1329 100.5 1357 c 128,-1,43
 124 1385 124 1385 155 1392 c 0,14,15
EndSplineSet
Validated: 1
EndChar

StartChar: E
Encoding: 40 69 40
Width: 1098
GlyphClass: 2
Flags: W
LayerCount: 2
Fore
SplineSet
937 1459 m 0,0,1
 977 1459 977 1459 1007.5 1431 c 128,-1,2
 1038 1403 1038 1403 1038 1360 c 0,3,4
 1038 1326 1038 1326 1016.5 1298 c 128,-1,5
 995 1270 995 1270 961 1262 c 0,6,7
 763 1216 763 1216 472 1216 c 0,8,9
 400 1216 400 1216 331 1219 c 1,10,11
 342 1105 342 1105 342 960 c 0,12,13
 342 886 342 886 341 850 c 1,14,15
 445 854 445 854 500 854 c 0,16,17
 679 854 679 854 871 832 c 0,18,19
 908 828 908 828 933.5 799.5 c 128,-1,20
 959 771 959 771 959 733 c 0,21,22
 959 691 959 691 929 662 c 128,-1,23
 899 633 899 633 859 633 c 0,24,25
 857 633 857 633 853 633.5 c 128,-1,26
 849 634 849 634 847 634 c 0,27,28
 684 654 684 654 500 654 c 0,29,30
 405 654 405 654 332 650 c 1,31,32
 322 488 322 488 300 333 c 0,33,34
 297 310 297 310 297 295 c 0,35,36
 297 202 297 202 399.5 173.5 c 128,-1,37
 502 145 502 145 768 145 c 0,38,39
 796 145 796 145 847 145.5 c 128,-1,40
 898 146 898 146 922 146 c 0,41,42
 963 146 963 146 992.5 116.5 c 128,-1,43
 1022 87 1022 87 1022 46 c 128,-1,44
 1022 5 1022 5 993 -24 c 128,-1,45
 964 -53 964 -53 924 -54 c 0,46,47
 873 -55 873 -55 770 -55 c 2,48,-1
 703 -55 l 2,49,50
 636 -55 636 -55 588.5 -53.5 c 128,-1,51
 541 -52 541 -52 472.5 -44.5 c 128,-1,52
 404 -37 404 -37 356.5 -23.5 c 128,-1,53
 309 -10 309 -10 256.5 16 c 128,-1,54
 204 42 204 42 171.5 78.5 c 128,-1,55
 139 115 139 115 118 170 c 128,-1,56
 97 225 97 225 97 295 c 0,57,58
 97 332 97 332 102 363 c 0,59,60
 121 497 121 497 131 640 c 1,61,62
 101 649 101 649 80.5 675 c 128,-1,63
 60 701 60 701 60 735 c 0,64,65
 60 770 60 770 83 798 c 128,-1,66
 106 826 106 826 140 833 c 1,67,68
 142 917 142 917 142 960 c 0,69,70
 142 1133 142 1133 119 1312 c 0,71,72
 119 1314 119 1314 118.5 1317 c 128,-1,73
 118 1320 118 1320 118 1321 c 0,74,75
 118 1357 118 1357 146 1391 c 128,-1,76
 174 1425 174 1425 218 1425 c 2,77,-1
 224 1425 l 1,78,79
 373 1416 373 1416 472 1416 c 0,80,81
 741 1416 741 1416 915 1456 c 0,82,83
 926 1459 926 1459 937 1459 c 0,0,1
EndSplineSet
Validated: 1
EndChar

StartChar: F
Encoding: 41 70 41
Width: 1092
GlyphClass: 2
Flags: W
LayerCount: 2
Fore
SplineSet
931 1438 m 0,0,1
 971 1438 971 1438 1001.5 1410 c 128,-1,2
 1032 1382 1032 1382 1032 1339 c 0,3,4
 1032 1305 1032 1305 1010.5 1277 c 128,-1,5
 989 1249 989 1249 955 1241 c 0,6,7
 760 1196 760 1196 466 1196 c 0,8,9
 394 1196 394 1196 325 1199 c 1,10,11
 340 1049 340 1049 345 837 c 1,12,13
 409 841 409 841 489 841 c 0,14,15
 656 841 656 841 855 818 c 0,16,17
 892 814 892 814 917.5 785.5 c 128,-1,18
 943 757 943 757 943 719 c 0,19,20
 943 677 943 677 913 648 c 128,-1,21
 883 619 883 619 843 619 c 0,22,23
 841 619 841 619 837 619.5 c 128,-1,24
 833 620 833 620 831 620 c 0,25,26
 660 641 660 641 489 641 c 0,27,28
 442 641 442 641 348 637 c 1,29,-1
 348 583 l 2,30,31
 348 280 348 280 316 -11 c 0,32,33
 312 -49 312 -49 283.5 -74.5 c 128,-1,34
 255 -100 255 -100 217 -100 c 0,35,36
 175 -100 175 -100 146 -70 c 128,-1,37
 117 -40 117 -40 117 0 c 0,38,39
 117 2 117 2 117.5 5.5 c 128,-1,40
 118 9 118 9 118 11 c 0,41,42
 148 286 148 286 148 583 c 2,43,-1
 148 622 l 1,44,45
 112 627 112 627 86 654.5 c 128,-1,46
 60 682 60 682 60 721 c 0,47,48
 60 758 60 758 84.5 786.5 c 128,-1,49
 109 815 109 815 146 820 c 1,50,51
 140 1072 140 1072 114 1292 c 0,52,53
 114 1293 114 1293 113.5 1295.5 c 128,-1,54
 113 1298 113 1298 113 1300 c 0,55,56
 113 1336 113 1336 140.5 1370 c 128,-1,57
 168 1404 168 1404 213 1404 c 2,58,-1
 219 1404 l 1,59,60
 349 1396 349 1396 466 1396 c 0,61,62
 740 1396 740 1396 909 1435 c 0,63,64
 920 1438 920 1438 931 1438 c 0,0,1
EndSplineSet
Validated: 1
EndChar

StartChar: G
Encoding: 42 71 42
Width: 1352
GlyphClass: 2
Flags: W
LayerCount: 2
Fore
SplineSet
641 685 m 0,0,1
 641 728 641 728 671 756.5 c 128,-1,2
 701 785 701 785 741 785 c 0,3,4
 746 785 746 785 758 783 c 0,5,6
 858 765 858 765 990 765 c 0,7,8
 1094 765 1094 765 1167 778 c 0,9,10
 1172 779 1172 779 1183 779 c 0,11,12
 1223 779 1223 779 1252.5 750.5 c 128,-1,13
 1282 722 1282 722 1284 687 c 0,14,15
 1292 581 1292 581 1292 500 c 0,16,17
 1292 235 1292 235 1148.5 90 c 128,-1,18
 1005 -55 1005 -55 716 -55 c 0,19,20
 580 -55 580 -55 458.5 -1.5 c 128,-1,21
 337 52 337 52 249.5 144.5 c 128,-1,22
 162 237 162 237 111 365.5 c 128,-1,23
 60 494 60 494 60 639 c 0,24,25
 60 763 60 763 86.5 876 c 128,-1,26
 113 989 113 989 170 1088 c 128,-1,27
 227 1187 227 1187 308.5 1259.5 c 128,-1,28
 390 1332 390 1332 506.5 1374 c 128,-1,29
 623 1416 623 1416 763 1416 c 0,30,31
 948 1416 948 1416 1097 1306 c 0,32,33
 1137 1277 1137 1277 1137 1226 c 0,34,35
 1137 1184 1137 1184 1107 1155 c 128,-1,36
 1077 1126 1077 1126 1037 1126 c 0,37,38
 1006 1126 1006 1126 978 1146 c 0,39,40
 885 1216 885 1216 763 1216 c 0,41,42
 513 1216 513 1216 386.5 1060.5 c 128,-1,43
 260 905 260 905 260 639 c 0,44,45
 260 424 260 424 392.5 284.5 c 128,-1,46
 525 145 525 145 716 145 c 0,47,48
 830 145 830 145 902.5 164 c 128,-1,49
 975 183 975 183 1017.5 227.5 c 128,-1,50
 1060 272 1060 272 1076 336 c 128,-1,51
 1092 400 1092 400 1092 500 c 0,52,53
 1092 543 1092 543 1091 568 c 1,54,55
 1044 565 1044 565 990 565 c 0,56,57
 851 565 851 565 724 587 c 0,58,59
 688 593 688 593 664.5 621 c 128,-1,60
 641 649 641 649 641 685 c 0,0,1
EndSplineSet
Validated: 1
EndChar

StartChar: H
Encoding: 43 72 43
Width: 1239
GlyphClass: 2
Flags: W
LayerCount: 2
Fore
SplineSet
232 1416 m 128,-1,1
 273 1416 273 1416 302.5 1386.5 c 128,-1,2
 332 1357 332 1357 332 1316 c 0,3,4
 332 1032 332 1032 322 775 c 1,5,6
 536 773 536 773 891 761 c 1,7,-1
 867 1312 l 2,8,9
 865 1354 865 1354 895 1385 c 128,-1,10
 925 1416 925 1416 967 1416 c 0,11,12
 1007 1416 1007 1416 1036.5 1388 c 128,-1,13
 1066 1360 1066 1360 1067 1320 c 2,14,-1
 1092 753 l 1,15,16
 1129 748 1129 748 1154 719.5 c 128,-1,17
 1179 691 1179 691 1179 654 c 0,18,19
 1179 619 1179 619 1156.5 591.5 c 128,-1,20
 1134 564 1134 564 1101 556 c 1,21,-1
 1126 -17 l 2,22,23
 1128 -59 1128 -59 1098 -90 c 128,-1,24
 1068 -121 1068 -121 1026 -121 c 0,25,26
 986 -121 986 -121 956.5 -93 c 128,-1,27
 927 -65 927 -65 926 -25 c 2,28,-1
 900 561 l 1,29,30
 613 572 613 572 312 575 c 1,31,32
 294 255 294 255 268 -10 c 0,33,34
 264 -48 264 -48 235 -74 c 128,-1,35
 206 -100 206 -100 168 -100 c 0,36,37
 126 -100 126 -100 97 -70 c 128,-1,38
 68 -40 68 -40 68 0 c 0,39,40
 68 2 68 2 68.5 5 c 128,-1,41
 69 8 69 8 69 10 c 0,42,43
 96 282 96 282 112 589 c 1,44,45
 89 602 89 602 74.5 625.5 c 128,-1,46
 60 649 60 649 60 676 c 0,47,48
 60 706 60 706 76 730.5 c 128,-1,49
 92 755 92 755 119 767 c 1,50,51
 129 1023 129 1023 132 1317 c 0,52,53
 132 1357 132 1357 161.5 1386.5 c 128,-1,0
 191 1416 191 1416 232 1416 c 128,-1,1
EndSplineSet
Validated: 33
EndChar

StartChar: I
Encoding: 44 73 44
Width: 355
GlyphClass: 2
Flags: W
LayerCount: 2
Fore
SplineSet
160 -100 m 0,0,1
 118 -100 118 -100 88.5 -69.5 c 128,-1,2
 59 -39 59 -39 60 3 c 2,3,-1
 95 1364 l 2,4,5
 96 1404 96 1404 125.5 1432.5 c 128,-1,6
 155 1461 155 1461 195 1461 c 0,7,8
 237 1461 237 1461 266.5 1430.5 c 128,-1,9
 296 1400 296 1400 295 1358 c 2,10,-1
 260 -3 l 2,11,12
 259 -43 259 -43 229.5 -71.5 c 128,-1,13
 200 -100 200 -100 160 -100 c 0,0,1
EndSplineSet
Validated: 33
EndChar

StartChar: J
Encoding: 45 74 45
Width: 680
GlyphClass: 2
Flags: W
LayerCount: 2
Fore
SplineSet
160 148 m 0,0,1
 172 148 172 148 196.5 146.5 c 128,-1,2
 221 145 221 145 233 145 c 0,3,4
 322 145 322 145 348.5 180 c 128,-1,5
 375 215 375 215 375 330 c 0,6,7
 375 841 375 841 331 1217 c 1,8,-1
 173 1217 l 2,9,10
 132 1217 132 1217 102.5 1246.5 c 128,-1,11
 73 1276 73 1276 73 1317 c 128,-1,12
 73 1358 73 1358 102.5 1387.5 c 128,-1,13
 132 1417 132 1417 173 1417 c 2,14,-1
 520 1417 l 2,15,16
 561 1417 561 1417 590.5 1387.5 c 128,-1,17
 620 1358 620 1358 620 1317 c 0,18,19
 620 1278 620 1278 593.5 1251 c 128,-1,20
 567 1224 567 1224 532 1218 c 1,21,22
 575 839 575 839 575 330 c 0,23,24
 575 251 575 251 556 184 c 128,-1,25
 537 117 537 117 498 62 c 128,-1,26
 459 7 459 7 391 -24 c 128,-1,27
 323 -55 323 -55 233 -55 c 0,28,29
 192 -55 192 -55 152 -52 c 0,30,31
 113 -49 113 -49 86.5 -20 c 128,-1,32
 60 9 60 9 60 48 c 0,33,34
 60 90 60 90 90 119 c 128,-1,35
 120 148 120 148 160 148 c 0,0,1
EndSplineSet
Validated: 1
EndChar

StartChar: K
Encoding: 46 75 46
Width: 1177
GlyphClass: 2
Flags: W
LayerCount: 2
Fore
SplineSet
946 1461 m 0,0,1
 988 1461 988 1461 1017 1431 c 128,-1,2
 1046 1401 1046 1401 1046 1361 c 0,3,4
 1046 1329 1046 1329 1026 1301 c 0,5,6
 788 979 788 979 317 694 c 1,7,8
 582 405 582 405 1071 91 c 0,9,10
 1117 61 1117 61 1117 6 c 0,11,12
 1117 -36 1117 -36 1086.5 -64.5 c 128,-1,13
 1056 -93 1056 -93 1016 -93 c 0,14,15
 986 -93 986 -93 963 -77 c 0,16,17
 540 195 540 195 272 454 c 1,18,-1
 260 -3 l 2,19,20
 259 -43 259 -43 229.5 -71.5 c 128,-1,21
 200 -100 200 -100 160 -100 c 0,22,23
 118 -100 118 -100 88.5 -69.5 c 128,-1,24
 59 -39 59 -39 60 3 c 2,25,-1
 77 669 l 1,26,27
 65 692 65 692 65 720 c 128,-1,28
 65 748 65 748 80 774 c 1,29,-1
 95 1363 l 2,30,31
 96 1403 96 1403 125.5 1431.5 c 128,-1,32
 155 1460 155 1460 195 1460 c 0,33,34
 237 1460 237 1460 266.5 1429.5 c 128,-1,35
 296 1399 296 1399 295 1357 c 2,36,-1
 283 909 l 1,37,38
 670 1156 670 1156 866 1421 c 0,39,40
 895 1461 895 1461 946 1461 c 0,0,1
EndSplineSet
Validated: 33
EndChar

StartChar: L
Encoding: 47 76 47
Width: 1126
GlyphClass: 2
Flags: W
LayerCount: 2
Fore
SplineSet
78 1316 m 2,0,1
 78 1356 78 1356 107 1386 c 128,-1,2
 136 1416 136 1416 178 1416 c 0,3,4
 217 1416 217 1416 246.5 1389 c 128,-1,5
 276 1362 276 1362 278 1323 c 0,6,7
 294 1077 294 1077 294 830 c 0,8,9
 294 527 294 527 267 142 c 1,10,-1
 969 122 l 2,11,12
 1009 121 1009 121 1037.5 91.5 c 128,-1,13
 1066 62 1066 62 1066 22 c 0,14,15
 1066 -19 1066 -19 1036.5 -48.5 c 128,-1,16
 1007 -78 1007 -78 966 -78 c 2,17,-1
 963 -78 l 1,18,-1
 157 -55 l 2,19,20
 119 -54 119 -54 89.5 -24.5 c 128,-1,21
 60 5 60 5 60 45 c 2,22,-1
 60 53 l 1,23,24
 94 500 94 500 94 830 c 0,25,26
 94 1069 94 1069 78 1309 c 1,27,-1
 78 1316 l 2,0,1
EndSplineSet
Validated: 1
EndChar

StartChar: M
Encoding: 48 77 48
Width: 1539
GlyphClass: 2
Flags: W
LayerCount: 2
Fore
SplineSet
160 -100 m 0,0,1
 118 -100 118 -100 89 -70 c 128,-1,2
 60 -40 60 -40 60 0 c 0,3,4
 60 2 60 2 60.5 5 c 128,-1,5
 61 8 61 8 61 10 c 2,6,-1
 198 1310 l 2,7,8
 202 1348 202 1348 230.5 1374 c 128,-1,9
 259 1400 259 1400 297 1400 c 0,10,11
 332 1400 332 1400 358.5 1376.5 c 128,-1,12
 385 1353 385 1353 393 1326 c 0,13,14
 436 1169 436 1169 524.5 969.5 c 128,-1,15
 613 770 613 770 695 627 c 0,16,17
 733 563 733 563 757 537 c 1,18,19
 782 562 782 562 811 612 c 0,20,21
 896 755 896 755 986 979.5 c 128,-1,22
 1076 1204 1076 1204 1102 1336 c 0,23,24
 1109 1371 1109 1371 1137.5 1393.5 c 128,-1,25
 1166 1416 1166 1416 1201 1416 c 0,26,27
 1243 1416 1243 1416 1271 1384 c 128,-1,28
 1299 1352 1299 1352 1300 1319 c 0,29,30
 1313 955 1313 955 1353.5 671 c 128,-1,31
 1394 387 1394 387 1476 35 c 0,32,33
 1479 24 1479 24 1479 13 c 0,34,35
 1479 -27 1479 -27 1451 -57.5 c 128,-1,36
 1423 -88 1423 -88 1380 -88 c 0,37,38
 1346 -88 1346 -88 1318 -66.5 c 128,-1,39
 1290 -45 1290 -45 1282 -11 c 0,40,41
 1173 454 1173 454 1134 814 c 1,42,43
 1054 628 1054 628 983 510 c 0,44,45
 959 470 959 470 940.5 443 c 128,-1,46
 922 416 922 416 893.5 387 c 128,-1,47
 865 358 865 358 831 343.5 c 128,-1,48
 797 329 797 329 757 329 c 0,49,50
 722 329 722 329 690 342 c 128,-1,51
 658 355 658 355 636.5 371.5 c 128,-1,52
 615 388 615 388 590.5 419.5 c 128,-1,53
 566 451 566 451 554 470.5 c 128,-1,54
 542 490 542 490 521 527 c 0,55,56
 438 672 438 672 352 864 c 1,57,-1
 259 -10 l 2,58,59
 255 -48 255 -48 226.5 -74 c 128,-1,60
 198 -100 198 -100 160 -100 c 0,0,1
EndSplineSet
Validated: 1
EndChar

StartChar: N
Encoding: 49 78 49
Width: 1227
GlyphClass: 2
Flags: W
LayerCount: 2
Fore
SplineSet
160 -100 m 0,0,1
 119 -100 119 -100 89.5 -70 c 128,-1,2
 60 -40 60 -40 60 0 c 0,3,4
 60 238 60 238 81 674.5 c 128,-1,5
 102 1111 102 1111 105 1317 c 0,6,7
 106 1358 106 1358 135.5 1387 c 128,-1,8
 165 1416 165 1416 205 1416 c 0,9,10
 256 1416 256 1416 285 1377 c 0,11,12
 625 930 625 930 956 372 c 1,13,-1
 967 1362 l 2,14,15
 968 1403 968 1403 997.5 1432 c 128,-1,16
 1027 1461 1027 1461 1067 1461 c 0,17,18
 1108 1461 1108 1461 1138 1431 c 128,-1,19
 1168 1401 1168 1401 1167 1360 c 2,20,-1
 1152 3 l 2,21,22
 1151 -35 1151 -35 1122.5 -65.5 c 128,-1,23
 1094 -96 1094 -96 1053 -96 c 0,24,25
 993 -96 993 -96 965 -45 c 0,26,27
 647 528 647 528 299 1019 c 1,28,29
 288 609 288 609 260 -4 c 0,30,31
 259 -44 259 -44 229.5 -72 c 128,-1,32
 200 -100 200 -100 160 -100 c 0,0,1
EndSplineSet
Validated: 33
EndChar

StartChar: O
Encoding: 50 79 50
Width: 1485
GlyphClass: 2
Flags: W
LayerCount: 2
Fore
SplineSet
713 145 m 0,0,1
 939 145 939 145 1082 290.5 c 128,-1,2
 1225 436 1225 436 1225 684 c 0,3,4
 1225 918 1225 918 1106.5 1067 c 128,-1,5
 988 1216 988 1216 799 1216 c 0,6,7
 686 1216 686 1216 585.5 1169.5 c 128,-1,8
 485 1123 485 1123 414 1043 c 128,-1,9
 343 963 343 963 301.5 851 c 128,-1,10
 260 739 260 739 260 613 c 0,11,12
 260 391 260 391 383.5 268 c 128,-1,13
 507 145 507 145 713 145 c 0,0,1
713 -55 m 0,14,15
 528 -55 528 -55 380 26.5 c 128,-1,16
 232 108 232 108 146 261 c 128,-1,17
 60 414 60 414 60 613 c 0,18,19
 60 773 60 773 115 920 c 128,-1,20
 170 1067 170 1067 266 1176.5 c 128,-1,21
 362 1286 362 1286 501 1351 c 128,-1,22
 640 1416 640 1416 799 1416 c 0,23,24
 944 1416 944 1416 1064 1355 c 128,-1,25
 1184 1294 1184 1294 1262 1191.5 c 128,-1,26
 1340 1089 1340 1089 1382.5 958 c 128,-1,27
 1425 827 1425 827 1425 684 c 0,28,29
 1425 522 1425 522 1370 383.5 c 128,-1,30
 1315 245 1315 245 1220 149 c 128,-1,31
 1125 53 1125 53 994 -1 c 128,-1,32
 863 -55 863 -55 713 -55 c 0,14,15
EndSplineSet
Validated: 1
EndChar

StartChar: P
Encoding: 51 80 51
Width: 1269
GlyphClass: 2
Flags: W
LayerCount: 2
Fore
SplineSet
421 1177 m 1,0,1
 456 1147 456 1147 456 1101 c 2,2,3
 456 1101 456 1101 456 1092 c 2,4,-1
 405 522 l 1,5,6
 507 509 507 509 560 509 c 0,7,8
 675 509 675 509 778.5 556.5 c 128,-1,9
 882 604 882 604 945.5 686 c 128,-1,10
 1009 768 1009 768 1009 862 c 0,11,12
 1009 1020 1009 1020 905.5 1118 c 128,-1,13
 802 1216 802 1216 636 1216 c 0,14,15
 533 1216 533 1216 421 1177 c 1,0,1
160 1037 m 0,16,17
 119 1037 119 1037 89.5 1067 c 128,-1,18
 60 1097 60 1097 60 1137 c 0,19,20
 60 1173 60 1173 85 1203 c 0,21,22
 173 1303 173 1303 327 1359.5 c 128,-1,23
 481 1416 481 1416 636 1416 c 0,24,25
 794 1416 794 1416 924.5 1346.5 c 128,-1,26
 1055 1277 1055 1277 1132 1149.5 c 128,-1,27
 1209 1022 1209 1022 1209 862 c 0,28,29
 1209 761 1209 761 1170.5 671 c 128,-1,30
 1132 581 1132 581 1066.5 516 c 128,-1,31
 1001 451 1001 451 917.5 403.5 c 128,-1,32
 834 356 834 356 742 332.5 c 128,-1,33
 650 309 650 309 560 309 c 0,34,35
 475 309 475 309 387 320 c 1,36,-1
 358 -9 l 2,37,38
 354 -47 354 -47 325 -73.5 c 128,-1,39
 296 -100 296 -100 258 -100 c 0,40,41
 216 -100 216 -100 187 -70 c 128,-1,42
 158 -40 158 -40 158 0 c 2,43,-1
 158 9 l 1,44,-1
 192 394 l 1,45,46
 177 418 177 418 177 448 c 0,47,48
 177 486 177 486 203 514 c 1,49,-1
 254 1090 l 1,50,-1
 235 1071 l 2,51,52
 204 1037 204 1037 160 1037 c 0,16,17
EndSplineSet
Validated: 1
EndChar

StartChar: Q
Encoding: 52 81 52
Width: 1485
GlyphClass: 2
Flags: W
LayerCount: 2
Fore
SplineSet
783 438 m 0,0,1
 783 478 783 478 811.5 508.5 c 128,-1,2
 840 539 840 539 882 539 c 0,3,4
 935 539 935 539 964 498 c 0,5,6
 1065 358 1065 358 1159.5 252 c 128,-1,7
 1254 146 1254 146 1374 40 c 0,8,9
 1408 9 1408 9 1408 -35 c 0,10,11
 1408 -76 1408 -76 1378 -105.5 c 128,-1,12
 1348 -135 1348 -135 1308 -135 c 0,13,14
 1272 -135 1272 -135 1242 -110 c 0,15,16
 1114 2 1114 2 1011 117.5 c 128,-1,17
 908 233 908 233 802 380 c 0,18,19
 783 405 783 405 783 438 c 0,0,1
713 145 m 0,20,21
 939 145 939 145 1082 290.5 c 128,-1,22
 1225 436 1225 436 1225 684 c 0,23,24
 1225 918 1225 918 1106.5 1067 c 128,-1,25
 988 1216 988 1216 799 1216 c 0,26,27
 686 1216 686 1216 585.5 1169.5 c 128,-1,28
 485 1123 485 1123 414 1043 c 128,-1,29
 343 963 343 963 301.5 851 c 128,-1,30
 260 739 260 739 260 613 c 0,31,32
 260 391 260 391 383.5 268 c 128,-1,33
 507 145 507 145 713 145 c 0,20,21
713 -55 m 0,34,35
 528 -55 528 -55 380 26.5 c 128,-1,36
 232 108 232 108 146 261 c 128,-1,37
 60 414 60 414 60 613 c 0,38,39
 60 773 60 773 115 920 c 128,-1,40
 170 1067 170 1067 266 1176.5 c 128,-1,41
 362 1286 362 1286 501 1351 c 128,-1,42
 640 1416 640 1416 799 1416 c 0,43,44
 944 1416 944 1416 1064 1355 c 128,-1,45
 1184 1294 1184 1294 1262 1191.5 c 128,-1,46
 1340 1089 1340 1089 1382.5 958 c 128,-1,47
 1425 827 1425 827 1425 684 c 0,48,49
 1425 522 1425 522 1370 383.5 c 128,-1,50
 1315 245 1315 245 1220 149 c 128,-1,51
 1125 53 1125 53 994 -1 c 128,-1,52
 863 -55 863 -55 713 -55 c 0,34,35
EndSplineSet
Validated: 5
EndChar

StartChar: R
Encoding: 53 82 53
Width: 1270
GlyphClass: 2
Flags: W
LayerCount: 2
Fore
SplineSet
419 1180 m 1,0,1
 456 1149 456 1149 456 1102 c 2,2,-1
 456 1095 l 1,3,-1
 418 528 l 1,4,5
 435 523 435 523 460 518.5 c 128,-1,6
 485 514 485 514 504.5 512 c 128,-1,7
 524 510 524 510 542 508 c 2,8,-1
 560 507 l 1,9,10
 733 507 733 507 855 613.5 c 128,-1,11
 977 720 977 720 977 862 c 0,12,13
 977 1024 977 1024 881 1120 c 128,-1,14
 785 1216 785 1216 622 1216 c 0,15,16
 524 1216 524 1216 419 1180 c 1,0,1
160 1037 m 0,17,18
 119 1037 119 1037 89.5 1067 c 128,-1,19
 60 1097 60 1097 60 1137 c 0,20,21
 60 1173 60 1173 85 1203 c 0,22,23
 172 1303 172 1303 320 1359.5 c 128,-1,24
 468 1416 468 1416 622 1416 c 0,25,26
 863 1416 863 1416 1020 1259.5 c 128,-1,27
 1177 1103 1177 1103 1177 862 c 0,28,29
 1177 672 1177 672 1051 526.5 c 128,-1,30
 925 381 925 381 736 330 c 1,31,-1
 1160 87 l 2,32,33
 1210 59 1210 59 1210 -1 c 0,34,35
 1210 -44 1210 -44 1179.5 -72 c 128,-1,36
 1149 -100 1149 -100 1109 -100 c 0,37,38
 1082 -100 1082 -100 1060 -87 c 2,39,-1
 402 291 l 1,40,-1
 382 -7 l 2,41,42
 379 -46 379 -46 350 -73 c 128,-1,43
 321 -100 321 -100 282 -100 c 0,44,45
 240 -100 240 -100 211 -70 c 128,-1,46
 182 -40 182 -40 182 0 c 2,47,-1
 182 7 l 1,48,-1
 209 404 l 1,49,50
 170 435 170 435 170 484 c 0,51,52
 170 541 170 541 220 569 c 1,53,-1
 255 1091 l 1,54,55
 244 1082 244 1082 235 1071 c 0,56,57
 204 1037 204 1037 160 1037 c 0,17,18
EndSplineSet
Validated: 1
EndChar

StartChar: S
Encoding: 54 83 54
Width: 1182
GlyphClass: 2
Flags: W
LayerCount: 2
Fore
SplineSet
1061 1229 m 0,0,1
 1061 1186 1061 1186 1030 1158 c 128,-1,2
 999 1130 999 1130 960 1130 c 0,3,4
 936 1130 936 1130 912 1143 c 0,5,6
 781 1216 781 1216 619 1216 c 0,7,8
 467 1216 467 1216 366 1140.5 c 128,-1,9
 265 1065 265 1065 265 960 c 0,10,11
 265 910 265 910 348 863 c 128,-1,12
 431 816 431 816 611 762 c 0,13,14
 782 710 782 710 842 685 c 0,15,16
 1070 590 1070 590 1112 426 c 0,17,18
 1122 387 1122 387 1122 343 c 0,19,20
 1122 253 1122 253 1087.5 182.5 c 128,-1,21
 1053 112 1053 112 998 68.5 c 128,-1,22
 943 25 943 25 869.5 -4 c 128,-1,23
 796 -33 796 -33 724.5 -44 c 128,-1,24
 653 -55 653 -55 578 -55 c 0,25,26
 449 -55 449 -55 326 -27.5 c 128,-1,27
 203 0 203 0 112 51 c 0,28,29
 88 64 88 64 74 88 c 128,-1,30
 60 112 60 112 60 139 c 0,31,32
 60 182 60 182 91 210 c 128,-1,33
 122 238 122 238 161 238 c 0,34,35
 185 238 185 238 209 225 c 0,36,37
 271 191 271 191 373 168 c 128,-1,38
 475 145 475 145 578 145 c 0,39,40
 744 145 744 145 833 196.5 c 128,-1,41
 922 248 922 248 922 343 c 0,42,43
 922 408 922 408 833 460 c 128,-1,44
 744 512 744 512 553 570 c 0,45,46
 388 619 388 619 335 641 c 0,47,48
 113 731 113 731 74 885 c 0,49,50
 65 921 65 921 65 960 c 0,51,52
 65 1046 65 1046 97 1120.5 c 128,-1,53
 129 1195 129 1195 184 1248.5 c 128,-1,54
 239 1302 239 1302 310 1340.5 c 128,-1,55
 381 1379 381 1379 460 1397.5 c 128,-1,56
 539 1416 539 1416 619 1416 c 0,57,58
 833 1416 833 1416 1010 1317 c 0,59,60
 1061 1288 1061 1288 1061 1229 c 0,0,1
EndSplineSet
Validated: 1
EndChar

StartChar: T
Encoding: 55 84 55
Width: 1423
GlyphClass: 2
Flags: W
LayerCount: 2
Fore
SplineSet
1363 1297 m 128,-1,1
 1363 1256 1363 1256 1333.5 1226.5 c 128,-1,2
 1304 1197 1304 1197 1263 1197 c 2,3,-1
 1261 1197 l 1,4,-1
 815 1205 l 1,5,6
 814 1115 814 1115 806 894 c 128,-1,7
 798 673 798 673 798 551 c 0,8,9
 798 460 798 460 803 277 c 128,-1,10
 808 94 808 94 808 3 c 0,11,12
 808 -38 808 -38 779 -67.5 c 128,-1,13
 750 -97 750 -97 708 -97 c 0,14,15
 668 -97 668 -97 639 -68.5 c 128,-1,16
 610 -40 610 -40 608 0 c 0,17,18
 598 307 598 307 598 551 c 0,19,20
 598 869 598 869 612 1208 c 1,21,-1
 158 1216 l 2,22,23
 118 1217 118 1217 89 1246 c 128,-1,24
 60 1275 60 1275 60 1316 c 128,-1,25
 60 1357 60 1357 89.5 1386.5 c 128,-1,26
 119 1416 119 1416 160 1416 c 2,27,-1
 162 1416 l 1,28,-1
 1265 1397 l 2,29,30
 1305 1396 1305 1396 1334 1367 c 128,-1,0
 1363 1338 1363 1338 1363 1297 c 128,-1,1
EndSplineSet
Validated: 1
EndChar

StartChar: U
Encoding: 56 85 56
Width: 1230
GlyphClass: 2
Flags: W
LayerCount: 2
Fore
SplineSet
235 1434 m 0,0,1
 278 1434 278 1434 306 1403.5 c 128,-1,2
 334 1373 334 1373 334 1333 c 0,3,4
 334 1320 334 1320 332 1313 c 0,5,6
 260 979 260 979 260 734 c 0,7,8
 260 618 260 618 269 530 c 128,-1,9
 278 442 278 442 300.5 367 c 128,-1,10
 323 292 323 292 360.5 244.5 c 128,-1,11
 398 197 398 197 455.5 171 c 128,-1,12
 513 145 513 145 591 145 c 0,13,14
 659 145 659 145 714.5 174 c 128,-1,15
 770 203 770 203 808.5 251.5 c 128,-1,16
 847 300 847 300 876.5 373 c 128,-1,17
 906 446 906 446 923.5 525.5 c 128,-1,18
 941 605 941 605 951.5 704.5 c 128,-1,19
 962 804 962 804 966 896 c 128,-1,20
 970 988 970 988 970 1095 c 0,21,22
 970 1138 970 1138 966 1227.5 c 128,-1,23
 962 1317 962 1317 962 1361 c 0,24,25
 962 1401 962 1401 991.5 1431 c 128,-1,26
 1021 1461 1021 1461 1062 1461 c 0,27,28
 1102 1461 1102 1461 1131.5 1433 c 128,-1,29
 1161 1405 1161 1405 1162 1365 c 0,30,31
 1170 1191 1170 1191 1170 1095 c 0,32,33
 1170 980 1170 980 1168.5 906 c 128,-1,34
 1167 832 1167 832 1155.5 699 c 128,-1,35
 1144 566 1144 566 1123 476 c 128,-1,36
 1102 386 1102 386 1059 277 c 128,-1,37
 1016 168 1016 168 956.5 102 c 128,-1,38
 897 36 897 36 803 -9.5 c 128,-1,39
 709 -55 709 -55 591 -55 c 0,40,41
 60 -55 60 -55 60 734 c 0,42,43
 60 1009 60 1009 136 1355 c 0,44,45
 143 1389 143 1389 171.5 1411.5 c 128,-1,46
 200 1434 200 1434 235 1434 c 0,0,1
EndSplineSet
Validated: 1
EndChar

StartChar: V
Encoding: 57 86 57
Width: 1368
GlyphClass: 2
Flags: W
LayerCount: 2
Fore
SplineSet
60 1315 m 0,0,1
 60 1355 60 1355 88 1385.5 c 128,-1,2
 116 1416 116 1416 159 1416 c 0,3,4
 189 1416 189 1416 215 1399 c 128,-1,5
 241 1382 241 1382 253 1353 c 2,6,-1
 672 307 l 1,7,-1
 1116 1355 l 2,8,9
 1128 1383 1128 1383 1153.5 1399.5 c 128,-1,10
 1179 1416 1179 1416 1209 1416 c 0,11,12
 1252 1416 1252 1416 1280 1385.5 c 128,-1,13
 1308 1355 1308 1355 1308 1315 c 0,14,15
 1308 1296 1308 1296 1300 1277 c 2,16,-1
 761 6 l 2,17,18
 751 -18 751 -18 726 -36.5 c 128,-1,19
 701 -55 701 -55 670 -55 c 0,20,21
 640 -55 640 -55 614 -38 c 128,-1,22
 588 -21 588 -21 576 8 c 2,23,-1
 67 1279 l 2,24,25
 60 1296 60 1296 60 1315 c 0,0,1
EndSplineSet
Validated: 1
EndChar

StartChar: W
Encoding: 58 87 58
Width: 2006
GlyphClass: 2
Flags: W
LayerCount: 2
Fore
SplineSet
60 1348 m 0,0,1
 60 1388 60 1388 88 1418.5 c 128,-1,2
 116 1449 116 1449 159 1449 c 0,3,4
 192 1449 192 1449 219 1429.5 c 128,-1,5
 246 1410 246 1410 256 1378 c 2,6,-1
 569 340 l 1,7,-1
 938 1218 l 2,8,9
 950 1246 950 1246 975.5 1262.5 c 128,-1,10
 1001 1279 1001 1279 1031 1279 c 0,11,12
 1064 1279 1064 1279 1090 1258.5 c 128,-1,13
 1116 1238 1116 1238 1125 1211 c 2,14,-1
 1415 356 l 1,15,-1
 1751 1348 l 2,16,17
 1761 1378 1761 1378 1788 1397 c 128,-1,18
 1815 1416 1815 1416 1847 1416 c 0,19,20
 1890 1416 1890 1416 1918 1385.5 c 128,-1,21
 1946 1355 1946 1355 1946 1315 c 0,22,23
 1946 1296 1946 1296 1941 1284 c 2,24,-1
 1510 13 l 2,25,26
 1500 -15 1500 -15 1475 -35 c 128,-1,27
 1450 -55 1450 -55 1416 -55 c 0,28,29
 1384 -55 1384 -55 1357 -36.5 c 128,-1,30
 1330 -18 1330 -18 1320 13 c 2,31,-1
 1020 897 l 1,32,-1
 645 6 l 2,33,34
 635 -19 635 -19 610.5 -37 c 128,-1,35
 586 -55 586 -55 554 -55 c 0,36,37
 521 -55 521 -55 494 -35.5 c 128,-1,38
 467 -16 467 -16 457 16 c 2,39,-1
 64 1320 l 2,40,41
 60 1332 60 1332 60 1348 c 0,0,1
EndSplineSet
Validated: 1
EndChar

StartChar: X
Encoding: 59 88 59
Width: 1267
GlyphClass: 2
Flags: W
LayerCount: 2
Fore
SplineSet
103 1276 m 0,0,1
 103 1316 103 1316 131.5 1346.5 c 128,-1,2
 160 1377 160 1377 202 1377 c 0,3,4
 255 1377 255 1377 285 1335 c 2,5,-1
 622 857 l 1,6,-1
 987 1394 l 2,7,8
 1017 1438 1017 1438 1071 1438 c 0,9,10
 1113 1438 1113 1438 1141.5 1407.5 c 128,-1,11
 1170 1377 1170 1377 1170 1337 c 0,12,13
 1170 1308 1170 1308 1153 1282 c 2,14,-1
 745 683 l 1,15,-1
 1189 54 l 2,16,17
 1207 28 1207 28 1207 -3 c 0,18,19
 1207 -43 1207 -43 1178.5 -73.5 c 128,-1,20
 1150 -104 1150 -104 1108 -104 c 0,21,22
 1055 -104 1055 -104 1025 -62 c 2,23,-1
 625 505 l 1,24,-1
 243 -56 l 2,25,26
 213 -100 213 -100 159 -100 c 0,27,28
 117 -100 117 -100 88.5 -69.5 c 128,-1,29
 60 -39 60 -39 60 1 c 0,30,31
 60 30 60 30 77 56 c 2,32,-1
 501 680 l 1,33,-1
 121 1219 l 2,34,35
 103 1244 103 1244 103 1276 c 0,0,1
EndSplineSet
Validated: 1
EndChar

StartChar: Y
Encoding: 60 89 60
Width: 1267
GlyphClass: 2
Flags: W
LayerCount: 2
Fore
SplineSet
736 2 m 2,0,1
 737 -39 737 -39 707.5 -69.5 c 128,-1,2
 678 -100 678 -100 636 -100 c 0,3,4
 595 -100 595 -100 566 -71 c 128,-1,5
 537 -42 537 -42 536 -2 c 2,6,-1
 526 601 l 1,7,-1
 79 1229 l 2,8,9
 60 1256 60 1256 60 1286 c 0,10,11
 60 1326 60 1326 88.5 1356.5 c 128,-1,12
 117 1387 117 1387 159 1387 c 0,13,14
 211 1387 211 1387 241 1345 c 2,15,-1
 623 808 l 1,16,-1
 1024 1394 l 2,17,18
 1054 1438 1054 1438 1108 1438 c 0,19,20
 1150 1438 1150 1438 1178.5 1407.5 c 128,-1,21
 1207 1377 1207 1377 1207 1337 c 0,22,23
 1207 1306 1207 1306 1190 1282 c 2,24,-1
 726 603 l 1,25,-1
 736 2 l 2,0,1
EndSplineSet
Validated: 33
EndChar

StartChar: Z
Encoding: 61 90 61
Width: 1422
GlyphClass: 2
Flags: W
LayerCount: 2
Fore
SplineSet
161 1140 m 0,0,1
 121 1140 121 1140 90.5 1168 c 128,-1,2
 60 1196 60 1196 60 1239 c 0,3,4
 60 1273 60 1273 81.5 1301 c 128,-1,5
 103 1329 103 1329 136 1337 c 0,6,7
 455 1416 455 1416 745 1416 c 0,8,9
 754 1416 754 1416 783 1416.5 c 128,-1,10
 812 1417 812 1417 831 1417 c 0,11,12
 1115 1417 1115 1417 1184 1278 c 0,13,14
 1200 1246 1200 1246 1200 1211 c 0,15,16
 1200 1141 1200 1141 1136 1071 c 0,17,18
 880 790 880 790 714.5 589.5 c 128,-1,19
 549 389 549 389 401 167 c 1,20,21
 800 204 800 204 1197 204 c 2,22,-1
 1262 204 l 2,23,24
 1302 204 1302 204 1332 174 c 128,-1,25
 1362 144 1362 144 1362 104 c 128,-1,26
 1362 64 1362 64 1332 34 c 128,-1,27
 1302 4 1302 4 1262 4 c 2,28,-1
 1197 4 l 2,29,30
 713 4 713 4 217 -52 c 0,31,32
 215 -52 215 -52 211 -52.5 c 128,-1,33
 207 -53 207 -53 205 -53 c 0,34,35
 162 -53 162 -53 134 -22 c 128,-1,36
 106 9 106 9 106 48 c 0,37,38
 106 75 106 75 121 99 c 0,39,40
 243 300 243 300 389.5 496 c 128,-1,41
 536 692 536 692 658 834 c 128,-1,42
 780 976 780 976 977 1193 c 1,43,44
 895 1216 895 1216 745 1216 c 0,45,46
 473 1216 473 1216 184 1143 c 0,47,48
 172 1140 172 1140 161 1140 c 0,0,1
EndSplineSet
Validated: 1
EndChar

StartChar: bracketleft
Encoding: 62 91 62
Width: 562
GlyphClass: 2
Flags: W
LayerCount: 2
Fore
SplineSet
449 1421 m 0,0,1
 489 1421 489 1421 519 1392 c 128,-1,2
 549 1363 549 1363 549 1321 c 0,3,4
 549 1282 549 1282 522.5 1253 c 128,-1,5
 496 1224 496 1224 457 1221 c 0,6,7
 390 1216 390 1216 295 1216 c 2,8,-1
 249 1216 l 1,9,10
 258 1092 258 1092 258 972 c 0,11,12
 258 855 258 855 246 622.5 c 128,-1,13
 234 390 234 390 234 281 c 2,14,-1
 234 266 l 2,15,16
 234 236 234 236 235 220 c 128,-1,17
 236 204 236 204 245.5 189 c 128,-1,18
 255 174 255 174 265 168.5 c 128,-1,19
 275 163 275 163 304 157 c 128,-1,20
 333 151 333 151 362 149.5 c 128,-1,21
 391 148 391 148 449 145 c 0,22,23
 489 144 489 144 516.5 114.5 c 128,-1,24
 544 85 544 85 544 45 c 0,25,26
 544 4 544 4 514 -25.5 c 128,-1,27
 484 -55 484 -55 444 -55 c 2,28,-1
 440 -55 l 2,29,30
 386 -53 386 -53 341.5 -46.5 c 128,-1,31
 297 -40 297 -40 248 -27 c 128,-1,32
 199 -14 199 -14 163 9.5 c 128,-1,33
 127 33 127 33 96.5 66.5 c 128,-1,34
 66 100 66 100 50 151 c 128,-1,35
 34 202 34 202 34 266 c 0,36,37
 34 380 34 380 46 618 c 128,-1,38
 58 856 58 856 58 972 c 0,39,40
 58 1144 58 1144 39 1309 c 0,41,42
 39 1310 39 1310 38.5 1313 c 128,-1,43
 38 1316 38 1316 38 1317 c 0,44,45
 38 1353 38 1353 66 1387 c 128,-1,46
 94 1421 94 1421 138 1421 c 0,47,48
 164 1421 164 1421 216 1418.5 c 128,-1,49
 268 1416 268 1416 295 1416 c 0,50,51
 323 1416 323 1416 374 1418.5 c 128,-1,52
 425 1421 425 1421 449 1421 c 0,0,1
EndSplineSet
Validated: 1
EndChar

StartChar: backslash
Encoding: 63 92 63
Width: 967
GlyphClass: 2
Flags: W
LayerCount: 2
Fore
SplineSet
44 1316 m 0,0,1
 44 1356 44 1356 73 1386 c 128,-1,2
 102 1416 102 1416 144 1416 c 0,3,4
 195 1416 195 1416 224 1376 c 0,5,6
 360 1194 360 1194 451 1061.5 c 128,-1,7
 542 929 542 929 644.5 760.5 c 128,-1,8
 747 592 747 592 829.5 413.5 c 128,-1,9
 912 235 912 235 983 33 c 0,10,11
 989 16 989 16 989 1 c 0,12,13
 989 -39 989 -39 961 -69.5 c 128,-1,14
 933 -100 933 -100 890 -100 c 0,15,16
 859 -100 859 -100 832 -81.5 c 128,-1,17
 805 -63 805 -63 795 -33 c 0,18,19
 727 160 727 160 649 328.5 c 128,-1,20
 571 497 571 497 473 658.5 c 128,-1,21
 375 820 375 820 287 947 c 128,-1,22
 199 1074 199 1074 64 1256 c 0,23,24
 44 1284 44 1284 44 1316 c 0,0,1
EndSplineSet
Validated: 1
EndChar

StartChar: bracketright
Encoding: 64 93 64
Width: 735
GlyphClass: 2
Flags: W
LayerCount: 2
Fore
SplineSet
0 1343 m 0,0,1
 0 1386 0 1386 30 1414.5 c 128,-1,2
 60 1443 60 1443 100 1443 c 0,3,4
 111 1443 111 1443 116 1442 c 0,5,6
 265 1419 265 1419 412 1416 c 0,7,8
 454 1415 454 1415 482 1384 c 128,-1,9
 510 1353 510 1353 510 1314 c 0,10,11
 510 1307 510 1307 508 1295 c 0,12,13
 484 1183 484 1183 478 1106 c 128,-1,14
 472 1029 472 1029 472 875 c 0,15,16
 472 780 472 780 499 582 c 128,-1,17
 526 384 526 384 526 285 c 0,18,19
 526 205 526 205 500 143 c 128,-1,20
 474 81 474 81 433.5 44.5 c 128,-1,21
 393 8 393 8 336 -15.5 c 128,-1,22
 279 -39 279 -39 224 -47 c 128,-1,23
 169 -55 169 -55 107 -55 c 0,24,25
 66 -55 66 -55 36.5 -25.5 c 128,-1,26
 7 4 7 4 7 45 c 128,-1,27
 7 86 7 86 36.5 115.5 c 128,-1,28
 66 145 66 145 107 145 c 0,29,30
 240 145 240 145 283 171 c 128,-1,31
 326 197 326 197 326 285 c 0,32,33
 326 380 326 380 299 577.5 c 128,-1,34
 272 775 272 775 272 875 c 0,35,36
 272 1100 272 1100 290 1221 c 1,37,38
 182 1229 182 1229 84 1244 c 0,39,40
 48 1250 48 1250 24 1278.5 c 128,-1,41
 0 1307 0 1307 0 1343 c 0,0,1
EndSplineSet
Validated: 1
EndChar

StartChar: asciicircum
Encoding: 65 94 65
Width: 703
GlyphClass: 2
Flags: W
LayerCount: 2
Fore
SplineSet
164 1069 m 0,0,1
 122 1069 122 1069 93.5 1099.5 c 128,-1,2
 65 1130 65 1130 65 1170 c 0,3,4
 65 1198 65 1198 80 1222 c 2,5,-1
 246 1491 l 2,6,7
 274 1537 274 1537 332 1537 c 0,8,9
 369 1537 369 1537 395 1515 c 0,10,11
 535 1398 535 1398 623 1212 c 0,12,13
 633 1192 633 1192 633 1170 c 0,14,15
 633 1130 633 1130 605 1099.5 c 128,-1,16
 577 1069 577 1069 534 1069 c 0,17,18
 506 1069 506 1069 480.5 1084.5 c 128,-1,19
 455 1100 455 1100 443 1126 c 0,20,21
 400 1217 400 1217 350 1278 c 1,22,-1
 250 1116 l 2,23,24
 220 1069 220 1069 164 1069 c 0,0,1
EndSplineSet
Validated: 1
EndChar

StartChar: underscore
Encoding: 66 95 66
Width: 667
GlyphClass: 2
Flags: W
LayerCount: 2
Fore
SplineSet
768 45 m 128,-1,1
 768 4 768 4 738 -25.5 c 128,-1,2
 708 -55 708 -55 668 -55 c 2,3,-1
 0 -55 l 2,4,5
 -40 -55 -40 -55 -70 -25.5 c 128,-1,6
 -100 4 -100 4 -100 45 c 128,-1,7
 -100 86 -100 86 -70 115.5 c 128,-1,8
 -40 145 -40 145 0 145 c 2,9,-1
 668 145 l 2,10,11
 708 145 708 145 738 115.5 c 128,-1,0
 768 86 768 86 768 45 c 128,-1,1
EndSplineSet
Validated: 1
EndChar

StartChar: grave
Encoding: 67 96 67
Width: 525
GlyphClass: 2
Flags: W
LayerCount: 2
Fore
SplineSet
81 1482 m 0,0,1
 81 1522 81 1522 110 1552 c 128,-1,2
 139 1582 139 1582 181 1582 c 0,3,4
 230 1582 230 1582 260 1544 c 0,5,6
 354 1425 354 1425 451 1210 c 0,7,8
 460 1190 460 1190 460 1170 c 0,9,10
 460 1130 460 1130 432 1099.5 c 128,-1,11
 404 1069 404 1069 361 1069 c 0,12,13
 332 1069 332 1069 307 1085 c 128,-1,14
 282 1101 282 1101 269 1128 c 0,15,16
 236 1202 236 1202 187 1288.5 c 128,-1,17
 138 1375 138 1375 102 1420 c 0,18,19
 81 1447 81 1447 81 1482 c 0,0,1
EndSplineSet
Validated: 1
EndChar

StartChar: a
Encoding: 68 97 68
Width: 1229
GlyphClass: 2
Flags: W
LayerCount: 2
Fore
SplineSet
1069 -55 m 0,0,1
 987 -55 987 -55 935 -5 c 128,-1,2
 883 45 883 45 862 114 c 1,3,4
 705 -55 705 -55 480 -55 c 0,5,6
 383 -55 383 -55 303 -16.5 c 128,-1,7
 223 22 223 22 170.5 87.5 c 128,-1,8
 118 153 118 153 89 238.5 c 128,-1,9
 60 324 60 324 60 419 c 0,10,11
 60 507 60 507 83.5 597.5 c 128,-1,12
 107 688 107 688 154 771.5 c 128,-1,13
 201 855 201 855 265 920 c 128,-1,14
 329 985 329 985 417.5 1024 c 128,-1,15
 506 1063 506 1063 605 1063 c 0,16,17
 773 1063 773 1063 899 951 c 0,18,19
 905 947 905 947 909 941 c 1,20,21
 910 946 910 946 911 955 c 128,-1,22
 912 964 912 964 913 968 c 0,23,24
 917 1005 917 1005 946.5 1030 c 128,-1,25
 976 1055 976 1055 1013 1055 c 0,26,27
 1056 1055 1056 1055 1084 1025 c 128,-1,28
 1112 995 1112 995 1112 955 c 0,29,30
 1112 946 1112 946 1111 942 c 2,31,-1
 1049 454 l 1,32,33
 1040 337 1040 337 1040 293 c 0,34,35
 1040 256 1040 256 1045 220.5 c 128,-1,36
 1050 185 1050 185 1056.5 165 c 128,-1,37
 1063 145 1063 145 1069 145 c 0,38,39
 1110 145 1110 145 1139.5 115.5 c 128,-1,40
 1169 86 1169 86 1169 45 c 128,-1,41
 1169 4 1169 4 1139.5 -25.5 c 128,-1,42
 1110 -55 1110 -55 1069 -55 c 0,0,1
890 794 m 1,43,44
 862 776 862 776 833 776 c 0,45,46
 797 776 797 776 767 801 c 0,47,48
 697 863 697 863 605 863 c 0,49,50
 516 863 516 863 435.5 799.5 c 128,-1,51
 355 736 355 736 307.5 633 c 128,-1,52
 260 530 260 530 260 419 c 0,53,54
 260 288 260 288 320 216.5 c 128,-1,55
 380 145 380 145 480 145 c 0,56,57
 622 145 622 145 719.5 254.5 c 128,-1,58
 817 364 817 364 851 538 c 0,59,60
 866 621 866 621 890 794 c 1,43,44
EndSplineSet
Validated: 1
EndChar

StartChar: b
Encoding: 69 98 69
Width: 1123
GlyphClass: 2
Flags: W
LayerCount: 2
Fore
SplineSet
475 -55 m 0,0,1
 295 -55 295 -55 252 6 c 1,2,3
 240 -21 240 -21 215 -38 c 128,-1,4
 190 -55 190 -55 160 -55 c 0,5,6
 119 -55 119 -55 89 -24.5 c 128,-1,7
 59 6 59 6 60 48 c 2,8,-1
 102 1364 l 2,9,10
 104 1404 104 1404 133 1432.5 c 128,-1,11
 162 1461 162 1461 202 1461 c 0,12,13
 244 1461 244 1461 274 1430.5 c 128,-1,14
 304 1400 304 1400 302 1358 c 2,15,-1
 289 939 l 1,16,17
 418 1071 418 1071 611 1071 c 0,18,19
 705 1071 705 1071 782 1037 c 128,-1,20
 859 1003 859 1003 910 946.5 c 128,-1,21
 961 890 961 890 996.5 815 c 128,-1,22
 1032 740 1032 740 1047.5 659.5 c 128,-1,23
 1063 579 1063 579 1063 495 c 0,24,25
 1063 337 1063 337 984 210.5 c 128,-1,26
 905 84 905 84 771 14.5 c 128,-1,27
 637 -55 637 -55 475 -55 c 0,0,1
263 134 m 1,28,29
 292 163 292 163 335 163 c 0,30,31
 347 163 347 163 359 160 c 0,32,33
 414 145 414 145 475 145 c 0,34,35
 649 145 649 145 756 243.5 c 128,-1,36
 863 342 863 342 863 495 c 0,37,38
 863 672 863 672 796 771.5 c 128,-1,39
 729 871 729 871 611 871 c 0,40,41
 547 871 547 871 495 844 c 128,-1,42
 443 817 443 817 407 765.5 c 128,-1,43
 371 714 371 714 344.5 649 c 128,-1,44
 318 584 318 584 302 497 c 128,-1,45
 286 410 286 410 277 324 c 128,-1,46
 268 238 268 238 263 134 c 1,28,29
EndSplineSet
Validated: 33
EndChar

StartChar: c
Encoding: 70 99 70
Width: 1031
GlyphClass: 2
Flags: W
LayerCount: 2
Fore
SplineSet
955 877 m 0,0,1
 955 836 955 836 925 806.5 c 128,-1,2
 895 777 895 777 855 777 c 0,3,4
 818 777 818 777 790 801 c 0,5,6
 709 871 709 871 611 871 c 0,7,8
 515 871 515 871 433 804 c 128,-1,9
 351 737 351 737 305.5 631 c 128,-1,10
 260 525 260 525 260 411 c 0,11,12
 260 281 260 281 319 213 c 128,-1,13
 378 145 378 145 528 145 c 0,14,15
 679 145 679 145 819 229 c 0,16,17
 841 243 841 243 870 243 c 0,18,19
 910 243 910 243 940.5 215 c 128,-1,20
 971 187 971 187 971 144 c 0,21,22
 971 86 971 86 923 57 c 0,23,24
 739 -55 739 -55 528 -55 c 0,25,26
 431 -55 431 -55 351.5 -29 c 128,-1,27
 272 -3 272 -3 219 41.5 c 128,-1,28
 166 86 166 86 129.5 146.5 c 128,-1,29
 93 207 93 207 76.5 273 c 128,-1,30
 60 339 60 339 60 411 c 0,31,32
 60 499 60 499 82 590 c 128,-1,33
 104 681 104 681 150 767.5 c 128,-1,34
 196 854 196 854 260 921.5 c 128,-1,35
 324 989 324 989 415 1030 c 128,-1,36
 506 1071 506 1071 611 1071 c 0,37,38
 784 1071 784 1071 920 953 c 0,39,40
 955 923 955 923 955 877 c 0,0,1
EndSplineSet
Validated: 1
EndChar

StartChar: d
Encoding: 71 100 71
Width: 1177
GlyphClass: 2
Flags: W
LayerCount: 2
Fore
SplineSet
1017 -55 m 0,0,1
 925 -55 925 -55 879 96 c 1,2,3
 743 -55 743 -55 534 -55 c 0,4,5
 315 -55 315 -55 187.5 90 c 128,-1,6
 60 235 60 235 60 465 c 0,7,8
 60 574 60 574 93 679.5 c 128,-1,9
 126 785 126 785 187.5 873 c 128,-1,10
 249 961 249 961 348 1015 c 128,-1,11
 447 1069 447 1069 567 1069 c 0,12,13
 725 1069 725 1069 859 956 c 1,14,15
 861 1024 861 1024 864.5 1160 c 128,-1,16
 868 1296 868 1296 870 1364 c 0,17,18
 871 1404 871 1404 900.5 1432.5 c 128,-1,19
 930 1461 930 1461 970 1461 c 0,20,21
 1013 1461 1013 1461 1042 1430.5 c 128,-1,22
 1071 1400 1071 1400 1070 1359 c 2,23,-1
 1051 510 l 1,24,25
 1051 295 1051 295 1060.5 216.5 c 128,-1,26
 1070 138 1070 138 1094 109 c 0,27,28
 1117 81 1117 81 1117 45 c 0,29,30
 1117 5 1117 5 1087.5 -25 c 128,-1,31
 1058 -55 1058 -55 1017 -55 c 0,0,1
853 743 m 1,32,33
 841 741 841 741 835 741 c 0,34,35
 792 741 792 741 762 773 c 0,36,37
 673 869 673 869 567 869 c 0,38,39
 435 869 435 869 347.5 752.5 c 128,-1,40
 260 636 260 636 260 465 c 0,41,42
 260 145 260 145 534 145 c 0,43,44
 683 145 683 145 763.5 274 c 128,-1,45
 844 403 844 403 850 613 c 2,46,-1
 853 743 l 1,32,33
EndSplineSet
Validated: 33
EndChar

StartChar: e
Encoding: 72 101 72
Width: 1141
GlyphClass: 2
Flags: W
LayerCount: 2
Fore
SplineSet
981 281 m 0,0,1
 1021 281 1021 281 1051 251.5 c 128,-1,2
 1081 222 1081 222 1081 181 c 0,3,4
 1081 136 1081 136 1048 107 c 0,5,6
 963 29 963 29 854.5 -13 c 128,-1,7
 746 -55 746 -55 630 -55 c 0,8,9
 463 -55 463 -55 333 28 c 128,-1,10
 203 111 203 111 152 257 c 1,11,12
 114 260 114 260 87 288 c 128,-1,13
 60 316 60 316 60 355 c 0,14,15
 60 387 60 387 78.5 414 c 128,-1,16
 97 441 97 441 126 451 c 1,17,18
 131 544 131 544 160.5 634 c 128,-1,19
 190 724 190 724 242.5 802.5 c 128,-1,20
 295 881 295 881 363.5 941 c 128,-1,21
 432 1001 432 1001 522.5 1036 c 128,-1,22
 613 1071 613 1071 713 1071 c 0,23,24
 760 1071 760 1071 807 1059.5 c 128,-1,25
 854 1048 854 1048 897.5 1023.5 c 128,-1,26
 941 999 941 999 974.5 964.5 c 128,-1,27
 1008 930 1008 930 1028.5 881 c 128,-1,28
 1049 832 1049 832 1049 775 c 0,29,30
 1049 725 1049 725 1032.5 679.5 c 128,-1,31
 1016 634 1016 634 994 603 c 128,-1,32
 972 572 972 572 937.5 541.5 c 128,-1,33
 903 511 903 511 881 496.5 c 128,-1,34
 859 482 859 482 829 464 c 0,35,36
 612 335 612 335 359 283 c 1,37,38
 395 219 395 219 465 182 c 128,-1,39
 535 145 535 145 630 145 c 0,40,41
 791 145 791 145 914 255 c 0,42,43
 943 281 943 281 981 281 c 0,0,1
330 482 m 1,44,45
 544 528 544 528 727 636 c 0,46,47
 849 709 849 709 849 775 c 0,48,49
 849 813 849 813 812.5 842 c 128,-1,50
 776 871 776 871 713 871 c 0,51,52
 570 871 570 871 462 758.5 c 128,-1,53
 354 646 354 646 330 482 c 1,44,45
EndSplineSet
Validated: 1
EndChar

StartChar: f
Encoding: 73 102 73
Width: 773
GlyphClass: 2
Flags: W
LayerCount: 2
Fore
SplineSet
160 449 m 0,0,1
 120 449 120 449 90 478 c 128,-1,2
 60 507 60 507 60 549 c 0,3,4
 60 588 60 588 86.5 617 c 128,-1,5
 113 646 113 646 152 649 c 0,6,7
 212 653 212 653 237 653 c 1,8,9
 247 864 247 864 263 1037 c 0,10,11
 292 1384 292 1384 484 1424 c 0,12,13
 506 1428 506 1428 519 1428 c 0,14,15
 608 1428 608 1428 687 1340 c 0,16,17
 712 1312 712 1312 712 1273 c 0,18,19
 712 1233 712 1233 682.5 1203 c 128,-1,20
 653 1173 653 1173 612 1173 c 0,21,22
 567 1173 567 1173 537 1206 c 0,23,24
 526 1219 526 1219 522 1222 c 1,25,26
 504 1198 504 1198 486.5 1141 c 128,-1,27
 469 1084 469 1084 463 1019 c 0,28,29
 445 820 445 820 437 650 c 1,30,31
 512 646 512 646 625 634 c 0,32,33
 662 630 662 630 687.5 601.5 c 128,-1,34
 713 573 713 573 713 535 c 0,35,36
 713 493 713 493 683 464 c 128,-1,37
 653 435 653 435 613 435 c 0,38,39
 611 435 611 435 607 435.5 c 128,-1,40
 603 436 603 436 601 436 c 0,41,42
 526 445 526 445 429 450 c 1,43,44
 423 274 423 274 423 2 c 2,45,-1
 423 -4 l 2,46,47
 423 -44 423 -44 393.5 -74 c 128,-1,48
 364 -104 364 -104 323 -104 c 0,49,50
 280 -104 280 -104 251.5 -73 c 128,-1,51
 223 -42 223 -42 223 2 c 0,52,53
 223 229 223 229 229 451 c 1,54,55
 183 449 183 449 160 449 c 0,0,1
EndSplineSet
Validated: 1
EndChar

StartChar: g
Encoding: 74 103 74
Width: 1137
GlyphClass: 2
Flags: W
LayerCount: 2
Fore
SplineSet
874 916 m 1,0,1
 870 876 870 876 840.5 850 c 128,-1,2
 811 824 811 824 773 824 c 0,3,4
 746 824 746 824 722 839 c 0,5,6
 669 871 669 871 593 871 c 0,7,8
 503 871 503 871 428 808.5 c 128,-1,9
 353 746 353 746 311 642.5 c 128,-1,10
 269 539 269 539 269 420 c 0,11,12
 269 302 269 302 341.5 223.5 c 128,-1,13
 414 145 414 145 516 145 c 0,14,15
 584 145 584 145 638.5 172 c 128,-1,16
 693 199 693 199 731.5 251 c 128,-1,17
 770 303 770 303 797.5 370.5 c 128,-1,18
 825 438 825 438 841 527.5 c 128,-1,19
 857 617 857 617 865 711 c 128,-1,20
 873 805 873 805 874 916 c 1,0,1
60 -172 m 0,21,22
 60 -132 60 -132 88 -101.5 c 128,-1,23
 116 -71 116 -71 159 -71 c 0,24,25
 185 -71 185 -71 209 -84 c 128,-1,26
 233 -97 233 -97 246 -120 c 0,27,28
 282 -180 282 -180 353.5 -222.5 c 128,-1,29
 425 -265 425 -265 521 -265 c 0,30,31
 647 -265 647 -265 718.5 -187 c 128,-1,32
 790 -109 790 -109 829 59 c 1,33,34
 701 -55 701 -55 516 -55 c 0,35,36
 421 -55 421 -55 337.5 -16.5 c 128,-1,37
 254 22 254 22 195.5 86.5 c 128,-1,38
 137 151 137 151 103 238 c 128,-1,39
 69 325 69 325 69 420 c 0,40,41
 69 508 69 508 89 598 c 128,-1,42
 109 688 109 688 152 773.5 c 128,-1,43
 195 859 195 859 255.5 925 c 128,-1,44
 316 991 316 991 403.5 1031 c 128,-1,45
 491 1071 491 1071 593 1071 c 0,46,47
 725 1071 725 1071 826 1009 c 0,48,49
 871 982 871 982 874 930 c 1,50,-1
 874 971 l 2,51,52
 874 1012 874 1012 903.5 1041.5 c 128,-1,53
 933 1071 933 1071 974 1071 c 128,-1,54
 1015 1071 1015 1071 1043.5 1041 c 128,-1,55
 1072 1011 1072 1011 1074 975 c 0,56,57
 1077 900 1077 900 1077 764 c 2,58,-1
 1077 658 l 2,59,60
 1077 532 1077 532 1074.5 445.5 c 128,-1,61
 1072 359 1072 359 1060.5 231.5 c 128,-1,62
 1049 104 1049 104 1027.5 16.5 c 128,-1,63
 1006 -71 1006 -71 965 -169 c 128,-1,64
 924 -267 924 -267 866.5 -326.5 c 128,-1,65
 809 -386 809 -386 720.5 -425.5 c 128,-1,66
 632 -465 632 -465 521 -465 c 0,67,68
 371 -465 371 -465 253.5 -396 c 128,-1,69
 136 -327 136 -327 74 -222 c 0,70,71
 60 -197 60 -197 60 -172 c 0,21,22
EndSplineSet
Validated: 1
EndChar

StartChar: h
Encoding: 75 104 75
Width: 1003
GlyphClass: 2
Flags: W
LayerCount: 2
Fore
SplineSet
250 1471 m 0,0,1
 292 1471 292 1471 321 1441 c 128,-1,2
 350 1411 350 1411 350 1371 c 2,3,-1
 350 1364 l 1,4,-1
 320 908 l 1,5,6
 446 1070 446 1070 615 1070 c 0,7,8
 690 1070 690 1070 749 1040.5 c 128,-1,9
 808 1011 808 1011 843.5 964.5 c 128,-1,10
 879 918 879 918 902.5 855.5 c 128,-1,11
 926 793 926 793 934.5 732.5 c 128,-1,12
 943 672 943 672 943 609 c 0,13,14
 943 539 943 539 932 362.5 c 128,-1,15
 921 186 921 186 921 119 c 0,16,17
 921 61 921 61 928 40 c 0,18,19
 936 19 936 19 936 1 c 0,20,21
 936 -39 936 -39 908 -69.5 c 128,-1,22
 880 -100 880 -100 837 -100 c 0,23,24
 807 -100 807 -100 781.5 -83.5 c 128,-1,25
 756 -67 756 -67 744 -40 c 0,26,27
 721 13 721 13 721 119 c 0,28,29
 721 187 721 187 732 363.5 c 128,-1,30
 743 540 743 540 743 609 c 0,31,32
 743 744 743 744 708 807 c 128,-1,33
 673 870 673 870 615 870 c 0,34,35
 529 870 529 870 450 732 c 128,-1,36
 371 594 371 594 322.5 395 c 128,-1,37
 274 196 274 196 260 -7 c 0,38,39
 257 -45 257 -45 228 -72.5 c 128,-1,40
 199 -100 199 -100 160 -100 c 0,41,42
 119 -100 119 -100 89.5 -70.5 c 128,-1,43
 60 -41 60 -41 60 0 c 2,44,-1
 60 7 l 1,45,-1
 150 1378 l 2,46,47
 152 1417 152 1417 181.5 1444 c 128,-1,48
 211 1471 211 1471 250 1471 c 0,0,1
EndSplineSet
Validated: 1
EndChar

StartChar: j
Encoding: 77 106 77
Width: 630
GlyphClass: 2
Flags: W
LayerCount: 2
Fore
SplineSet
311 971 m 0,0,1
 311 1012 311 1012 340.5 1041.5 c 128,-1,2
 370 1071 370 1071 411 1071 c 0,3,4
 451 1071 451 1071 480.5 1042.5 c 128,-1,5
 510 1014 510 1014 511 974 c 0,6,7
 514 863 514 863 514 587 c 2,8,-1
 514 581 l 2,9,10
 514 539 514 539 515 440 c 128,-1,11
 516 341 516 341 516 286 c 0,12,13
 516 188 516 188 513 110.5 c 128,-1,14
 510 33 510 33 501 -57.5 c 128,-1,15
 492 -148 492 -148 474.5 -217 c 128,-1,16
 457 -286 457 -286 430 -348.5 c 128,-1,17
 403 -411 403 -411 360.5 -451 c 128,-1,18
 318 -491 318 -491 263 -507 c 0,19,20
 238 -514 238 -514 208 -514 c 0,21,22
 172 -514 172 -514 142 -508 c 0,23,24
 107 -501 107 -501 83.5 -473 c 128,-1,25
 60 -445 60 -445 60 -410 c 0,26,27
 60 -367 60 -367 90.5 -338.5 c 128,-1,28
 121 -310 121 -310 161 -310 c 0,29,30
 169 -310 169 -310 183.5 -312 c 128,-1,31
 198 -314 198 -314 208 -314 c 2,32,-1
 209 -314 l 1,33,34
 253 -292 253 -292 283.5 -23 c 128,-1,35
 314 246 314 246 314 581 c 0,36,37
 314 637 314 637 312.5 777 c 128,-1,38
 311 917 311 917 311 971 c 0,0,1
252 1389 m 0,39,40
 252 1440 252 1440 296 1475.5 c 128,-1,41
 340 1511 340 1511 399 1511 c 0,42,43
 457 1511 457 1511 488.5 1476 c 128,-1,44
 520 1441 520 1441 520 1381 c 128,-1,45
 520 1321 520 1321 484 1277.5 c 128,-1,46
 448 1234 448 1234 391 1234 c 128,-1,47
 334 1234 334 1234 293 1282 c 128,-1,48
 252 1330 252 1330 252 1389 c 0,39,40
EndSplineSet
Validated: 1
EndChar

StartChar: k
Encoding: 78 107 78
Width: 979
GlyphClass: 2
Flags: W
LayerCount: 2
Fore
SplineSet
220 1461 m 0,0,1
 262 1461 262 1461 292 1430 c 128,-1,2
 322 1399 322 1399 320 1357 c 2,3,-1
 291 711 l 1,4,5
 508 854 508 854 657 1034 c 0,6,7
 688 1071 688 1071 734 1071 c 0,8,9
 775 1071 775 1071 804.5 1041 c 128,-1,10
 834 1011 834 1011 834 971 c 0,11,12
 834 936 834 936 811 908 c 0,13,14
 621 678 621 678 349 511 c 1,15,16
 467 389 467 389 605.5 274.5 c 128,-1,17
 744 160 744 160 870 86 c 0,18,19
 919 58 919 58 919 -1 c 0,20,21
 919 -44 919 -44 888.5 -72 c 128,-1,22
 858 -100 858 -100 818 -100 c 0,23,24
 793 -100 793 -100 768 -86 c 0,25,26
 525 57 525 57 273 304 c 1,27,-1
 260 0 l 2,28,29
 259 -40 259 -40 229.5 -68 c 128,-1,30
 200 -96 200 -96 160 -96 c 0,31,32
 118 -96 118 -96 88 -65 c 128,-1,33
 58 -34 58 -34 60 8 c 2,34,-1
 120 1365 l 2,35,36
 121 1405 121 1405 150.5 1433 c 128,-1,37
 180 1461 180 1461 220 1461 c 0,0,1
EndSplineSet
Validated: 33
EndChar

StartChar: l
Encoding: 79 108 79
Width: 379
GlyphClass: 2
Flags: W
LayerCount: 2
Fore
SplineSet
199 1450 m 0,0,1
 240 1450 240 1450 269.5 1420 c 128,-1,2
 299 1390 299 1390 299 1350 c 0,3,4
 299 1190 299 1190 289.5 707 c 128,-1,5
 280 224 280 224 280 18 c 2,6,-1
 280 0 l 2,7,8
 280 -40 280 -40 250 -70 c 128,-1,9
 220 -100 220 -100 180 -100 c 128,-1,10
 140 -100 140 -100 110 -70 c 128,-1,11
 80 -40 80 -40 80 0 c 2,12,-1
 80 19 l 2,13,14
 80 949 80 949 99 1355 c 0,15,16
 100 1394 100 1394 130 1422 c 128,-1,17
 160 1450 160 1450 199 1450 c 0,0,1
EndSplineSet
Validated: 1
EndChar

StartChar: m
Encoding: 80 109 80
Width: 1482
GlyphClass: 2
Flags: W
LayerCount: 2
Fore
SplineSet
109 988 m 0,0,1
 109 1028 109 1028 138 1058 c 128,-1,2
 167 1088 167 1088 209 1088 c 0,3,4
 242 1088 242 1088 269 1067 c 128,-1,5
 296 1046 296 1046 305 1014 c 1,6,7
 388 1071 388 1071 500 1071 c 0,8,9
 601 1071 601 1071 676.5 1030.5 c 128,-1,10
 752 990 752 990 792 916 c 1,11,12
 840 986 840 986 911.5 1028.5 c 128,-1,13
 983 1071 983 1071 1072 1071 c 0,14,15
 1163 1071 1163 1071 1232.5 1033.5 c 128,-1,16
 1302 996 1302 996 1340.5 933 c 128,-1,17
 1379 870 1379 870 1398 799 c 128,-1,18
 1417 728 1417 728 1417 651 c 0,19,20
 1417 581 1417 581 1409.5 403 c 128,-1,21
 1402 225 1402 225 1402 157 c 0,22,23
 1402 88 1402 88 1419 26 c 0,24,25
 1422 14 1422 14 1422 1 c 0,26,27
 1422 -39 1422 -39 1394 -69.5 c 128,-1,28
 1366 -100 1366 -100 1323 -100 c 0,29,30
 1290 -100 1290 -100 1262.5 -79.5 c 128,-1,31
 1235 -59 1235 -59 1226 -26 c 0,32,33
 1202 61 1202 61 1202 158 c 0,34,35
 1202 228 1202 228 1209.5 404 c 128,-1,36
 1217 580 1217 580 1217 651 c 0,37,38
 1217 767 1217 767 1181.5 819 c 128,-1,39
 1146 871 1146 871 1072 871 c 0,40,41
 1025 871 1025 871 987.5 838 c 128,-1,42
 950 805 950 805 925.5 742 c 128,-1,43
 901 679 901 679 884 611 c 128,-1,44
 867 543 867 543 856.5 448.5 c 128,-1,45
 846 354 846 354 840.5 284.5 c 128,-1,46
 835 215 835 215 829.5 122.5 c 128,-1,47
 824 30 824 30 821 -9 c 0,48,49
 818 -47 818 -47 788.5 -73.5 c 128,-1,50
 759 -100 759 -100 721 -100 c 0,51,52
 680 -100 680 -100 650.5 -70.5 c 128,-1,53
 621 -41 621 -41 621 0 c 0,54,55
 621 30 621 30 625.5 83.5 c 128,-1,56
 630 137 630 137 631 155 c 0,57,58
 647 429 647 429 647 549 c 2,59,-1
 647 601 l 2,60,61
 647 672 647 672 644.5 710.5 c 128,-1,62
 642 749 642 749 634 785.5 c 128,-1,63
 626 822 626 822 610 837.5 c 128,-1,64
 594 853 594 853 567.5 862 c 128,-1,65
 541 871 541 871 500 871 c 0,66,67
 436 871 436 871 401.5 838.5 c 128,-1,68
 367 806 367 806 341 725 c 0,69,70
 316 646 316 646 300 500 c 1,71,-1
 260 0 l 2,72,73
 257 -39 257 -39 228 -65.5 c 128,-1,74
 199 -92 199 -92 160 -92 c 0,75,76
 117 -92 117 -92 88.5 -62 c 128,-1,77
 60 -32 60 -32 60 8 c 2,78,-1
 60 16 l 1,79,-1
 93 442 l 2,80,81
 118 717 118 717 118 824 c 0,82,83
 118 909 118 909 110 975 c 0,84,85
 109 979 109 979 109 988 c 0,0,1
EndSplineSet
Validated: 1
EndChar

StartChar: n
Encoding: 81 110 81
Width: 1003
GlyphClass: 2
Flags: W
LayerCount: 2
Fore
SplineSet
218 1066 m 0,0,1
 259 1066 259 1066 288.5 1036 c 128,-1,2
 318 1006 318 1006 318 966 c 2,3,-1
 318 960 l 1,4,-1
 312 870 l 1,5,6
 452 1070 452 1070 641 1070 c 0,7,8
 943 1070 943 1070 943 609 c 0,9,10
 943 538 943 538 932 361.5 c 128,-1,11
 921 185 921 185 921 119 c 0,12,13
 921 61 921 61 928 40 c 0,14,15
 936 19 936 19 936 1 c 0,16,17
 936 -39 936 -39 908 -69.5 c 128,-1,18
 880 -100 880 -100 837 -100 c 0,19,20
 807 -100 807 -100 781.5 -83.5 c 128,-1,21
 756 -67 756 -67 744 -40 c 0,22,23
 721 13 721 13 721 119 c 0,24,25
 721 188 721 188 732 364.5 c 128,-1,26
 743 541 743 541 743 609 c 0,27,28
 743 755 743 755 717.5 812.5 c 128,-1,29
 692 870 692 870 641 870 c 0,30,31
 554 870 554 870 468.5 731 c 128,-1,32
 383 592 383 592 328.5 391 c 128,-1,33
 274 190 274 190 260 -7 c 0,34,35
 258 -45 258 -45 228.5 -72.5 c 128,-1,36
 199 -100 199 -100 160 -100 c 0,37,38
 119 -100 119 -100 89.5 -70.5 c 128,-1,39
 60 -41 60 -41 60 0 c 2,40,-1
 60 6 l 1,41,-1
 118 972 l 2,42,43
 120 1011 120 1011 149.5 1038.5 c 128,-1,44
 179 1066 179 1066 218 1066 c 0,0,1
EndSplineSet
Validated: 1
EndChar

StartChar: o
Encoding: 82 111 82
Width: 1109
GlyphClass: 2
Flags: W
LayerCount: 2
Fore
SplineSet
567 871 m 0,0,1
 424 871 424 871 342 765.5 c 128,-1,2
 260 660 260 660 260 486 c 0,3,4
 260 325 260 325 330 235 c 128,-1,5
 400 145 400 145 520 145 c 0,6,7
 655 145 655 145 752 260 c 128,-1,8
 849 375 849 375 849 538 c 0,9,10
 849 686 849 686 773 778.5 c 128,-1,11
 697 871 697 871 567 871 c 0,0,1
567 1071 m 0,12,13
 658 1071 658 1071 737 1041 c 128,-1,14
 816 1011 816 1011 872.5 960 c 128,-1,15
 929 909 929 909 969.5 841 c 128,-1,16
 1010 773 1010 773 1029.5 696 c 128,-1,17
 1049 619 1049 619 1049 538 c 0,18,19
 1049 426 1049 426 1010.5 319.5 c 128,-1,20
 972 213 972 213 905 129.5 c 128,-1,21
 838 46 838 46 737 -4.5 c 128,-1,22
 636 -55 636 -55 520 -55 c 0,23,24
 410 -55 410 -55 321 -10 c 128,-1,25
 232 35 232 35 176 111 c 128,-1,26
 120 187 120 187 90 283.5 c 128,-1,27
 60 380 60 380 60 486 c 0,28,29
 60 575 60 575 79.5 659 c 128,-1,30
 99 743 99 743 140.5 818 c 128,-1,31
 182 893 182 893 241 949 c 128,-1,32
 300 1005 300 1005 384 1038 c 128,-1,33
 468 1071 468 1071 567 1071 c 0,12,13
EndSplineSet
Validated: 1
EndChar

StartChar: p
Encoding: 83 112 83
Width: 1167
GlyphClass: 2
Flags: W
LayerCount: 2
Fore
SplineSet
159 1071 m 0,0,1
 186 1071 186 1071 208 1057.5 c 128,-1,2
 230 1044 230 1044 243.5 1026 c 128,-1,3
 257 1008 257 1008 268.5 978 c 128,-1,4
 280 948 280 948 285 927.5 c 128,-1,5
 290 907 290 907 297 876 c 1,6,7
 376 970 376 970 475 1020.5 c 128,-1,8
 574 1071 574 1071 678 1071 c 0,9,10
 863 1071 863 1071 985 922.5 c 128,-1,11
 1107 774 1107 774 1107 538 c 0,12,13
 1107 449 1107 449 1083 366 c 128,-1,14
 1059 283 1059 283 1005.5 206 c 128,-1,15
 952 129 952 129 873.5 71.5 c 128,-1,16
 795 14 795 14 677.5 -20.5 c 128,-1,17
 560 -55 560 -55 416 -55 c 0,18,19
 376 -55 376 -55 346 -25.5 c 128,-1,20
 316 4 316 4 316 45 c 128,-1,21
 316 86 316 86 346 115.5 c 128,-1,22
 376 145 376 145 416 145 c 0,23,24
 530 145 530 145 618 168 c 128,-1,25
 706 191 706 191 759.5 228.5 c 128,-1,26
 813 266 813 266 847.5 319 c 128,-1,27
 882 372 882 372 894.5 424.5 c 128,-1,28
 907 477 907 477 907 538 c 0,29,30
 907 626 907 626 886.5 693 c 128,-1,31
 866 760 866 760 832 797.5 c 128,-1,32
 798 835 798 835 759 853 c 128,-1,33
 720 871 720 871 678 871 c 0,34,35
 632 871 632 871 585 852 c 128,-1,36
 538 833 538 833 490 788.5 c 128,-1,37
 442 744 442 744 404 678.5 c 128,-1,38
 366 613 366 613 339.5 511.5 c 128,-1,39
 313 410 313 410 308 287 c 1,40,-1
 305 248 l 1,41,-1
 273 -438 l 2,42,43
 272 -477 272 -477 242 -505 c 128,-1,44
 212 -533 212 -533 173 -533 c 0,45,46
 132 -533 132 -533 102.5 -503 c 128,-1,47
 73 -473 73 -473 73 -433 c 2,48,-1
 73 -428 l 1,49,-1
 105 258 l 2,50,51
 110 338 110 338 120 603 c 1,52,53
 120 825 120 825 70 927 c 0,54,55
 60 947 60 947 60 970 c 0,56,57
 60 1010 60 1010 88 1040.5 c 128,-1,58
 116 1071 116 1071 159 1071 c 0,0,1
EndSplineSet
Validated: 1
EndChar

StartChar: q
Encoding: 84 113 84
Width: 1123
GlyphClass: 2
Flags: W
LayerCount: 2
Fore
SplineSet
850 793 m 1,0,1
 821 764 821 764 780 764 c 0,2,3
 732 764 732 764 702 802 c 0,4,5
 641 880 641 880 532 880 c 0,6,7
 408 880 408 880 334 769 c 128,-1,8
 260 658 260 658 260 484 c 0,9,10
 260 307 260 307 315 225.5 c 128,-1,11
 370 144 370 144 490 144 c 0,12,13
 696 144 696 144 793 465 c 0,14,15
 839 618 839 618 850 793 c 1,0,1
1040 -425 m 0,16,17
 1040 -466 1040 -466 1011 -495.5 c 128,-1,18
 982 -525 982 -525 940 -525 c 0,19,20
 900 -525 900 -525 870.5 -497 c 128,-1,21
 841 -469 841 -469 840 -429 c 0,22,23
 829 -159 829 -159 829 87 c 2,24,-1
 829 103 l 1,25,26
 692 -56 692 -56 490 -56 c 0,27,28
 398 -56 398 -56 324.5 -26 c 128,-1,29
 251 4 251 4 202.5 55 c 128,-1,30
 154 106 154 106 121 176 c 128,-1,31
 88 246 88 246 74 322.5 c 128,-1,32
 60 399 60 399 60 484 c 0,33,34
 60 567 60 567 76.5 648.5 c 128,-1,35
 93 730 93 730 129.5 809 c 128,-1,36
 166 888 166 888 219.5 947.5 c 128,-1,37
 273 1007 273 1007 354 1043.5 c 128,-1,38
 435 1080 435 1080 532 1080 c 0,39,40
 634 1080 634 1080 718 1038 c 128,-1,41
 802 996 802 996 859 925 c 1,42,43
 860 935 860 935 861.5 955 c 128,-1,44
 863 975 863 975 863 984 c 0,45,46
 865 1019 865 1019 893.5 1048 c 128,-1,47
 922 1077 922 1077 963 1077 c 128,-1,48
 1004 1077 1004 1077 1033.5 1047.5 c 128,-1,49
 1063 1018 1063 1018 1063 977 c 0,50,51
 1063 872 1063 872 1047 725 c 1,52,53
 1029 385 1029 385 1029 87 c 0,54,55
 1029 2 1029 2 1034.5 -168.5 c 128,-1,56
 1040 -339 1040 -339 1040 -425 c 0,16,17
EndSplineSet
Validated: 1
EndChar

StartChar: r
Encoding: 85 114 85
Width: 865
GlyphClass: 2
Flags: W
LayerCount: 2
Fore
SplineSet
705 1071 m 0,0,1
 745 1071 745 1071 775 1043 c 128,-1,2
 805 1015 805 1015 805 972 c 0,3,4
 805 936 805 936 782 908 c 128,-1,5
 759 880 759 880 724 873 c 0,6,7
 555 840 555 840 468.5 745.5 c 128,-1,8
 382 651 382 651 338 477 c 0,9,10
 326 430 326 430 315 362 c 128,-1,11
 304 294 304 294 299 250 c 128,-1,12
 294 206 294 206 285 110 c 128,-1,13
 276 14 276 14 273 -10 c 0,14,15
 269 -46 269 -46 240.5 -73 c 128,-1,16
 212 -100 212 -100 174 -100 c 0,17,18
 133 -100 133 -100 103.5 -70.5 c 128,-1,19
 74 -41 74 -41 74 0 c 0,20,21
 74 24 74 24 76 50.5 c 128,-1,22
 78 77 78 77 82.5 112 c 128,-1,23
 87 147 87 147 88 162 c 0,24,25
 101 349 101 349 101 532 c 0,26,27
 101 818 101 818 64 943 c 0,28,29
 60 955 60 955 60 970 c 0,30,31
 60 1010 60 1010 88 1040.5 c 128,-1,32
 116 1071 116 1071 159 1071 c 0,33,34
 188 1071 188 1071 209.5 1057.5 c 128,-1,35
 231 1044 231 1044 243 1024.5 c 128,-1,36
 255 1005 255 1005 264 973.5 c 128,-1,37
 273 942 273 942 276.5 916.5 c 128,-1,38
 280 891 280 891 284 855 c 0,39,40
 285 842 285 842 286 836 c 1,41,42
 427 1019 427 1019 686 1069 c 0,43,44
 698 1071 698 1071 705 1071 c 0,0,1
EndSplineSet
Validated: 1
EndChar

StartChar: s
Encoding: 86 115 86
Width: 980
GlyphClass: 2
Flags: W
LayerCount: 2
Fore
SplineSet
888 786 m 0,0,1
 888 746 888 746 860 715.5 c 128,-1,2
 832 685 832 685 789 685 c 0,3,4
 754 685 754 685 725.5 707.5 c 128,-1,5
 697 730 697 730 690 764 c 0,6,7
 679 813 679 813 629.5 842.5 c 128,-1,8
 580 872 580 872 501 872 c 0,9,10
 411 872 411 872 352 835.5 c 128,-1,11
 293 799 293 799 287 756 c 1,12,13
 288 715 288 715 323 683.5 c 128,-1,14
 358 652 358 652 411.5 631 c 128,-1,15
 465 610 465 610 550 589 c 0,16,17
 584 581 584 581 610.5 573 c 128,-1,18
 637 565 637 565 677.5 549.5 c 128,-1,19
 718 534 718 534 748.5 516.5 c 128,-1,20
 779 499 779 499 813 471 c 128,-1,21
 847 443 847 443 869 411 c 128,-1,22
 891 379 891 379 905.5 334.5 c 128,-1,23
 920 290 920 290 920 239 c 0,24,25
 920 181 920 181 899.5 133.5 c 128,-1,26
 879 86 879 86 844 55 c 128,-1,27
 809 24 809 24 766 1.5 c 128,-1,28
 723 -21 723 -21 672.5 -32.5 c 128,-1,29
 622 -44 622 -44 577.5 -49.5 c 128,-1,30
 533 -55 533 -55 488 -55 c 0,31,32
 360 -55 360 -55 246.5 -11 c 128,-1,33
 133 33 133 33 77 116 c 0,34,35
 60 142 60 142 60 170 c 0,36,37
 60 210 60 210 88.5 240.5 c 128,-1,38
 117 271 117 271 159 271 c 0,39,40
 214 271 214 271 243 226 c 0,41,42
 257 205 257 205 332.5 175 c 128,-1,43
 408 145 408 145 488 145 c 0,44,45
 567 145 567 145 622.5 162 c 128,-1,46
 678 179 678 179 699 199 c 128,-1,47
 720 219 720 219 720 239 c 0,48,49
 720 294 720 294 666 331 c 128,-1,50
 612 368 612 368 502 395 c 0,51,52
 369 428 369 428 310 455 c 0,53,54
 87 552 87 552 87 760 c 2,55,-1
 87 768 l 1,56,57
 92 831 92 831 120.5 883 c 128,-1,58
 149 935 149 935 191.5 969.5 c 128,-1,59
 234 1004 234 1004 287.5 1027.5 c 128,-1,60
 341 1051 341 1051 394.5 1061.5 c 128,-1,61
 448 1072 448 1072 501 1072 c 0,62,63
 562 1072 562 1072 621 1057 c 128,-1,64
 680 1042 680 1042 735 1012 c 128,-1,65
 790 982 790 982 830.5 928.5 c 128,-1,66
 871 875 871 875 886 806 c 0,67,68
 888 799 888 799 888 786 c 0,0,1
EndSplineSet
Validated: 1
EndChar

StartChar: t
Encoding: 87 116 87
Width: 775
GlyphClass: 2
Flags: W
LayerCount: 2
Fore
SplineSet
402 1316 m 0,0,1
 444 1316 444 1316 473 1286 c 128,-1,2
 502 1256 502 1256 502 1216 c 0,3,4
 502 1214 502 1214 501.5 1210 c 128,-1,5
 501 1206 501 1206 501 1204 c 0,6,7
 483 1052 483 1052 472 931 c 1,8,9
 567 927 567 927 627 919 c 0,10,11
 664 915 664 915 689.5 886 c 128,-1,12
 715 857 715 857 715 820 c 0,13,14
 715 778 715 778 685 749 c 128,-1,15
 655 720 655 720 615 720 c 0,16,17
 607 720 607 720 603 721 c 0,18,19
 544 729 544 729 456 732 c 1,20,21
 443 529 443 529 443 355 c 0,22,23
 443 238 443 238 473.5 191.5 c 128,-1,24
 504 145 504 145 576 145 c 0,25,26
 586 145 586 145 596 146 c 128,-1,27
 606 147 606 147 612 147 c 0,28,29
 653 147 653 147 682.5 119.5 c 128,-1,30
 712 92 712 92 712 48 c 0,31,32
 712 14 712 14 690.5 -14 c 128,-1,33
 669 -42 669 -42 636 -50 c 0,34,35
 616 -55 616 -55 576 -55 c 0,36,37
 503 -55 503 -55 444.5 -30 c 128,-1,38
 386 -5 386 -5 349 35 c 128,-1,39
 312 75 312 75 287.5 129.5 c 128,-1,40
 263 184 263 184 253 239.5 c 128,-1,41
 243 295 243 295 243 355 c 0,42,43
 243 529 243 529 256 729 c 1,44,45
 222 727 222 727 172 721 c 0,46,47
 170 721 170 721 166 720.5 c 128,-1,48
 162 720 162 720 160 720 c 0,49,50
 120 720 120 720 90 749 c 128,-1,51
 60 778 60 778 60 820 c 0,52,53
 60 858 60 858 85.5 886.5 c 128,-1,54
 111 915 111 915 148 919 c 0,55,56
 217 927 217 927 272 930 c 1,57,58
 281 1030 281 1030 303 1228 c 0,59,60
 307 1265 307 1265 335.5 1290.5 c 128,-1,61
 364 1316 364 1316 402 1316 c 0,0,1
EndSplineSet
Validated: 1
EndChar

StartChar: u
Encoding: 88 117 88
Width: 1003
GlyphClass: 2
Flags: W
LayerCount: 2
Fore
SplineSet
209 1071 m 0,0,1
 252 1071 252 1071 280 1040.5 c 128,-1,2
 308 1010 308 1010 308 970 c 0,3,4
 308 957 308 957 306 950 c 0,5,6
 260 742 260 742 260 584 c 0,7,8
 260 491 260 491 263.5 430 c 128,-1,9
 267 369 267 369 278 310 c 128,-1,10
 289 251 289 251 309.5 218 c 128,-1,11
 330 185 330 185 365 165 c 128,-1,12
 400 145 400 145 450 145 c 0,13,14
 612 145 612 145 678 474 c 0,15,16
 687 520 687 520 693.5 567.5 c 128,-1,17
 700 615 700 615 704.5 671.5 c 128,-1,18
 709 728 709 728 711.5 765.5 c 128,-1,19
 714 803 714 803 717.5 874 c 128,-1,20
 721 945 721 945 723 976 c 0,21,22
 725 1014 725 1014 754 1042.5 c 128,-1,23
 783 1071 783 1071 823 1071 c 0,24,25
 864 1071 864 1071 893.5 1041.5 c 128,-1,26
 923 1012 923 1012 923 971 c 0,27,28
 923 944 923 944 916 813 c 0,29,30
 914 755 914 755 914 639 c 0,31,32
 914 340 914 340 943 58 c 1,33,-1
 943 48 l 2,34,35
 943 8 943 8 914 -22 c 128,-1,36
 885 -52 885 -52 843 -52 c 0,37,38
 805 -52 805 -52 776.5 -26 c 128,-1,39
 748 0 748 0 744 38 c 0,40,41
 740 74 740 74 738 93 c 1,42,43
 687 25 687 25 613 -15 c 128,-1,44
 539 -55 539 -55 450 -55 c 0,45,46
 369 -55 369 -55 305.5 -30 c 128,-1,47
 242 -5 242 -5 202 30.5 c 128,-1,48
 162 66 162 66 133 127.5 c 128,-1,49
 104 189 104 189 90.5 237 c 128,-1,50
 77 285 77 285 69.5 361 c 128,-1,51
 62 437 62 437 61 476.5 c 128,-1,52
 60 516 60 516 60 584 c 0,53,54
 60 762 60 762 110 992 c 0,55,56
 117 1026 117 1026 145.5 1048.5 c 128,-1,57
 174 1071 174 1071 209 1071 c 0,0,1
EndSplineSet
Validated: 1
EndChar

StartChar: v
Encoding: 89 118 89
Width: 1084
GlyphClass: 2
Flags: W
LayerCount: 2
Fore
SplineSet
60 970 m 0,0,1
 60 1010 60 1010 88 1040.5 c 128,-1,2
 116 1071 116 1071 159 1071 c 0,3,4
 188 1071 188 1071 212.5 1056 c 128,-1,5
 237 1041 237 1041 250 1014 c 0,6,7
 453 582 453 582 538 307 c 1,8,9
 731 663 731 663 828 999 c 0,10,11
 838 1031 838 1031 865 1051 c 128,-1,12
 892 1071 892 1071 925 1071 c 0,13,14
 968 1071 968 1071 996 1040.5 c 128,-1,15
 1024 1010 1024 1010 1024 970 c 0,16,17
 1024 955 1024 955 1020 943 c 0,18,19
 883 470 883 470 587 -8 c 0,20,21
 558 -55 558 -55 503 -55 c 0,22,23
 468 -55 468 -55 439.5 -32 c 128,-1,24
 411 -9 411 -9 404 26 c 0,25,26
 364 229 364 229 278.5 447 c 128,-1,27
 193 665 193 665 70 928 c 0,28,29
 60 950 60 950 60 970 c 0,0,1
EndSplineSet
Validated: 1
EndChar

StartChar: w
Encoding: 90 119 90
Width: 1501
GlyphClass: 2
Flags: W
LayerCount: 2
Fore
SplineSet
303 1054 m 0,0,1
 346 1054 346 1054 374 1023 c 128,-1,2
 402 992 402 992 402 953 c 0,3,4
 402 927 402 927 389 905 c 0,5,6
 347 832 347 832 303.5 668.5 c 128,-1,7
 260 505 260 505 260 374 c 0,8,9
 260 250 260 250 294 197.5 c 128,-1,10
 328 145 328 145 406 145 c 0,11,12
 469 145 469 145 534 235 c 128,-1,13
 599 325 599 325 639 450.5 c 128,-1,14
 679 576 679 576 679 681 c 0,15,16
 679 722 679 722 708.5 751.5 c 128,-1,17
 738 781 738 781 779 781 c 0,18,19
 821 781 821 781 849.5 751.5 c 128,-1,20
 878 722 878 722 879 683 c 0,21,22
 888 145 888 145 1038 145 c 0,23,24
 1136 145 1136 145 1188.5 238.5 c 128,-1,25
 1241 332 1241 332 1241 513 c 0,26,27
 1241 621 1241 621 1218.5 729.5 c 128,-1,28
 1196 838 1196 838 1162 906 c 0,29,30
 1151 928 1151 928 1151 950 c 0,31,32
 1151 990 1151 990 1179 1020.5 c 128,-1,33
 1207 1051 1207 1051 1250 1051 c 0,34,35
 1278 1051 1278 1051 1303.5 1036.5 c 128,-1,36
 1329 1022 1329 1022 1341 996 c 0,37,38
 1389 901 1389 901 1415 773.5 c 128,-1,39
 1441 646 1441 646 1441 513 c 0,40,41
 1441 432 1441 432 1430 357 c 128,-1,42
 1419 282 1419 282 1390 205 c 128,-1,43
 1361 128 1361 128 1317 72 c 128,-1,44
 1273 16 1273 16 1201 -19.5 c 128,-1,45
 1129 -55 1129 -55 1038 -55 c 0,46,47
 928 -55 928 -55 854 11.5 c 128,-1,48
 780 78 780 78 742 178 c 1,49,50
 607 -55 607 -55 406 -55 c 0,51,52
 329 -55 329 -55 268 -28.5 c 128,-1,53
 207 -2 207 -2 168.5 40 c 128,-1,54
 130 82 130 82 105 139.5 c 128,-1,55
 80 197 80 197 70 254.5 c 128,-1,56
 60 312 60 312 60 374 c 0,57,58
 60 540 60 540 108 719.5 c 128,-1,59
 156 899 156 899 215 1003 c 0,60,61
 244 1054 244 1054 303 1054 c 0,0,1
EndSplineSet
Validated: 1
EndChar

StartChar: x
Encoding: 91 120 91
Width: 1137
GlyphClass: 2
Flags: W
LayerCount: 2
Fore
SplineSet
135 956 m 0,0,1
 135 996 135 996 163 1026.5 c 128,-1,2
 191 1057 191 1057 234 1057 c 0,3,4
 262 1057 262 1057 287 1042 c 128,-1,5
 312 1027 312 1027 325 1001 c 0,6,7
 407 836 407 836 554 638 c 1,8,-1
 878 1034 l 2,9,10
 909 1071 909 1071 955 1071 c 0,11,12
 996 1071 996 1071 1025.5 1041 c 128,-1,13
 1055 1011 1055 1011 1055 971 c 0,14,15
 1055 936 1055 936 1032 908 c 2,16,-1
 679 477 l 1,17,18
 846 273 846 273 1048 71 c 0,19,20
 1077 42 1077 42 1077 0 c 0,21,22
 1077 -40 1077 -40 1047.5 -70 c 128,-1,23
 1018 -100 1018 -100 977 -100 c 0,24,25
 935 -100 935 -100 906 -71 c 0,26,27
 709 126 709 126 549 318 c 1,28,-1
 237 -63 l 2,29,30
 206 -100 206 -100 160 -100 c 0,31,32
 119 -100 119 -100 89.5 -70 c 128,-1,33
 60 -40 60 -40 60 0 c 0,34,35
 60 35 60 35 83 63 c 2,36,-1
 422 478 l 1,37,38
 242 716 242 716 145 913 c 0,39,40
 135 933 135 933 135 956 c 0,0,1
EndSplineSet
Validated: 1
EndChar

StartChar: y
Encoding: 92 121 92
Width: 1093
GlyphClass: 2
Flags: W
LayerCount: 2
Fore
SplineSet
226 1071 m 0,0,1
 268 1071 268 1071 297 1041 c 128,-1,2
 326 1011 326 1011 326 971 c 0,3,4
 326 969 326 969 325.5 965.5 c 128,-1,5
 325 962 325 962 325 960 c 0,6,7
 305 786 305 786 305 589 c 0,8,9
 305 496 305 496 310 430.5 c 128,-1,10
 315 365 315 365 329.5 308 c 128,-1,11
 344 251 344 251 369.5 217 c 128,-1,12
 395 183 395 183 435 164 c 128,-1,13
 475 145 475 145 531 145 c 0,14,15
 625 145 625 145 686 220.5 c 128,-1,16
 747 296 747 296 783 455 c 0,17,18
 800 527 800 527 810.5 621.5 c 128,-1,19
 821 716 821 716 824.5 780 c 128,-1,20
 828 844 828 844 833 961 c 0,21,22
 835 1000 835 1000 863.5 1028.5 c 128,-1,23
 892 1057 892 1057 933 1057 c 128,-1,24
 974 1057 974 1057 1003.5 1027.5 c 128,-1,25
 1033 998 1033 998 1033 957 c 0,26,27
 1033 901 1033 901 1029 792 c 128,-1,28
 1025 683 1025 683 1025 634 c 0,29,30
 1023 492 1023 492 1021 421 c 0,31,32
 1018 324 1018 324 1012 247 c 128,-1,33
 1006 170 1006 170 990 74 c 128,-1,34
 974 -22 974 -22 949.5 -94.5 c 128,-1,35
 925 -167 925 -167 883.5 -239.5 c 128,-1,36
 842 -312 842 -312 786.5 -359 c 128,-1,37
 731 -406 731 -406 650 -435.5 c 128,-1,38
 569 -465 569 -465 469 -465 c 0,39,40
 321 -465 321 -465 220.5 -404 c 128,-1,41
 120 -343 120 -343 70 -243 c 0,42,43
 60 -223 60 -223 60 -200 c 0,44,45
 60 -160 60 -160 88 -129.5 c 128,-1,46
 116 -99 116 -99 159 -99 c 0,47,48
 187 -99 187 -99 212 -114 c 128,-1,49
 237 -129 237 -129 250 -155 c 0,50,51
 267 -190 267 -190 288.5 -211.5 c 128,-1,52
 310 -233 310 -233 355.5 -249 c 128,-1,53
 401 -265 401 -265 469 -265 c 0,54,55
 601 -265 601 -265 671 -194.5 c 128,-1,56
 741 -124 741 -124 778 31 c 1,57,58
 673 -55 673 -55 531 -55 c 0,59,60
 450 -55 450 -55 384.5 -32.5 c 128,-1,61
 319 -10 319 -10 275 26 c 128,-1,62
 231 62 231 62 199 117 c 128,-1,63
 167 172 167 172 149 225.5 c 128,-1,64
 131 279 131 279 121 348 c 128,-1,65
 111 417 111 417 108 470.5 c 128,-1,66
 105 524 105 524 105 589 c 0,67,68
 105 778 105 778 127 982 c 0,69,70
 131 1020 131 1020 159.5 1045.5 c 128,-1,71
 188 1071 188 1071 226 1071 c 0,0,1
EndSplineSet
Validated: 1
EndChar

StartChar: z
Encoding: 93 122 93
Width: 1054
GlyphClass: 2
Flags: W
LayerCount: 2
Fore
SplineSet
160 782 m 0,0,1
 120 782 120 782 90 810.5 c 128,-1,2
 60 839 60 839 60 882 c 0,3,4
 60 918 60 918 84 946.5 c 128,-1,5
 108 975 108 975 144 981 c 0,6,7
 338 1014 338 1014 538 1014 c 2,8,-1
 579 1014 l 2,9,10
 623 1014 623 1014 655 1012.5 c 128,-1,11
 687 1011 687 1011 731 1002.5 c 128,-1,12
 775 994 775 994 806 980 c 128,-1,13
 837 966 837 966 866.5 938 c 128,-1,14
 896 910 896 910 911 872 c 0,15,16
 922 842 922 842 922 813 c 0,17,18
 922 723 922 723 845 653 c 0,19,20
 696 516 696 516 575 385.5 c 128,-1,21
 454 255 454 255 321 93 c 1,22,23
 617 129 617 129 894 129 c 0,24,25
 935 129 935 129 964.5 99.5 c 128,-1,26
 994 70 994 70 994 29 c 128,-1,27
 994 -12 994 -12 965 -41 c 128,-1,28
 936 -70 936 -70 896 -71 c 0,29,30
 745 -74 745 -74 563.5 -86.5 c 128,-1,31
 382 -99 382 -99 301 -111 c 0,32,33
 272 -117 272 -117 246 -117 c 0,34,35
 168 -117 168 -117 120 -74 c 0,36,37
 71 -31 71 -31 71 37 c 0,38,39
 71 99 71 99 118 160 c 0,40,41
 275 353 275 353 408 499 c 128,-1,42
 541 645 541 645 707 798 c 1,43,44
 651 814 651 814 538 814 c 0,45,46
 367 814 367 814 176 783 c 0,47,48
 171 782 171 782 160 782 c 0,0,1
EndSplineSet
Validated: 1
EndChar

StartChar: braceleft
Encoding: 94 123 94
Width: 564
GlyphClass: 2
Flags: W
LayerCount: 2
Fore
SplineSet
158 215 m 0,0,1
 158 248 158 248 165 310.5 c 128,-1,2
 172 373 172 373 172 413 c 0,3,4
 172 564 172 564 142 647 c 1,5,6
 63 676 63 676 63 746 c 0,7,8
 63 785 63 785 90 814 c 128,-1,9
 117 843 117 843 158 848 c 1,10,11
 167 893 167 893 167 983 c 0,12,13
 167 1025 167 1025 164 1092 c 128,-1,14
 161 1159 161 1159 161 1186 c 0,15,16
 161 1308 161 1308 238.5 1384.5 c 128,-1,17
 316 1461 316 1461 455 1461 c 0,18,19
 496 1461 496 1461 525.5 1431.5 c 128,-1,20
 555 1402 555 1402 555 1361 c 128,-1,21
 555 1320 555 1320 525.5 1290.5 c 128,-1,22
 496 1261 496 1261 455 1261 c 0,23,24
 391 1261 391 1261 376 1252 c 128,-1,25
 361 1243 361 1243 361 1209 c 2,26,-1
 361 1186 l 2,27,28
 361 1159 361 1159 364 1103.5 c 128,-1,29
 367 1048 367 1048 367 1017 c 2,30,-1
 367 983 l 2,31,32
 367 894 367 894 359.5 835.5 c 128,-1,33
 352 777 352 777 326 726 c 1,34,35
 372 611 372 611 372 413 c 0,36,37
 372 337 372 337 363 274 c 0,38,39
 358 244 358 244 358 215 c 2,40,-1
 358 192 l 2,41,42
 358 161 358 161 374 153 c 128,-1,43
 390 145 390 145 458 145 c 0,44,45
 498 145 498 145 528 115.5 c 128,-1,46
 558 86 558 86 558 45 c 128,-1,47
 558 4 558 4 528 -25.5 c 128,-1,48
 498 -55 498 -55 458 -55 c 0,49,50
 321 -55 321 -55 239.5 17.5 c 128,-1,51
 158 90 158 90 158 215 c 0,0,1
EndSplineSet
Validated: 1
EndChar

StartChar: bar
Encoding: 95 124 95
Width: 356
GlyphClass: 2
Flags: W
LayerCount: 2
Fore
SplineSet
159 -100 m 128,-1,1
 118 -100 118 -100 88.5 -70.5 c 128,-1,2
 59 -41 59 -41 59 0 c 0,3,4
 59 177 59 177 67.5 710.5 c 128,-1,5
 76 1244 76 1244 76 1459 c 0,6,7
 76 1500 76 1500 106 1529.5 c 128,-1,8
 136 1559 136 1559 176 1559 c 128,-1,9
 216 1559 216 1559 246 1529.5 c 128,-1,10
 276 1500 276 1500 276 1459 c 0,11,12
 276 892 276 892 259 -2 c 0,13,14
 258 -42 258 -42 229 -71 c 128,-1,0
 200 -100 200 -100 159 -100 c 128,-1,1
EndSplineSet
Validated: 1
EndChar

StartChar: asciitilde
Encoding: 97 126 97
Width: 870
GlyphClass: 2
Flags: W
LayerCount: 2
Fore
SplineSet
89 498 m 4,0,1
 46 498 46 498 17.5 528 c 132,-1,2
 -11 558 -11 558 -11 598 c 4,3,4
 -11 609 -11 609 -10 614 c 4,5,6
 6 713 6 713 81 775 c 132,-1,7
 156 837 156 837 253 837 c 4,8,9
 368 837 368 837 483 752 c 4,10,11
 540 710 540 710 576 710 c 6,12,-1
 580 710 l 6,13,14
 610 710 610 710 642 798 c 4,15,16
 653 828 653 828 679.5 846 c 132,-1,17
 706 864 706 864 737 864 c 4,18,19
 780 864 780 864 808 833.5 c 132,-1,20
 836 803 836 803 836 763 c 4,21,22
 836 746 836 746 830 730 c 4,23,24
 792 627 792 627 726.5 568.5 c 132,-1,25
 661 510 661 510 576 510 c 4,26,27
 474 510 474 510 365 590 c 4,28,29
 300 637 300 637 253 637 c 4,30,31
 197 637 197 637 188 582 c 4,32,33
 182 546 182 546 153.5 522 c 132,-1,34
 125 498 125 498 89 498 c 4,0,1
EndSplineSet
Validated: 1
EndChar

StartChar: cent
Encoding: 100 162 100
Width: 1031
GlyphClass: 2
Flags: W
LayerCount: 2
Fore
SplineSet
547 -465 m 128,-1,1
 506 -465 506 -465 476.5 -435.5 c 128,-1,2
 447 -406 447 -406 447 -365 c 2,3,-1
 447 45 l 2,4,5
 447 86 447 86 476.5 115.5 c 128,-1,6
 506 145 506 145 547 145 c 128,-1,7
 588 145 588 145 617.5 115.5 c 128,-1,8
 647 86 647 86 647 45 c 2,9,-1
 647 -365 l 2,10,11
 647 -406 647 -406 617.5 -435.5 c 128,-1,0
 588 -465 588 -465 547 -465 c 128,-1,1
547 871 m 128,-1,13
 506 871 506 871 476.5 900.5 c 128,-1,14
 447 930 447 930 447 971 c 2,15,-1
 447 1316 l 2,16,17
 447 1356 447 1356 476.5 1386 c 128,-1,18
 506 1416 506 1416 547 1416 c 128,-1,19
 588 1416 588 1416 617.5 1386 c 128,-1,20
 647 1356 647 1356 647 1316 c 2,21,-1
 647 971 l 2,22,23
 647 930 647 930 617.5 900.5 c 128,-1,12
 588 871 588 871 547 871 c 128,-1,13
955 877 m 0,24,25
 955 836 955 836 925 806.5 c 128,-1,26
 895 777 895 777 855 777 c 0,27,28
 818 777 818 777 790 801 c 0,29,30
 709 871 709 871 611 871 c 0,31,32
 515 871 515 871 433 804 c 128,-1,33
 351 737 351 737 305.5 631 c 128,-1,34
 260 525 260 525 260 411 c 0,35,36
 260 281 260 281 319 213 c 128,-1,37
 378 145 378 145 528 145 c 0,38,39
 679 145 679 145 819 229 c 0,40,41
 841 243 841 243 870 243 c 0,42,43
 910 243 910 243 940.5 215 c 128,-1,44
 971 187 971 187 971 144 c 0,45,46
 971 86 971 86 923 57 c 0,47,48
 739 -55 739 -55 528 -55 c 0,49,50
 431 -55 431 -55 351.5 -29 c 128,-1,51
 272 -3 272 -3 219 41.5 c 128,-1,52
 166 86 166 86 129.5 146.5 c 128,-1,53
 93 207 93 207 76.5 273 c 128,-1,54
 60 339 60 339 60 411 c 0,55,56
 60 499 60 499 82 590 c 128,-1,57
 104 681 104 681 150 767.5 c 128,-1,58
 196 854 196 854 260 921.5 c 128,-1,59
 324 989 324 989 415 1030 c 128,-1,60
 506 1071 506 1071 611 1071 c 0,61,62
 784 1071 784 1071 920 953 c 0,63,64
 955 923 955 923 955 877 c 0,24,25
EndSplineSet
Validated: 5
EndChar

StartChar: sterling
Encoding: 101 163 101
Width: 1360
GlyphClass: 2
Flags: W
LayerCount: 2
Fore
SplineSet
294 778 m 0,0,1
 295 778 295 778 343 769 c 1,2,-1
 343 998 l 2,3,4
 343 1043 343 1043 344 1076.5 c 128,-1,5
 345 1110 345 1110 350 1156 c 128,-1,6
 355 1202 355 1202 364 1235.5 c 128,-1,7
 373 1269 373 1269 389.5 1305 c 128,-1,8
 406 1341 406 1341 429 1364 c 128,-1,9
 452 1387 452 1387 486.5 1401.5 c 128,-1,10
 521 1416 521 1416 565 1416 c 0,11,12
 664 1416 664 1416 717 1340 c 128,-1,13
 770 1264 770 1264 770 1166 c 0,14,15
 770 1126 770 1126 740 1096 c 128,-1,16
 710 1066 710 1066 670 1066 c 128,-1,17
 630 1066 630 1066 600 1096 c 128,-1,18
 570 1126 570 1126 570 1166 c 0,19,20
 570 1188 570 1188 567 1200 c 1,21,22
 543 1132 543 1132 543 939 c 2,23,-1
 543 753 l 1,24,25
 685 756 685 756 824 783 c 0,26,27
 836 785 836 785 843 785 c 0,28,29
 883 785 883 785 913 757 c 128,-1,30
 943 729 943 729 943 686 c 0,31,32
 943 650 943 650 920 622 c 128,-1,33
 897 594 897 594 862 587 c 0,34,35
 691 554 691 554 541 553 c 1,36,37
 532 311 532 311 473 176 c 1,38,39
 609 145 609 145 772 145 c 0,40,41
 938 145 938 145 1037 187.5 c 128,-1,42
 1136 230 1136 230 1150 304 c 0,43,44
 1157 339 1157 339 1185 362 c 128,-1,45
 1213 385 1213 385 1249 385 c 0,46,47
 1292 385 1292 385 1320 355 c 128,-1,48
 1348 325 1348 325 1348 285 c 0,49,50
 1348 278 1348 278 1346 266 c 0,51,52
 1331 187 1331 187 1286.5 127.5 c 128,-1,53
 1242 68 1242 68 1185 34 c 128,-1,54
 1128 0 1128 0 1052.5 -21 c 128,-1,55
 977 -42 977 -42 911 -48.5 c 128,-1,56
 845 -55 845 -55 772 -55 c 0,57,58
 532 -55 532 -55 331 8 c 1,59,60
 258 -33 258 -33 169 -33 c 0,61,62
 121 -33 121 -33 83 -16 c 0,63,64
 48 -1 48 -1 21 31 c 128,-1,65
 -6 63 -6 63 -6 110 c 0,66,67
 -6 151 -6 151 12.5 179.5 c 128,-1,68
 31 208 31 208 60.5 221 c 128,-1,69
 90 234 90 234 115 239 c 128,-1,70
 140 244 140 244 163 244 c 0,71,72
 210 244 210 244 277 230 c 1,73,74
 331 320 331 320 341 566 c 1,75,76
 302 572 302 572 268 581 c 0,77,78
 235 589 235 589 214 617 c 128,-1,79
 193 645 193 645 193 679 c 0,80,81
 193 722 193 722 223.5 750 c 128,-1,82
 254 778 254 778 294 778 c 0,0,1
EndSplineSet
Validated: 1
EndChar

StartChar: currency
Encoding: 102 164 102
Width: 1109
GlyphClass: 2
Flags: W
LayerCount: 2
Fore
SplineSet
1059 45 m 0,0,1
 1059 5 1059 5 1029.5 -25 c 128,-1,2
 1000 -55 1000 -55 959 -55 c 0,3,4
 913 -55 913 -55 883 -20 c 2,5,-1
 753 130 l 2,6,7
 729 158 729 158 729 195 c 0,8,9
 729 235 729 235 758.5 265 c 128,-1,10
 788 295 788 295 829 295 c 0,11,12
 875 295 875 295 905 260 c 2,13,-1
 1035 110 l 2,14,15
 1059 82 1059 82 1059 45 c 0,0,1
370 834 m 0,16,17
 370 794 370 794 340.5 764 c 128,-1,18
 311 734 311 734 270 734 c 0,19,20
 226 734 226 734 195 768 c 2,21,-1
 76 904 l 2,22,23
 51 934 51 934 51 970 c 0,24,25
 51 1010 51 1010 80.5 1040 c 128,-1,26
 110 1070 110 1070 151 1070 c 0,27,28
 195 1070 195 1070 226 1036 c 2,29,-1
 345 900 l 2,30,31
 370 870 370 870 370 834 c 0,16,17
959 1070 m 0,32,33
 1000 1070 1000 1070 1029.5 1040 c 128,-1,34
 1059 1010 1059 1010 1059 970 c 0,35,36
 1059 932 1059 932 1035 904 c 2,37,-1
 924 776 l 2,38,39
 894 742 894 742 848 742 c 0,40,41
 807 742 807 742 777.5 772 c 128,-1,42
 748 802 748 802 748 842 c 0,43,44
 748 880 748 880 772 908 c 2,45,-1
 883 1036 l 2,46,47
 913 1070 913 1070 959 1070 c 0,32,33
258 268 m 0,48,49
 299 268 299 268 328.5 238 c 128,-1,50
 358 208 358 208 358 168 c 0,51,52
 358 132 358 132 333 102 c 2,53,-1
 226 -21 l 2,54,55
 195 -55 195 -55 151 -55 c 0,56,57
 110 -55 110 -55 80.5 -25 c 128,-1,58
 51 5 51 5 51 45 c 0,59,60
 51 81 51 81 76 111 c 2,61,-1
 183 234 l 2,62,63
 214 268 214 268 258 268 c 0,48,49
567 871 m 0,64,65
 424 871 424 871 342 765.5 c 128,-1,66
 260 660 260 660 260 486 c 0,67,68
 260 325 260 325 330 235 c 128,-1,69
 400 145 400 145 520 145 c 0,70,71
 655 145 655 145 752 260 c 128,-1,72
 849 375 849 375 849 538 c 0,73,74
 849 686 849 686 773 778.5 c 128,-1,75
 697 871 697 871 567 871 c 0,64,65
567 1071 m 0,76,77
 658 1071 658 1071 737 1041 c 128,-1,78
 816 1011 816 1011 872.5 960 c 128,-1,79
 929 909 929 909 969.5 841 c 128,-1,80
 1010 773 1010 773 1029.5 696 c 128,-1,81
 1049 619 1049 619 1049 538 c 0,82,83
 1049 426 1049 426 1010.5 319.5 c 128,-1,84
 972 213 972 213 905 129.5 c 128,-1,85
 838 46 838 46 737 -4.5 c 128,-1,86
 636 -55 636 -55 520 -55 c 0,87,88
 410 -55 410 -55 321 -10 c 128,-1,89
 232 35 232 35 176 111 c 128,-1,90
 120 187 120 187 90 283.5 c 128,-1,91
 60 380 60 380 60 486 c 0,92,93
 60 575 60 575 79.5 659 c 128,-1,94
 99 743 99 743 140.5 818 c 128,-1,95
 182 893 182 893 241 949 c 128,-1,96
 300 1005 300 1005 384 1038 c 128,-1,97
 468 1071 468 1071 567 1071 c 0,76,77
EndSplineSet
Validated: 5
EndChar

StartChar: brokenbar
Encoding: 104 166 104
Width: 414
GlyphClass: 2
Flags: W
LayerCount: 2
Fore
SplineSet
207 795 m 128,-1,1
 166 795 166 795 136.5 824.5 c 128,-1,2
 107 854 107 854 107 895 c 0,3,4
 107 979 107 979 109 1135 c 128,-1,5
 111 1291 111 1291 111 1361 c 0,6,7
 111 1402 111 1402 140.5 1431.5 c 128,-1,8
 170 1461 170 1461 211 1461 c 128,-1,9
 252 1461 252 1461 281.5 1431.5 c 128,-1,10
 311 1402 311 1402 311 1361 c 0,11,12
 311 1112 311 1112 307 893 c 0,13,14
 306 853 306 853 277 824 c 128,-1,0
 248 795 248 795 207 795 c 128,-1,1
226 597 m 128,-1,16
 267 597 267 597 296.5 567.5 c 128,-1,17
 326 538 326 538 326 497 c 0,18,19
 326 328 326 328 308 -5 c 0,20,21
 306 -45 306 -45 276.5 -72.5 c 128,-1,22
 247 -100 247 -100 208 -100 c 0,23,24
 167 -100 167 -100 137.5 -70 c 128,-1,25
 108 -40 108 -40 108 0 c 2,26,-1
 108 5 l 1,27,28
 120 217 120 217 126 499 c 0,29,30
 127 539 127 539 156 568 c 128,-1,15
 185 597 185 597 226 597 c 128,-1,16
EndSplineSet
Validated: 1
EndChar

StartChar: section
Encoding: 105 167 105
Width: 920
GlyphClass: 2
Flags: W
LayerCount: 2
Fore
SplineSet
443 596 m 1,0,1
 492 596 492 596 531 599.5 c 128,-1,2
 570 603 570 603 594.5 609 c 128,-1,3
 619 615 619 615 635.5 623 c 128,-1,4
 652 631 652 631 658.5 639 c 128,-1,5
 665 647 665 647 665 655 c 0,6,7
 665 666 665 666 643 688 c 128,-1,8
 621 710 621 710 571 735.5 c 128,-1,9
 521 761 521 761 459 772 c 1,10,11
 361 771 361 771 311 747 c 128,-1,12
 261 723 261 723 257 692 c 1,13,14
 259 658 259 658 304 632.5 c 128,-1,15
 349 607 349 607 443 596 c 1,0,1
860 1130 m 0,16,17
 860 1090 860 1090 832 1059.5 c 128,-1,18
 804 1029 804 1029 761 1029 c 0,19,20
 726 1029 726 1029 697.5 1051.5 c 128,-1,21
 669 1074 669 1074 662 1108 c 0,22,23
 651 1156 651 1156 601 1186 c 128,-1,24
 551 1216 551 1216 472 1216 c 0,25,26
 382 1216 382 1216 323 1179.5 c 128,-1,27
 264 1143 264 1143 259 1100 c 1,28,29
 260 1038 260 1038 303.5 1016 c 128,-1,30
 347 994 347 994 485 971 c 0,31,32
 533 963 533 963 580 949.5 c 128,-1,33
 627 936 627 936 680 910 c 128,-1,34
 733 884 733 884 773 850.5 c 128,-1,35
 813 817 813 817 839 766 c 128,-1,36
 865 715 865 715 865 655 c 0,37,38
 865 522 865 522 756 456 c 1,39,40
 866 349 866 349 866 209 c 0,41,42
 866 -55 866 -55 457 -55 c 0,43,44
 250 -55 250 -55 88 75 c 0,45,46
 50 105 50 105 50 153 c 0,47,48
 50 195 50 195 80 224 c 128,-1,49
 110 253 110 253 150 253 c 0,50,51
 184 253 184 253 212 231 c 0,52,53
 320 145 320 145 457 145 c 0,54,55
 666 145 666 145 666 209 c 0,56,57
 666 268 666 268 595 326.5 c 128,-1,58
 524 385 524 385 441 396 c 0,59,60
 436 396 436 396 424 398 c 0,61,62
 377 403 377 403 334.5 412 c 128,-1,63
 292 421 292 421 238.5 442.5 c 128,-1,64
 185 464 185 464 147.5 495 c 128,-1,65
 110 526 110 526 83.5 578 c 128,-1,66
 57 630 57 630 57 696 c 2,67,-1
 57 704 l 1,68,69
 67 818 67 818 149 884 c 1,70,71
 59 966 59 966 59 1104 c 2,72,-1
 59 1112 l 1,73,74
 65 1190 65 1190 106.5 1251 c 128,-1,75
 148 1312 148 1312 209.5 1346.5 c 128,-1,76
 271 1381 271 1381 338 1398.5 c 128,-1,77
 405 1416 405 1416 472 1416 c 0,78,79
 533 1416 533 1416 592.5 1401 c 128,-1,80
 652 1386 652 1386 707 1356 c 128,-1,81
 762 1326 762 1326 802.5 1273 c 128,-1,82
 843 1220 843 1220 858 1150 c 0,83,84
 860 1143 860 1143 860 1130 c 0,16,17
EndSplineSet
Validated: 1
EndChar

StartChar: dieresis
Encoding: 106 168 106
Width: 667
GlyphClass: 2
Flags: W
LayerCount: 2
Fore
SplineSet
612 1214 m 0,0,1
 612 1154 612 1154 569.5 1111.5 c 128,-1,2
 527 1069 527 1069 467 1069 c 0,3,4
 422 1069 422 1069 386 1094 c 128,-1,5
 350 1119 350 1119 334 1159 c 1,6,7
 317 1119 317 1119 280.5 1094 c 128,-1,8
 244 1069 244 1069 200 1069 c 0,9,10
 139 1069 139 1069 97.5 1112 c 128,-1,11
 56 1155 56 1155 56 1214 c 128,-1,12
 56 1273 56 1273 98 1315.5 c 128,-1,13
 140 1358 140 1358 200 1358 c 0,14,15
 244 1358 244 1358 280.5 1333.5 c 128,-1,16
 317 1309 317 1309 334 1269 c 1,17,18
 351 1309 351 1309 387 1333.5 c 128,-1,19
 423 1358 423 1358 467 1358 c 0,20,21
 526 1358 526 1358 569 1316.5 c 128,-1,22
 612 1275 612 1275 612 1214 c 0,0,1
EndSplineSet
Validated: 1
EndChar

StartChar: copyright
Encoding: 107 169 107
Width: 1693
GlyphClass: 2
Flags: W
LayerCount: 2
Fore
SplineSet
1144 1005 m 0,0,1
 1144 964 1144 964 1114 934.5 c 128,-1,2
 1084 905 1084 905 1044 905 c 0,3,4
 1008 905 1008 905 978 930 c 0,5,6
 930 972 930 972 868 972 c 0,7,8
 768 972 768 972 692.5 886 c 128,-1,9
 617 800 617 800 617 687 c 0,10,11
 617 590 617 590 662.5 540 c 128,-1,12
 708 490 708 490 809 490 c 0,13,14
 911 490 911 490 1004 546 c 0,15,16
 1028 561 1028 561 1055 561 c 0,17,18
 1095 561 1095 561 1125.5 533 c 128,-1,19
 1156 505 1156 505 1156 462 c 0,20,21
 1156 405 1156 405 1108 376 c 0,22,23
 968 290 968 290 809 290 c 0,24,25
 626 290 626 290 521.5 405 c 128,-1,26
 417 520 417 520 417 687 c 0,27,28
 417 776 417 776 450 863 c 128,-1,29
 483 950 483 950 540.5 1018.5 c 128,-1,30
 598 1087 598 1087 684 1129.5 c 128,-1,31
 770 1172 770 1172 868 1172 c 0,32,33
 1005 1172 1005 1172 1110 1080 c 0,34,35
 1144 1049 1144 1049 1144 1005 c 0,0,1
260 616 m 0,36,37
 260 501 260 501 334.5 390.5 c 128,-1,38
 409 280 409 280 523.5 212.5 c 128,-1,39
 638 145 638 145 752 145 c 0,40,41
 1074 145 1074 145 1253.5 307.5 c 128,-1,42
 1433 470 1433 470 1433 760 c 0,43,44
 1433 854 1433 854 1390.5 943 c 128,-1,45
 1348 1032 1348 1032 1272.5 1103 c 128,-1,46
 1197 1174 1197 1174 1081.5 1217.5 c 128,-1,47
 966 1261 966 1261 831 1261 c 0,48,49
 725 1261 725 1261 623.5 1216 c 128,-1,50
 522 1171 522 1171 441 1091 c 128,-1,51
 360 1011 360 1011 310 886.5 c 128,-1,52
 260 762 260 762 260 616 c 0,36,37
60 616 m 0,53,54
 60 801 60 801 125 961.5 c 128,-1,55
 190 1122 190 1122 297.5 1230 c 128,-1,56
 405 1338 405 1338 544 1399.5 c 128,-1,57
 683 1461 683 1461 831 1461 c 0,58,59
 1001 1461 1001 1461 1151.5 1404 c 128,-1,60
 1302 1347 1302 1347 1407 1251.5 c 128,-1,61
 1512 1156 1512 1156 1572.5 1028 c 128,-1,62
 1633 900 1633 900 1633 760 c 0,63,64
 1633 574 1633 574 1567.5 420.5 c 128,-1,65
 1502 267 1502 267 1386 163 c 128,-1,66
 1270 59 1270 59 1107.5 2 c 128,-1,67
 945 -55 945 -55 752 -55 c 0,68,69
 627 -55 627 -55 502 -1 c 128,-1,70
 377 53 377 53 279.5 142.5 c 128,-1,71
 182 232 182 232 121 357.5 c 128,-1,72
 60 483 60 483 60 616 c 0,53,54
EndSplineSet
Validated: 1
EndChar

StartChar: ordfeminine
Encoding: 108 170 108
Width: 778
GlyphClass: 2
Flags: W
LayerCount: 2
Fore
SplineSet
506 1247 m 0,0,1
 506 1330 506 1330 472.5 1362 c 128,-1,2
 439 1394 439 1394 370 1394 c 0,3,4
 290 1394 290 1394 234 1327 c 128,-1,5
 178 1260 178 1260 178 1156 c 0,6,7
 178 1064 178 1064 220.5 1012.5 c 128,-1,8
 263 961 263 961 327 961 c 0,9,10
 383 961 383 961 424.5 1002.5 c 128,-1,11
 466 1044 466 1044 486 1107.5 c 128,-1,12
 506 1171 506 1171 506 1247 c 0,0,1
557 1455 m 1,13,14
 570 1488 570 1488 586.5 1506 c 128,-1,15
 603 1524 603 1524 631 1524 c 128,-1,16
 659 1524 659 1524 677 1504 c 128,-1,17
 695 1484 695 1484 695 1458 c 0,18,19
 695 1444 695 1444 689 1431 c 0,20,21
 671 1392 671 1392 650.5 1299 c 128,-1,22
 630 1206 630 1206 630 1134 c 0,23,24
 630 1078 630 1078 641 1036.5 c 128,-1,25
 652 995 652 995 665 978 c 128,-1,26
 678 961 678 961 689 961 c 0,27,28
 715 961 715 961 734.5 941.5 c 128,-1,29
 754 922 754 922 754 896 c 128,-1,30
 754 870 754 870 734.5 850.5 c 128,-1,31
 715 831 715 831 689 831 c 0,32,33
 586 831 586 831 538 930 c 1,34,35
 456 831 456 831 327 831 c 0,36,37
 203 831 203 831 125.5 926.5 c 128,-1,38
 48 1022 48 1022 48 1156 c 0,39,40
 48 1252 48 1252 87 1335.5 c 128,-1,41
 126 1419 126 1419 201 1471.5 c 128,-1,42
 276 1524 276 1524 370 1524 c 0,43,44
 485 1524 485 1524 557 1455 c 1,13,14
EndSplineSet
Validated: 1
EndChar

StartChar: logicalnot
Encoding: 110 172 110
Width: 867
GlyphClass: 2
Flags: W
LayerCount: 2
Fore
SplineSet
-11 661 m 128,-1,1
 -11 702 -11 702 18.5 731.5 c 128,-1,2
 48 761 48 761 89 761 c 2,3,-1
 734 761 l 2,4,5
 777 761 777 761 805.5 728.5 c 128,-1,6
 834 696 834 696 834 661 c 2,7,-1
 834 388 l 2,8,9
 834 348 834 348 804 318 c 128,-1,10
 774 288 774 288 734 288 c 128,-1,11
 694 288 694 288 664 318 c 128,-1,12
 634 348 634 348 634 388 c 2,13,-1
 634 561 l 1,14,-1
 89 561 l 2,15,16
 48 561 48 561 18.5 590.5 c 128,-1,0
 -11 620 -11 620 -11 661 c 128,-1,1
EndSplineSet
Validated: 1
EndChar

StartChar: registered
Encoding: 112 174 112
Width: 1667
GlyphClass: 2
Flags: W
LayerCount: 2
Fore
SplineSet
777 934 m 1,0,1
 785 915 785 915 785 897 c 0,2,3
 785 804 785 804 777 697 c 1,4,5
 789 700 789 700 803 700 c 0,6,7
 884 700 884 700 921 731 c 128,-1,8
 958 762 958 762 958 809 c 128,-1,9
 958 856 958 856 909.5 895.5 c 128,-1,10
 861 935 861 935 791 935 c 0,11,12
 788 935 788 935 784 934.5 c 128,-1,13
 780 934 780 934 777 934 c 1,0,1
260 685 m 0,14,15
 260 412 260 412 408.5 278.5 c 128,-1,16
 557 145 557 145 820 145 c 0,17,18
 977 145 977 145 1113 226 c 128,-1,19
 1249 307 1249 307 1328 441 c 128,-1,20
 1407 575 1407 575 1407 727 c 0,21,22
 1407 966 1407 966 1250 1091 c 128,-1,23
 1093 1216 1093 1216 825 1216 c 0,24,25
 685 1216 685 1216 556.5 1149.5 c 128,-1,26
 428 1083 428 1083 344 959 c 128,-1,27
 260 835 260 835 260 685 c 0,14,15
60 685 m 0,28,29
 60 814 60 814 104 931 c 128,-1,30
 148 1048 148 1048 223.5 1135 c 128,-1,31
 299 1222 299 1222 397 1286 c 128,-1,32
 495 1350 495 1350 605 1383 c 128,-1,33
 715 1416 715 1416 825 1416 c 0,34,35
 982 1416 982 1416 1120.5 1373 c 128,-1,36
 1259 1330 1259 1330 1369 1247 c 128,-1,37
 1479 1164 1479 1164 1543 1030 c 128,-1,38
 1607 896 1607 896 1607 727 c 0,39,40
 1607 572 1607 572 1544.5 428.5 c 128,-1,41
 1482 285 1482 285 1377 178.5 c 128,-1,42
 1272 72 1272 72 1125.5 8.5 c 128,-1,43
 979 -55 979 -55 820 -55 c 0,44,45
 693 -55 693 -55 580 -26 c 128,-1,46
 467 3 467 3 371.5 63.5 c 128,-1,47
 276 124 276 124 207 211 c 128,-1,48
 138 298 138 298 99 419 c 128,-1,49
 60 540 60 540 60 685 c 0,28,29
563 822 m 0,50,51
 521 822 521 822 492 852 c 128,-1,52
 463 882 463 882 463 922 c 0,53,54
 463 954 463 954 483 982 c 0,55,56
 537 1055 537 1055 619 1095 c 128,-1,57
 701 1135 701 1135 791 1135 c 0,58,59
 856 1135 856 1135 920 1113 c 128,-1,60
 984 1091 984 1091 1037.5 1051 c 128,-1,61
 1091 1011 1091 1011 1124.5 947.5 c 128,-1,62
 1158 884 1158 884 1158 809 c 0,63,64
 1158 726 1158 726 1116 657 c 128,-1,65
 1074 588 1074 588 1002 548 c 1,66,67
 1068 497 1068 497 1153 450 c 0,68,69
 1204 422 1204 422 1204 362 c 0,70,71
 1204 319 1204 319 1173 291 c 128,-1,72
 1142 263 1142 263 1103 263 c 0,73,74
 1080 263 1080 263 1056 276 c 0,75,76
 871 379 871 379 760 497 c 1,77,78
 757 468 757 468 751.5 416.5 c 128,-1,79
 746 365 746 365 744 346 c 0,80,81
 740 308 740 308 711 282 c 128,-1,82
 682 256 682 256 644 256 c 0,83,84
 602 256 602 256 573 286 c 128,-1,85
 544 316 544 316 544 356 c 0,86,87
 544 358 544 358 544.5 361 c 128,-1,88
 545 364 545 364 545 366 c 0,89,90
 570 603 570 603 581 824 c 1,91,92
 569 822 569 822 563 822 c 0,50,51
EndSplineSet
Validated: 1
EndChar

StartChar: degree
Encoding: 114 176 114
Width: 648
GlyphClass: 2
Flags: W
LayerCount: 2
Fore
SplineSet
494 1398 m 0,0,1
 494 1466 494 1466 442 1520 c 128,-1,2
 390 1574 390 1574 323 1574 c 0,3,4
 264 1574 264 1574 209 1517 c 128,-1,5
 154 1460 154 1460 154 1391 c 0,6,7
 154 1330 154 1330 202 1282 c 128,-1,8
 250 1234 250 1234 309 1234 c 0,9,10
 384 1234 384 1234 439 1284.5 c 128,-1,11
 494 1335 494 1335 494 1398 c 0,0,1
624 1398 m 0,12,13
 624 1276 624 1276 530 1190 c 128,-1,14
 436 1104 436 1104 309 1104 c 0,15,16
 194 1104 194 1104 109 1189.5 c 128,-1,17
 24 1275 24 1275 24 1391 c 0,18,19
 24 1514 24 1514 114 1609 c 128,-1,20
 204 1704 204 1704 323 1704 c 0,21,22
 447 1704 447 1704 535.5 1611 c 128,-1,23
 624 1518 624 1518 624 1398 c 0,12,13
EndSplineSet
Validated: 1
EndChar

StartChar: uni00B2
Encoding: 116 178 116
Width: 625
GlyphClass: 2
Flags: W
LayerCount: 2
Fore
SplineSet
134 1233 m 128,-1,1
 108 1233 108 1233 88.5 1252.5 c 128,-1,2
 69 1272 69 1272 69 1298 c 0,3,4
 69 1395 69 1395 132 1468.5 c 128,-1,5
 195 1542 195 1542 297 1542 c 0,6,7
 389 1542 389 1542 448 1479 c 128,-1,8
 507 1416 507 1416 507 1327 c 0,9,10
 507 1276 507 1276 494 1232.5 c 128,-1,11
 481 1189 481 1189 452 1148.5 c 128,-1,12
 423 1108 423 1108 401.5 1084.5 c 128,-1,13
 380 1061 380 1061 337 1020 c 2,14,-1
 311 995 l 1,15,-1
 488 1005 l 1,16,-1
 492 1005 l 2,17,18
 519 1005 519 1005 538 986 c 128,-1,19
 557 967 557 967 557 940 c 0,20,21
 557 914 557 914 539 895 c 128,-1,22
 521 876 521 876 496 875 c 2,23,-1
 145 856 l 1,24,-1
 141 856 l 2,25,26
 114 856 114 856 95 875.5 c 128,-1,27
 76 895 76 895 76 921 c 0,28,29
 76 948 76 948 96 968 c 2,30,-1
 247 1114 l 2,31,32
 323 1187 323 1187 350 1227.5 c 128,-1,33
 377 1268 377 1268 377 1327 c 0,34,35
 377 1367 377 1367 355.5 1389.5 c 128,-1,36
 334 1412 334 1412 297 1412 c 0,37,38
 255 1412 255 1412 227 1380 c 128,-1,39
 199 1348 199 1348 199 1298 c 0,40,41
 199 1272 199 1272 179.5 1252.5 c 128,-1,0
 160 1233 160 1233 134 1233 c 128,-1,1
EndSplineSet
Validated: 1
EndChar

StartChar: uni00B3
Encoding: 117 179 117
Width: 573
GlyphClass: 2
Flags: W
LayerCount: 2
Fore
SplineSet
176 1283 m 0,0,1
 148 1283 148 1283 129.5 1302.5 c 128,-1,2
 111 1322 111 1322 111 1348 c 0,3,4
 111 1352 111 1352 113 1362 c 0,5,6
 127 1429 127 1429 180.5 1476.5 c 128,-1,7
 234 1524 234 1524 310 1524 c 0,8,9
 391 1524 391 1524 445.5 1464.5 c 128,-1,10
 500 1405 500 1405 500 1326 c 0,11,12
 500 1260 500 1260 451 1209 c 1,13,14
 513 1160 513 1160 516 1077 c 0,15,16
 516 975 516 975 444.5 915 c 128,-1,17
 373 855 373 855 277 855 c 0,18,19
 177 855 177 855 106 913 c 0,20,21
 82 932 82 932 82 964 c 0,22,23
 82 991 82 991 101.5 1010 c 128,-1,24
 121 1029 121 1029 147 1029 c 0,25,26
 171 1029 171 1029 188 1015 c 0,27,28
 226 985 226 985 277 985 c 0,29,30
 327 985 327 985 356 1010 c 128,-1,31
 385 1035 385 1035 386 1075 c 0,32,33
 383 1124 383 1124 310 1124 c 0,34,35
 296 1124 296 1124 267 1118 c 128,-1,36
 238 1112 238 1112 225 1112 c 0,37,38
 199 1112 199 1112 179.5 1130.5 c 128,-1,39
 160 1149 160 1149 160 1177 c 0,40,41
 160 1231 160 1231 234 1246 c 0,42,43
 277 1256 277 1256 309 1269 c 0,44,45
 370 1295 370 1295 370 1326 c 0,46,47
 370 1354 370 1354 351.5 1374 c 128,-1,48
 333 1394 333 1394 310 1394 c 0,49,50
 284 1394 284 1394 264.5 1377 c 128,-1,51
 245 1360 245 1360 239 1334 c 0,52,53
 234 1312 234 1312 216.5 1297.5 c 128,-1,54
 199 1283 199 1283 176 1283 c 0,0,1
EndSplineSet
Validated: 1
EndChar

StartChar: acute
Encoding: 118 180 118
Width: 518
GlyphClass: 2
Flags: W
LayerCount: 2
Fore
SplineSet
357 1581 m 0,0,1
 398 1581 398 1581 427.5 1551 c 128,-1,2
 457 1521 457 1521 457 1481 c 0,3,4
 457 1447 457 1447 435 1419 c 0,5,6
 367 1334 367 1334 324.5 1270.5 c 128,-1,7
 282 1207 282 1207 246 1128 c 0,8,9
 233 1101 233 1101 208 1085 c 128,-1,10
 183 1069 183 1069 154 1069 c 0,11,12
 111 1069 111 1069 83 1099.5 c 128,-1,13
 55 1130 55 1130 55 1170 c 0,14,15
 55 1190 55 1190 64 1210 c 0,16,17
 106 1304 106 1304 156.5 1378.5 c 128,-1,18
 207 1453 207 1453 279 1543 c 0,19,20
 311 1581 311 1581 357 1581 c 0,0,1
EndSplineSet
Validated: 1
EndChar

StartChar: mu
Encoding: 119 181 119
Width: 1019
GlyphClass: 2
Flags: W
LayerCount: 2
Fore
SplineSet
945 1015 m 0,0,1
 945 959 945 959 941 809.5 c 128,-1,2
 937 660 937 660 937 587 c 0,3,4
 937 278 937 278 959 58 c 1,5,-1
 959 48 l 2,6,7
 959 8 959 8 930 -22 c 128,-1,8
 901 -52 901 -52 859 -52 c 0,9,10
 821 -52 821 -52 792.5 -26 c 128,-1,11
 764 0 764 0 760 38 c 0,12,13
 760 44 760 44 758.5 56 c 128,-1,14
 757 68 757 68 756 75 c 1,15,16
 643 -55 643 -55 471 -55 c 0,17,18
 358 -55 358 -55 273 -10 c 1,19,20
 285 -202 285 -202 308 -437 c 1,21,-1
 308 -447 l 2,22,23
 308 -487 308 -487 279 -517 c 128,-1,24
 250 -547 250 -547 208 -547 c 0,25,26
 170 -547 170 -547 141 -521 c 128,-1,27
 112 -495 112 -495 108 -457 c 0,28,29
 60 27 60 27 60 367 c 0,30,31
 60 441 60 441 65 534 c 1,32,-1
 65 535 l 2,33,34
 65 689 65 689 108 902 c 0,35,36
 109 910 109 910 113 933.5 c 128,-1,37
 117 957 117 957 119.5 967 c 128,-1,38
 122 977 122 977 126.5 998 c 128,-1,39
 131 1019 131 1019 135.5 1029.5 c 128,-1,40
 140 1040 140 1040 147 1056.5 c 128,-1,41
 154 1073 154 1073 162.5 1081 c 128,-1,42
 171 1089 171 1089 181.5 1098 c 128,-1,43
 192 1107 192 1107 206 1111 c 128,-1,44
 220 1115 220 1115 237 1115 c 0,45,46
 281 1115 281 1115 308.5 1083.5 c 128,-1,47
 336 1052 336 1052 336 1013 c 0,48,49
 336 1000 336 1000 333 990 c 0,50,51
 281 784 281 784 265 528 c 1,52,53
 265 368 265 368 287 286 c 0,54,55
 307 209 307 209 344.5 177 c 128,-1,56
 382 145 382 145 471 145 c 0,57,58
 554 145 554 145 608.5 209 c 128,-1,59
 663 273 663 273 697 410 c 0,60,61
 724 518 724 518 737 700 c 1,62,63
 737 890 737 890 745 1021 c 0,64,65
 747 1055 747 1055 775.5 1085 c 128,-1,66
 804 1115 804 1115 845 1115 c 128,-1,67
 886 1115 886 1115 915.5 1085.5 c 128,-1,68
 945 1056 945 1056 945 1015 c 0,0,1
EndSplineSet
Validated: 1
EndChar

StartChar: paragraph
Encoding: 120 182 120
Width: 1319
GlyphClass: 2
Flags: W
LayerCount: 2
Fore
SplineSet
690 1190 m 128,-1,1
 730 1190 730 1190 760 1160 c 128,-1,2
 790 1130 790 1130 790 1090 c 2,3,-1
 790 409 l 1,4,5
 822 412 822 412 853 418 c 1,6,-1
 853 1030 l 2,7,8
 853 1070 853 1070 882.5 1100 c 128,-1,9
 912 1130 912 1130 953 1130 c 128,-1,10
 994 1130 994 1130 1023.5 1100 c 128,-1,11
 1053 1070 1053 1070 1053 1030 c 2,12,-1
 1053 418 l 1,13,14
 1080 389 1080 389 1080 351 c 0,15,16
 1080 312 1080 312 1053 282 c 1,17,-1
 1053 -442 l 2,18,19
 1053 -482 1053 -482 1023.5 -512 c 128,-1,20
 994 -542 994 -542 953 -542 c 128,-1,21
 912 -542 912 -542 882.5 -512 c 128,-1,22
 853 -482 853 -482 853 -442 c 2,23,-1
 853 215 l 1,24,25
 822 210 822 210 790 209 c 1,26,-1
 790 -382 l 2,27,28
 790 -422 790 -422 760 -452 c 128,-1,29
 730 -482 730 -482 690 -482 c 128,-1,30
 650 -482 650 -482 620 -452 c 128,-1,31
 590 -422 590 -422 590 -382 c 2,32,-1
 590 225 l 1,33,34
 484 248 484 248 390 298.5 c 128,-1,35
 296 349 296 349 221.5 422 c 128,-1,36
 147 495 147 495 103.5 596 c 128,-1,37
 60 697 60 697 60 811 c 0,38,39
 60 943 60 943 114.5 1058 c 128,-1,40
 169 1173 169 1173 259.5 1250.5 c 128,-1,41
 350 1328 350 1328 468.5 1372 c 128,-1,42
 587 1416 587 1416 715 1416 c 0,43,44
 876 1416 876 1416 1007.5 1353.5 c 128,-1,45
 1139 1291 1139 1291 1234 1183 c 0,46,47
 1259 1153 1259 1153 1259 1117 c 0,48,49
 1259 1077 1259 1077 1229.5 1047 c 128,-1,50
 1200 1017 1200 1017 1159 1017 c 0,51,52
 1115 1017 1115 1017 1084 1051 c 0,53,54
 941 1216 941 1216 715 1216 c 0,55,56
 523 1216 523 1216 391.5 1100.5 c 128,-1,57
 260 985 260 985 260 811 c 0,58,59
 260 680 260 680 353 576.5 c 128,-1,60
 446 473 446 473 590 431 c 1,61,-1
 590 1090 l 2,62,63
 590 1130 590 1130 620 1160 c 128,-1,0
 650 1190 650 1190 690 1190 c 128,-1,1
EndSplineSet
Validated: 1
EndChar

StartChar: cedilla
Encoding: 122 184 122
Width: 729
GlyphClass: 2
Flags: W
LayerCount: 2
Fore
SplineSet
227 0 m 0,0,1
 227 41 227 41 257 70.5 c 128,-1,2
 287 100 287 100 327 100 c 0,3,4
 364 100 364 100 390 78 c 0,5,6
 433 43 433 43 474 0 c 128,-1,7
 515 -43 515 -43 559 -101 c 128,-1,8
 603 -159 603 -159 630 -227.5 c 128,-1,9
 657 -296 657 -296 657 -361 c 0,10,11
 657 -476 657 -476 563 -538.5 c 128,-1,12
 469 -601 469 -601 319 -601 c 0,13,14
 219 -601 219 -601 133 -577 c 0,15,16
 100 -568 100 -568 80 -540.5 c 128,-1,17
 60 -513 60 -513 60 -480 c 0,18,19
 60 -437 60 -437 90.5 -409 c 128,-1,20
 121 -381 121 -381 161 -381 c 0,21,22
 169 -381 169 -381 187 -385 c 0,23,24
 243 -401 243 -401 319 -401 c 0,25,26
 458 -401 458 -401 458 -366 c 1,27,-1
 457 -361 l 1,28,29
 457 -317 457 -317 391.5 -222 c 128,-1,30
 326 -127 326 -127 264 -78 c 0,31,32
 227 -47 227 -47 227 0 c 0,0,1
EndSplineSet
Validated: 1
EndChar

StartChar: uni00B9
Encoding: 123 185 123
Width: 438
GlyphClass: 2
Flags: W
LayerCount: 2
Fore
SplineSet
300 768 m 0,0,1
 272 768 272 768 252.5 789 c 128,-1,2
 233 810 233 810 235 837 c 2,3,-1
 266 1323 l 1,4,5
 213 1291 213 1291 158 1269 c 0,6,7
 145 1264 145 1264 135 1264 c 0,8,9
 110 1264 110 1264 89.5 1282 c 128,-1,10
 69 1300 69 1300 69 1328 c 0,11,12
 69 1348 69 1348 80 1365 c 128,-1,13
 91 1382 91 1382 110 1389 c 0,14,15
 212 1430 212 1430 297 1507 c 0,16,17
 316 1524 316 1524 340 1524 c 0,18,19
 368 1524 368 1524 387.5 1503.5 c 128,-1,20
 407 1483 407 1483 405 1455 c 2,21,-1
 365 829 l 2,22,23
 364 804 364 804 345 786 c 128,-1,24
 326 768 326 768 300 768 c 0,0,1
EndSplineSet
Validated: 1
EndChar

StartChar: onequarter
Encoding: 126 188 126
Width: 1893
GlyphClass: 2
Flags: W
LayerCount: 2
Fore
SplineSet
459 -55 m 0,0,1
 418 -55 418 -55 388.5 -25.5 c 128,-1,2
 359 4 359 4 359 45 c 128,-1,3
 359 86 359 86 386 114 c 0,4,5
 655 400 655 400 947.5 788 c 128,-1,6
 1240 1176 1240 1176 1399 1463 c 0,7,8
 1427 1514 1427 1514 1487 1514 c 0,9,10
 1530 1514 1530 1514 1558 1483 c 128,-1,11
 1586 1452 1586 1452 1586 1413 c 0,12,13
 1586 1388 1586 1388 1574 1365 c 0,14,15
 1405 1060 1405 1060 1108.5 666 c 128,-1,16
 812 272 812 272 532 -24 c 0,17,18
 504 -55 504 -55 459 -55 c 0,0,1
1541 474 m 0,19,20
 1583 474 1583 474 1612 444 c 128,-1,21
 1641 414 1641 414 1641 374 c 0,22,23
 1641 372 1641 372 1640.5 368.5 c 128,-1,24
 1640 365 1640 365 1640 363 c 2,25,-1
 1599 6 l 1,26,27
 1670 20 1670 20 1737 36 c 0,28,29
 1749 39 1749 39 1759 39 c 0,30,31
 1799 39 1799 39 1829.5 11 c 128,-1,32
 1860 -17 1860 -17 1860 -60 c 0,33,34
 1860 -94 1860 -94 1838.5 -122 c 128,-1,35
 1817 -150 1817 -150 1783 -158 c 0,36,37
 1668 -185 1668 -185 1576 -201 c 1,38,-1
 1556 -376 l 2,39,40
 1551 -414 1551 -414 1522.5 -439.5 c 128,-1,41
 1494 -465 1494 -465 1457 -465 c 0,42,43
 1415 -465 1415 -465 1386 -435 c 128,-1,44
 1357 -405 1357 -405 1357 -365 c 0,45,46
 1357 -363 1357 -363 1357.5 -359.5 c 128,-1,47
 1358 -356 1358 -356 1358 -354 c 2,48,-1
 1372 -228 l 1,49,50
 1260 -238 1260 -238 1169 -238 c 0,51,52
 1103 -238 1103 -238 1055 -231 c 0,53,54
 965 -218 965 -218 926 -159 c 0,55,56
 902 -124 902 -124 902 -78 c 0,57,58
 902 -23 902 -23 938 29 c 0,59,60
 1166 360 1166 360 1345 802 c 0,61,62
 1357 831 1357 831 1382.5 847.5 c 128,-1,63
 1408 864 1408 864 1439 864 c 0,64,65
 1482 864 1482 864 1510 833.5 c 128,-1,66
 1538 803 1538 803 1538 763 c 0,67,68
 1538 743 1538 743 1531 726 c 0,69,70
 1358 298 1358 298 1135 -37 c 1,71,72
 1141 -37 1141 -37 1152 -37.5 c 128,-1,73
 1163 -38 1163 -38 1169 -38 c 0,74,75
 1272 -38 1272 -38 1395 -25 c 1,76,-1
 1442 385 l 2,77,78
 1447 423 1447 423 1475.5 448.5 c 128,-1,79
 1504 474 1504 474 1541 474 c 0,19,20
360 420 m 0,80,81
 318 420 318 420 289 450 c 128,-1,82
 260 480 260 480 260 520 c 2,83,-1
 260 527 l 1,84,-1
 317 1391 l 1,85,86
 256 1345 256 1345 184 1303 c 0,87,88
 161 1289 161 1289 135 1289 c 0,89,90
 95 1289 95 1289 64.5 1317 c 128,-1,91
 34 1345 34 1345 34 1388 c 0,92,93
 34 1447 34 1447 84 1475 c 0,94,95
 203 1544 203 1544 327 1660 c 0,96,97
 356 1687 356 1687 395 1687 c 2,98,-1
 430 1687 l 2,99,100
 470 1687 470 1687 500 1657.5 c 128,-1,101
 530 1628 530 1628 530 1587 c 2,102,-1
 530 1580 l 1,103,-1
 460 513 l 2,104,105
 458 474 458 474 428.5 447 c 128,-1,106
 399 420 399 420 360 420 c 0,80,81
EndSplineSet
Validated: 1
EndChar

StartChar: onehalf
Encoding: 127 189 127
Width: 1915
GlyphClass: 2
Flags: W
LayerCount: 2
Fore
SplineSet
360 420 m 0,0,1
 318 420 318 420 289 450 c 128,-1,2
 260 480 260 480 260 520 c 2,3,-1
 260 527 l 1,4,-1
 317 1391 l 1,5,6
 256 1345 256 1345 184 1303 c 0,7,8
 161 1289 161 1289 135 1289 c 0,9,10
 95 1289 95 1289 64.5 1317 c 128,-1,11
 34 1345 34 1345 34 1388 c 0,12,13
 34 1447 34 1447 84 1475 c 0,14,15
 203 1544 203 1544 327 1660 c 0,16,17
 356 1687 356 1687 395 1687 c 2,18,-1
 430 1687 l 2,19,20
 470 1687 470 1687 500 1657.5 c 128,-1,21
 530 1628 530 1628 530 1587 c 2,22,-1
 530 1580 l 1,23,-1
 460 513 l 2,24,25
 458 474 458 474 428.5 447 c 128,-1,26
 399 420 399 420 360 420 c 0,0,1
459 -55 m 0,27,28
 418 -55 418 -55 388.5 -25.5 c 128,-1,29
 359 4 359 4 359 45 c 128,-1,30
 359 86 359 86 386 114 c 0,31,32
 656 400 656 400 948 787.5 c 128,-1,33
 1240 1175 1240 1175 1399 1462 c 0,34,35
 1412 1486 1412 1486 1436 1500 c 128,-1,36
 1460 1514 1460 1514 1487 1514 c 0,37,38
 1530 1514 1530 1514 1558 1483 c 128,-1,39
 1586 1452 1586 1452 1586 1413 c 0,40,41
 1586 1388 1586 1388 1574 1366 c 0,42,43
 1404 1060 1404 1060 1108 666 c 128,-1,44
 812 272 812 272 532 -24 c 0,45,46
 504 -55 504 -55 459 -55 c 0,27,28
1194 -435 m 0,47,48
 1153 -435 1153 -435 1123 -405.5 c 128,-1,49
 1093 -376 1093 -376 1093 -335 c 0,50,51
 1093 -292 1093 -292 1126 -261 c 2,52,-1
 1413 0 l 2,53,54
 1415 1 1415 1 1420 6 c 0,55,56
 1570 118 1570 118 1637 211.5 c 128,-1,57
 1704 305 1704 305 1704 424 c 0,58,59
 1704 510 1704 510 1661 557.5 c 128,-1,60
 1618 605 1618 605 1541 605 c 0,61,62
 1452 605 1452 605 1394.5 538.5 c 128,-1,63
 1337 472 1337 472 1337 370 c 0,64,65
 1337 330 1337 330 1307.5 300 c 128,-1,66
 1278 270 1278 270 1237 270 c 128,-1,67
 1196 270 1196 270 1166.5 300 c 128,-1,68
 1137 330 1137 330 1137 370 c 0,69,70
 1137 453 1137 453 1165.5 531 c 128,-1,71
 1194 609 1194 609 1245 670 c 128,-1,72
 1296 731 1296 731 1373 768 c 128,-1,73
 1450 805 1450 805 1541 805 c 0,74,75
 1704 805 1704 805 1804 693 c 128,-1,76
 1904 581 1904 581 1904 424 c 0,77,78
 1904 330 1904 330 1876.5 246 c 128,-1,79
 1849 162 1849 162 1795 91 c 128,-1,80
 1741 20 1741 20 1683 -35 c 128,-1,81
 1625 -90 1625 -90 1544 -151 c 1,82,-1
 1469 -219 l 1,83,84
 1497 -218 1497 -218 1548 -218 c 0,85,86
 1669 -218 1669 -218 1849 -227 c 0,87,88
 1889 -229 1889 -229 1916.5 -258.5 c 128,-1,89
 1944 -288 1944 -288 1944 -327 c 0,90,91
 1944 -368 1944 -368 1914 -397.5 c 128,-1,92
 1884 -427 1884 -427 1844 -427 c 2,93,-1
 1839 -427 l 1,94,95
 1663 -418 1663 -418 1548 -418 c 0,96,97
 1355 -418 1355 -418 1203 -434 c 0,98,99
 1202 -434 1202 -434 1199 -434.5 c 128,-1,100
 1196 -435 1196 -435 1194 -435 c 0,47,48
EndSplineSet
Validated: 1
EndChar

StartChar: threequarters
Encoding: 128 190 128
Width: 2014
GlyphClass: 2
Flags: W
LayerCount: 2
Fore
SplineSet
1662 474 m 0,0,1
 1704 474 1704 474 1733 444 c 128,-1,2
 1762 414 1762 414 1762 374 c 0,3,4
 1762 372 1762 372 1761.5 368.5 c 128,-1,5
 1761 365 1761 365 1761 363 c 2,6,-1
 1720 6 l 1,7,8
 1790 20 1790 20 1858 36 c 0,9,10
 1870 39 1870 39 1880 39 c 0,11,12
 1920 39 1920 39 1950.5 11 c 128,-1,13
 1981 -17 1981 -17 1981 -60 c 0,14,15
 1981 -94 1981 -94 1959.5 -122 c 128,-1,16
 1938 -150 1938 -150 1904 -158 c 0,17,18
 1792 -185 1792 -185 1696 -201 c 1,19,-1
 1676 -376 l 2,20,21
 1671 -414 1671 -414 1642.5 -439.5 c 128,-1,22
 1614 -465 1614 -465 1577 -465 c 0,23,24
 1535 -465 1535 -465 1506 -435 c 128,-1,25
 1477 -405 1477 -405 1477 -365 c 0,26,27
 1477 -363 1477 -363 1477.5 -359.5 c 128,-1,28
 1478 -356 1478 -356 1478 -354 c 2,29,-1
 1492 -228 l 1,30,31
 1379 -238 1379 -238 1289 -238 c 0,32,33
 1224 -238 1224 -238 1176 -231 c 0,34,35
 1085 -218 1085 -218 1046 -159 c 0,36,37
 1022 -124 1022 -124 1022 -78 c 0,38,39
 1022 -26 1022 -26 1057 26 c 0,40,41
 1182 208 1182 208 1277.5 392 c 128,-1,42
 1373 576 1373 576 1465 802 c 0,43,44
 1477 831 1477 831 1502.5 847.5 c 128,-1,45
 1528 864 1528 864 1559 864 c 0,46,47
 1602 864 1602 864 1630 833.5 c 128,-1,48
 1658 803 1658 803 1658 763 c 0,49,50
 1658 743 1658 743 1651 726 c 0,51,52
 1479 300 1479 300 1255 -37 c 1,53,54
 1261 -37 1261 -37 1272 -37.5 c 128,-1,55
 1283 -38 1283 -38 1289 -38 c 0,56,57
 1392 -38 1392 -38 1516 -25 c 1,58,-1
 1563 385 l 2,59,60
 1568 423 1568 423 1596.5 448.5 c 128,-1,61
 1625 474 1625 474 1662 474 c 0,0,1
579 -55 m 0,62,63
 538 -55 538 -55 508.5 -25.5 c 128,-1,64
 479 4 479 4 479 45 c 128,-1,65
 479 86 479 86 506 114 c 0,66,67
 776 400 776 400 1068 787.5 c 128,-1,68
 1360 1175 1360 1175 1519 1462 c 0,69,70
 1532 1486 1532 1486 1556 1500 c 128,-1,71
 1580 1514 1580 1514 1607 1514 c 0,72,73
 1650 1514 1650 1514 1678 1483 c 128,-1,74
 1706 1452 1706 1452 1706 1413 c 0,75,76
 1706 1388 1706 1388 1694 1366 c 0,77,78
 1524 1060 1524 1060 1228 666 c 128,-1,79
 932 272 932 272 652 -24 c 0,80,81
 624 -55 624 -55 579 -55 c 0,62,63
187 1251 m 0,82,83
 144 1251 144 1251 116 1281.5 c 128,-1,84
 88 1312 88 1312 88 1352 c 0,85,86
 88 1366 88 1366 90 1373 c 0,87,88
 120 1503 120 1503 225.5 1581 c 128,-1,89
 331 1659 331 1659 453 1659 c 0,90,91
 583 1659 583 1659 676 1564 c 128,-1,92
 769 1469 769 1469 769 1307 c 0,93,94
 769 1171 769 1171 666 1075 c 1,95,96
 793 987 793 987 799 829 c 0,97,98
 799 738 799 738 763.5 662.5 c 128,-1,99
 728 587 728 587 668 539 c 128,-1,100
 608 491 608 491 533 464.5 c 128,-1,101
 458 438 458 438 376 438 c 0,102,103
 200 438 200 438 71 545 c 0,104,105
 34 576 34 576 34 622 c 0,106,107
 34 663 34 663 64 692.5 c 128,-1,108
 94 722 94 722 134 722 c 0,109,110
 170 722 170 722 198 699 c 0,111,112
 273 638 273 638 376 638 c 0,113,114
 478 638 478 638 538 689 c 128,-1,115
 598 740 598 740 599 825 c 0,116,117
 596 878 596 878 554 909 c 128,-1,118
 512 940 512 940 438 940 c 0,119,120
 404 940 404 940 303 916 c 0,121,122
 296 914 296 914 282 914 c 0,123,124
 242 914 242 914 211.5 942 c 128,-1,125
 181 970 181 970 181 1013 c 0,126,127
 181 1047 181 1047 203 1075 c 128,-1,128
 225 1103 225 1103 256 1111 c 0,129,130
 394 1147 394 1147 441 1167 c 0,131,132
 509 1197 509 1197 539 1230 c 128,-1,133
 569 1263 569 1263 569 1307 c 0,134,135
 569 1394 569 1394 537 1426.5 c 128,-1,136
 505 1459 505 1459 453 1459 c 0,137,138
 398 1459 398 1459 348 1422 c 128,-1,139
 298 1385 298 1385 286 1329 c 0,140,141
 279 1295 279 1295 250.5 1273 c 128,-1,142
 222 1251 222 1251 187 1251 c 0,82,83
EndSplineSet
Validated: 1
EndChar

StartChar: AE
Encoding: 136 198 136
Width: 1909
GlyphClass: 2
Flags: W
LayerCount: 2
Fore
SplineSet
1781 1474 m 0,0,1
 1821 1474 1821 1474 1851.5 1446 c 128,-1,2
 1882 1418 1882 1418 1882 1375 c 0,3,4
 1882 1341 1882 1341 1860.5 1313 c 128,-1,5
 1839 1285 1839 1285 1805 1277 c 0,6,7
 1549 1217 1549 1217 1258 1217 c 0,8,9
 1252 1217 1252 1217 1219 1217.5 c 128,-1,10
 1186 1218 1186 1218 1160 1218 c 1,11,12
 1160 1202 1160 1202 1160.5 1169 c 128,-1,13
 1161 1136 1161 1136 1161 1119 c 0,14,15
 1161 918 1161 918 1159 811 c 1,16,17
 1480 811 1480 811 1705 793 c 0,18,19
 1744 790 1744 790 1770.5 761 c 128,-1,20
 1797 732 1797 732 1797 693 c 0,21,22
 1797 651 1797 651 1767 622 c 128,-1,23
 1737 593 1737 593 1697 593 c 2,24,-1
 1689 593 l 1,25,26
 1474 611 1474 611 1153 611 c 1,27,28
 1143 355 1143 355 1115 199 c 0,29,30
 1112 186 1112 186 1112 173 c 0,31,32
 1112 163 1112 163 1119.5 153 c 128,-1,33
 1127 143 1127 143 1144.5 131.5 c 128,-1,34
 1162 120 1162 120 1198.5 111.5 c 128,-1,35
 1235 103 1235 103 1286 100 c 0,36,37
 1491 87 1491 87 1636 87 c 2,38,-1
 1698 87 l 2,39,40
 1709 87 1709 87 1729.5 87.5 c 128,-1,41
 1750 88 1750 88 1760 88 c 0,42,43
 1800 88 1800 88 1830 58.5 c 128,-1,44
 1860 29 1860 29 1860 -12 c 0,45,46
 1860 -51 1860 -51 1832.5 -80.5 c 128,-1,47
 1805 -110 1805 -110 1765 -112 c 0,48,49
 1742 -113 1742 -113 1698 -113 c 2,50,-1
 1636 -113 l 2,51,52
 1482 -113 1482 -113 1274 -100 c 0,53,54
 1227 -97 1227 -97 1183 -89 c 128,-1,55
 1139 -81 1139 -81 1087.5 -61.5 c 128,-1,56
 1036 -42 1036 -42 999 -13.5 c 128,-1,57
 962 15 962 15 937 63.5 c 128,-1,58
 912 112 912 112 912 173 c 0,59,60
 912 200 912 200 919 235 c 0,61,62
 943 376 943 376 953 609 c 1,63,64
 760 606 760 606 600 598 c 1,65,66
 424 188 424 188 210 -65 c 0,67,68
 180 -100 180 -100 134 -100 c 0,69,70
 93 -100 93 -100 63.5 -70 c 128,-1,71
 34 -40 34 -40 34 0 c 0,72,73
 34 38 34 38 58 65 c 0,74,75
 240 281 240 281 406 659 c 1,76,77
 401 672 401 672 401 692 c 0,78,79
 401 721 401 721 416.5 745.5 c 128,-1,80
 432 770 432 770 458 782 c 1,81,82
 580 1087 580 1087 627 1343 c 0,83,84
 633 1375 633 1375 661 1400 c 128,-1,85
 689 1425 689 1425 725 1425 c 0,86,87
 760 1425 760 1425 991 1421 c 128,-1,88
 1222 1417 1222 1417 1258 1417 c 0,89,90
 1530 1417 1530 1417 1759 1471 c 0,91,92
 1770 1474 1770 1474 1781 1474 c 0,0,1
681 803 m 1,93,94
 852 809 852 809 959 810 c 1,95,96
 961 917 961 917 961 1119 c 0,97,98
 961 1137 961 1137 960.5 1170.5 c 128,-1,99
 960 1204 960 1204 960 1220 c 1,100,101
 857 1222 857 1222 806 1223 c 1,102,103
 763 1026 763 1026 681 803 c 1,93,94
EndSplineSet
Validated: 1
EndChar

StartChar: Eth
Encoding: 146 208 146
Width: 1341
GlyphClass: 2
Flags: W
LayerCount: 2
Fore
SplineSet
89 629 m 2,0,1
 49 629 49 629 19 658 c 128,-1,2
 -11 687 -11 687 -11 729 c 0,3,4
 -11 768 -11 768 15.5 797 c 128,-1,5
 42 826 42 826 81 829 c 0,6,7
 224 840 224 840 372 840 c 0,8,9
 518 840 518 840 652 829 c 0,10,11
 691 826 691 826 717 797 c 128,-1,12
 743 768 743 768 743 729 c 0,13,14
 743 687 743 687 713 658 c 128,-1,15
 683 629 683 629 643 629 c 2,16,-1
 635 629 l 1,17,18
 509 640 509 640 372 640 c 0,19,20
 233 640 233 640 97 629 c 1,21,-1
 89 629 l 2,0,1
436 1212 m 1,22,23
 455 1013 455 1013 455 811 c 0,24,25
 455 486 455 486 419 162 c 1,26,27
 492 145 492 145 562 145 c 0,28,29
 810 145 810 145 969.5 300 c 128,-1,30
 1129 455 1129 455 1129 701 c 0,31,32
 1129 969 1129 969 974.5 1092.5 c 128,-1,33
 820 1216 820 1216 516 1216 c 0,34,35
 473 1216 473 1216 436 1212 c 1,22,23
305 1392 m 0,36,37
 408 1416 408 1416 516 1416 c 0,38,39
 655 1416 655 1416 776.5 1389.5 c 128,-1,40
 898 1363 898 1363 1000 1306.5 c 128,-1,41
 1102 1250 1102 1250 1175 1167 c 128,-1,42
 1248 1084 1248 1084 1288.5 965 c 128,-1,43
 1329 846 1329 846 1329 701 c 0,44,45
 1329 485 1329 485 1227.5 311 c 128,-1,46
 1126 137 1126 137 951 41 c 128,-1,47
 776 -55 776 -55 562 -55 c 0,48,49
 412 -55 412 -55 274 -1 c 0,50,51
 245 11 245 11 227.5 38 c 128,-1,52
 210 65 210 65 210 94 c 0,53,54
 210 96 210 96 210.5 99.5 c 128,-1,55
 211 103 211 103 211 105 c 0,56,57
 255 454 255 454 255 811 c 0,58,59
 255 1024 255 1024 228 1285 c 0,60,61
 228 1286 228 1286 227.5 1289 c 128,-1,62
 227 1292 227 1292 227 1294 c 0,63,64
 227 1329 227 1329 250.5 1357 c 128,-1,65
 274 1385 274 1385 305 1392 c 0,36,37
EndSplineSet
Validated: 5
EndChar

StartChar: multiply
Encoding: 153 215 153
Width: 756
GlyphClass: 2
Flags: W
LayerCount: 2
Fore
SplineSet
118 300 m 0,0,1
 76 300 76 300 47 330 c 128,-1,2
 18 360 18 360 18 400 c 0,3,4
 18 434 18 434 40 462 c 0,5,6
 130 576 130 576 230 683 c 1,7,8
 121 774 121 774 33 829 c 0,9,10
 -14 859 -14 859 -14 915 c 0,11,12
 -14 957 -14 957 16.5 985.5 c 128,-1,13
 47 1014 47 1014 87 1014 c 0,14,15
 115 1014 115 1014 139 999 c 0,16,17
 244 933 244 933 369 828 c 1,18,19
 467 925 467 925 541 992 c 0,20,21
 570 1018 570 1018 609 1018 c 0,22,23
 649 1018 649 1018 679 988.5 c 128,-1,24
 709 959 709 959 709 918 c 0,25,26
 709 873 709 873 677 844 c 0,27,28
 594 769 594 769 518 694 c 1,29,30
 672 543 672 543 727 435 c 0,31,32
 738 413 738 413 738 391 c 0,33,34
 738 351 738 351 710 320.5 c 128,-1,35
 682 290 682 290 639 290 c 0,36,37
 611 290 611 290 586.5 304.5 c 128,-1,38
 562 319 562 319 549 345 c 0,39,40
 535 372 535 372 483.5 434.5 c 128,-1,41
 432 497 432 497 378 550 c 1,42,43
 286 451 286 451 196 338 c 0,44,45
 166 300 166 300 118 300 c 0,0,1
EndSplineSet
Validated: 1
EndChar

StartChar: Oslash
Encoding: 154 216 154
Width: 1485
GlyphClass: 2
Flags: W
LayerCount: 2
Fore
SplineSet
169 -55 m 0,0,1
 127 -55 127 -55 98.5 -24.5 c 128,-1,2
 70 6 70 6 70 46 c 0,3,4
 70 74 70 74 87 100 c 0,5,6
 191 256 191 256 308 404.5 c 128,-1,7
 425 553 425 553 526.5 667.5 c 128,-1,8
 628 782 628 782 767.5 920.5 c 128,-1,9
 907 1059 907 1059 1006 1151 c 128,-1,10
 1105 1243 1105 1243 1267 1390 c 0,11,12
 1296 1416 1296 1416 1334 1416 c 0,13,14
 1374 1416 1374 1416 1404 1386.5 c 128,-1,15
 1434 1357 1434 1357 1434 1316 c 0,16,17
 1434 1272 1434 1272 1401 1242 c 0,18,19
 1268 1122 1268 1122 1184.5 1044 c 128,-1,20
 1101 966 1101 966 986.5 856.5 c 128,-1,21
 872 747 872 747 788 657 c 128,-1,22
 704 567 704 567 608 457 c 128,-1,23
 512 347 512 347 424.5 231 c 128,-1,24
 337 115 337 115 253 -10 c 0,25,26
 224 -55 224 -55 169 -55 c 0,0,1
713 145 m 0,27,28
 939 145 939 145 1082 290.5 c 128,-1,29
 1225 436 1225 436 1225 684 c 0,30,31
 1225 918 1225 918 1106.5 1067 c 128,-1,32
 988 1216 988 1216 799 1216 c 0,33,34
 686 1216 686 1216 585.5 1169.5 c 128,-1,35
 485 1123 485 1123 414 1043 c 128,-1,36
 343 963 343 963 301.5 851 c 128,-1,37
 260 739 260 739 260 613 c 0,38,39
 260 391 260 391 383.5 268 c 128,-1,40
 507 145 507 145 713 145 c 0,27,28
713 -55 m 0,41,42
 528 -55 528 -55 380 26.5 c 128,-1,43
 232 108 232 108 146 261 c 128,-1,44
 60 414 60 414 60 613 c 0,45,46
 60 773 60 773 115 920 c 128,-1,47
 170 1067 170 1067 266 1176.5 c 128,-1,48
 362 1286 362 1286 501 1351 c 128,-1,49
 640 1416 640 1416 799 1416 c 0,50,51
 944 1416 944 1416 1064 1355 c 128,-1,52
 1184 1294 1184 1294 1262 1191.5 c 128,-1,53
 1340 1089 1340 1089 1382.5 958 c 128,-1,54
 1425 827 1425 827 1425 684 c 0,55,56
 1425 522 1425 522 1370 383.5 c 128,-1,57
 1315 245 1315 245 1220 149 c 128,-1,58
 1125 53 1125 53 994 -1 c 128,-1,59
 863 -55 863 -55 713 -55 c 0,41,42
EndSplineSet
Validated: 5
EndChar

StartChar: germandbls
Encoding: 161 223 161
Width: 1032
GlyphClass: 2
Flags: W
LayerCount: 2
Fore
SplineSet
134 -96 m 0,0,1
 92 -96 92 -96 63 -66 c 128,-1,2
 34 -36 34 -36 34 4 c 2,3,-1
 34 11 l 1,4,5
 82 723 82 723 121 1024 c 0,6,7
 139 1160 139 1160 194 1250 c 128,-1,8
 249 1340 249 1340 324.5 1378 c 128,-1,9
 400 1416 400 1416 495 1416 c 0,10,11
 661 1416 661 1416 763.5 1310 c 128,-1,12
 866 1204 866 1204 866 1060 c 0,13,14
 866 950 866 950 831 877.5 c 128,-1,15
 796 805 796 805 721 744 c 0,16,17
 686 716 686 716 665.5 681.5 c 128,-1,18
 645 647 645 647 645 619 c 0,19,20
 645 599 645 599 658.5 583.5 c 128,-1,21
 672 568 672 568 717 545 c 0,22,23
 757 525 757 525 788 507 c 128,-1,24
 819 489 819 489 861 455 c 128,-1,25
 903 421 903 421 930.5 384.5 c 128,-1,26
 958 348 958 348 978 295 c 128,-1,27
 998 242 998 242 998 182 c 0,28,29
 998 121 998 121 971 73 c 128,-1,30
 944 25 944 25 902.5 -4 c 128,-1,31
 861 -33 861 -33 806.5 -52.5 c 128,-1,32
 752 -72 752 -72 702.5 -79 c 128,-1,33
 653 -86 653 -86 606 -86 c 0,34,35
 564 -86 564 -86 521 -80 c 128,-1,36
 478 -74 478 -74 431.5 -60 c 128,-1,37
 385 -46 385 -46 356 -16.5 c 128,-1,38
 327 13 327 13 327 54 c 0,39,40
 327 97 327 97 358 125 c 128,-1,41
 389 153 389 153 428 153 c 0,42,43
 452 153 452 153 476 140 c 0,44,45
 522 114 522 114 606 114 c 0,46,47
 670 114 670 114 717.5 131.5 c 128,-1,48
 765 149 765 149 781.5 163.5 c 128,-1,49
 798 178 798 178 798 182 c 0,50,51
 798 237 798 237 755 281 c 128,-1,52
 712 325 712 325 627 367 c 0,53,54
 445 461 445 461 445 619 c 0,55,56
 445 780 445 780 595 900 c 0,57,58
 603 906 603 906 620 919.5 c 128,-1,59
 637 933 637 933 639.5 935 c 128,-1,60
 642 937 642 937 651 947.5 c 128,-1,61
 660 958 660 958 660 962 c 128,-1,62
 660 966 660 966 663 980 c 128,-1,63
 666 994 666 994 666 1005.5 c 128,-1,64
 666 1017 666 1017 666 1040 c 2,65,-1
 666 1060 l 2,66,67
 666 1125 666 1125 622.5 1170.5 c 128,-1,68
 579 1216 579 1216 495 1216 c 0,69,70
 467 1216 467 1216 451.5 1214.5 c 128,-1,71
 436 1213 436 1213 415.5 1206.5 c 128,-1,72
 395 1200 395 1200 382.5 1186 c 128,-1,73
 370 1172 370 1172 357 1148.5 c 128,-1,74
 344 1125 344 1125 335 1087.5 c 128,-1,75
 326 1050 326 1050 319 998 c 0,76,77
 282 704 282 704 234 -3 c 0,78,79
 231 -42 231 -42 202 -69 c 128,-1,80
 173 -96 173 -96 134 -96 c 0,0,1
EndSplineSet
Validated: 1
EndChar

StartChar: ae
Encoding: 168 230 168
Width: 1832
GlyphClass: 2
Flags: W
LayerCount: 2
Fore
SplineSet
1062 562 m 1,0,1
 1106 560 1106 560 1127 560 c 0,2,3
 1223 560 1223 560 1326 592.5 c 128,-1,4
 1429 625 1429 625 1498 678 c 128,-1,5
 1567 731 1567 731 1567 784 c 0,6,7
 1567 822 1567 822 1530.5 850.5 c 128,-1,8
 1494 879 1494 879 1431 879 c 0,9,10
 1305 879 1305 879 1204 790.5 c 128,-1,11
 1103 702 1103 702 1062 562 c 1,0,1
1110 972 m 1,12,13
 1254 1079 1254 1079 1431 1079 c 0,14,15
 1490 1079 1490 1079 1548.5 1060 c 128,-1,16
 1607 1041 1607 1041 1656.5 1006 c 128,-1,17
 1706 971 1706 971 1736.5 913 c 128,-1,18
 1767 855 1767 855 1767 784 c 0,19,20
 1767 689 1767 689 1718 612 c 128,-1,21
 1669 535 1669 535 1596 489.5 c 128,-1,22
 1523 444 1523 444 1432.5 413.5 c 128,-1,23
 1342 383 1342 383 1266 371.5 c 128,-1,24
 1190 360 1190 360 1127 360 c 0,25,26
 1087 360 1087 360 1048 363 c 1,27,28
 1069 265 1069 265 1148.5 205 c 128,-1,29
 1228 145 1228 145 1346 145 c 0,30,31
 1424 145 1424 145 1499 174 c 128,-1,32
 1574 203 1574 203 1632 255 c 0,33,34
 1661 281 1661 281 1699 281 c 0,35,36
 1739 281 1739 281 1769 251.5 c 128,-1,37
 1799 222 1799 222 1799 181 c 0,38,39
 1799 136 1799 136 1766 107 c 0,40,41
 1680 29 1680 29 1571 -13 c 128,-1,42
 1462 -55 1462 -55 1346 -55 c 0,43,44
 1212 -55 1212 -55 1099.5 1.5 c 128,-1,45
 987 58 987 58 920 159 c 1,46,47
 852 62 852 62 746.5 3.5 c 128,-1,48
 641 -55 641 -55 503 -55 c 0,49,50
 298 -55 298 -55 166 81.5 c 128,-1,51
 34 218 34 218 34 419 c 0,52,53
 34 507 34 507 57.5 597.5 c 128,-1,54
 81 688 81 688 127.5 771.5 c 128,-1,55
 174 855 174 855 238 920 c 128,-1,56
 302 985 302 985 390.5 1024 c 128,-1,57
 479 1063 479 1063 578 1063 c 0,58,59
 747 1063 747 1063 873 951 c 0,60,61
 896 931 896 931 904 900 c 1,62,63
 909 940 909 940 913 968 c 0,64,65
 917 1005 917 1005 946 1030 c 128,-1,66
 975 1055 975 1055 1012 1055 c 128,-1,67
 1049 1055 1049 1055 1076.5 1031 c 128,-1,68
 1104 1007 1104 1007 1110 972 c 1,12,13
842 493 m 0,69,70
 866 624 866 624 894 828 c 1,71,72
 864 776 864 776 807 776 c 0,73,74
 769 776 769 776 741 801 c 0,75,76
 709 829 709 829 664.5 846 c 128,-1,77
 620 863 620 863 578 863 c 0,78,79
 489 863 489 863 409 799.5 c 128,-1,80
 329 736 329 736 281.5 633 c 128,-1,81
 234 530 234 530 234 419 c 0,82,83
 234 295 234 295 306.5 220 c 128,-1,84
 379 145 379 145 503 145 c 0,85,86
 776 145 776 145 842 493 c 0,69,70
EndSplineSet
Validated: 1
EndChar

StartChar: eth
Encoding: 178 240 178
Width: 1089
GlyphClass: 2
Flags: W
LayerCount: 2
Fore
SplineSet
157 1421 m 0,0,1
 157 1464 157 1464 187.5 1492 c 128,-1,2
 218 1520 218 1520 258 1520 c 0,3,4
 274 1520 274 1520 293 1513 c 0,5,6
 439 1457 439 1457 560 1375 c 1,7,8
 716 1470 716 1470 811 1501 c 0,9,10
 828 1506 828 1506 841 1506 c 0,11,12
 881 1506 881 1506 911.5 1478 c 128,-1,13
 942 1450 942 1450 942 1407 c 0,14,15
 942 1375 942 1375 923 1348 c 128,-1,16
 904 1321 904 1321 873 1311 c 0,17,18
 826 1296 826 1296 728 1238 c 1,19,20
 812 1155 812 1155 874.5 1057.5 c 128,-1,21
 937 960 937 960 971.5 866 c 128,-1,22
 1006 772 1006 772 1022.5 687 c 128,-1,23
 1039 602 1039 602 1039 525 c 0,24,25
 1039 388 1039 388 998 276 c 128,-1,26
 957 164 957 164 885.5 93 c 128,-1,27
 814 22 814 22 721.5 -16.5 c 128,-1,28
 629 -55 629 -55 523 -55 c 0,29,30
 394 -55 394 -55 285.5 7 c 128,-1,31
 177 69 177 69 113.5 180 c 128,-1,32
 50 291 50 291 50 427 c 0,33,34
 50 568 50 568 115.5 688.5 c 128,-1,35
 181 809 181 809 300 881.5 c 128,-1,36
 419 954 419 954 565 954 c 0,37,38
 606 954 606 954 635.5 924 c 128,-1,39
 665 894 665 894 665 854 c 128,-1,40
 665 814 665 814 635.5 784 c 128,-1,41
 606 754 606 754 565 754 c 0,42,43
 429 754 429 754 339.5 660 c 128,-1,44
 250 566 250 566 250 427 c 0,45,46
 250 302 250 302 328 223.5 c 128,-1,47
 406 145 406 145 523 145 c 0,48,49
 590 145 590 145 645 165 c 128,-1,50
 700 185 700 185 744.5 228 c 128,-1,51
 789 271 789 271 814 346.5 c 128,-1,52
 839 422 839 422 839 525 c 0,53,54
 839 612 839 612 815 707 c 128,-1,55
 791 802 791 802 724 918.5 c 128,-1,56
 657 1035 657 1035 554 1127 c 1,57,58
 361 999 361 999 302 933 c 0,59,60
 274 900 274 900 228 900 c 0,61,62
 187 900 187 900 157.5 930 c 128,-1,63
 128 960 128 960 128 1000 c 0,64,65
 128 1038 128 1038 154 1067 c 0,66,67
 222 1143 222 1143 377 1254 c 1,68,69
 309 1293 309 1293 221 1327 c 0,70,71
 192 1338 192 1338 174.5 1364.5 c 128,-1,72
 157 1391 157 1391 157 1421 c 0,0,1
EndSplineSet
Validated: 1
EndChar

StartChar: oslash
Encoding: 186 248 186
Width: 1083
GlyphClass: 2
Flags: W
LayerCount: 2
Fore
SplineSet
133 -55 m 0,0,1
 91 -55 91 -55 62.5 -24.5 c 128,-1,2
 34 6 34 6 34 46 c 0,3,4
 34 76 34 76 50 99 c 0,5,6
 220 362 220 362 417.5 589.5 c 128,-1,7
 615 817 615 817 853 1043 c 0,8,9
 883 1071 883 1071 922 1071 c 0,10,11
 963 1071 963 1071 992.5 1041.5 c 128,-1,12
 1022 1012 1022 1012 1022 971 c 0,13,14
 1022 928 1022 928 991 899 c 0,15,16
 760 679 760 679 570 460.5 c 128,-1,17
 380 242 380 242 218 -9 c 0,18,19
 188 -55 188 -55 133 -55 c 0,0,1
567 871 m 0,20,21
 424 871 424 871 342 765.5 c 128,-1,22
 260 660 260 660 260 486 c 0,23,24
 260 325 260 325 330 235 c 128,-1,25
 400 145 400 145 520 145 c 0,26,27
 655 145 655 145 752 260 c 128,-1,28
 849 375 849 375 849 538 c 0,29,30
 849 686 849 686 773 778.5 c 128,-1,31
 697 871 697 871 567 871 c 0,20,21
567 1071 m 0,32,33
 658 1071 658 1071 737 1041 c 128,-1,34
 816 1011 816 1011 872.5 960 c 128,-1,35
 929 909 929 909 969.5 841 c 128,-1,36
 1010 773 1010 773 1029.5 696 c 128,-1,37
 1049 619 1049 619 1049 538 c 0,38,39
 1049 426 1049 426 1010.5 319.5 c 128,-1,40
 972 213 972 213 905 129.5 c 128,-1,41
 838 46 838 46 737 -4.5 c 128,-1,42
 636 -55 636 -55 520 -55 c 0,43,44
 410 -55 410 -55 321 -10 c 128,-1,45
 232 35 232 35 176 111 c 128,-1,46
 120 187 120 187 90 283.5 c 128,-1,47
 60 380 60 380 60 486 c 0,48,49
 60 575 60 575 79.5 659 c 128,-1,50
 99 743 99 743 140.5 818 c 128,-1,51
 182 893 182 893 241 949 c 128,-1,52
 300 1005 300 1005 384 1038 c 128,-1,53
 468 1071 468 1071 567 1071 c 0,32,33
EndSplineSet
Validated: 5
EndChar

StartChar: thorn
Encoding: 192 254 192
Width: 1069
GlyphClass: 2
Flags: W
LayerCount: 2
Fore
SplineSet
150 1461 m 0,0,1
 192 1461 192 1461 221.5 1430.5 c 128,-1,2
 251 1400 251 1400 250 1359 c 2,3,-1
 216 -367 l 2,4,5
 215 -407 215 -407 186 -436 c 128,-1,6
 157 -465 157 -465 116 -465 c 0,7,8
 74 -465 74 -465 44.5 -434.5 c 128,-1,9
 15 -404 15 -404 16 -363 c 2,10,-1
 50 1363 l 2,11,12
 51 1403 51 1403 80 1432 c 128,-1,13
 109 1461 109 1461 150 1461 c 0,0,1
567 871 m 0,14,15
 424 871 424 871 342 765.5 c 128,-1,16
 260 660 260 660 260 486 c 0,17,18
 260 325 260 325 330 235 c 128,-1,19
 400 145 400 145 520 145 c 0,20,21
 655 145 655 145 752 260 c 128,-1,22
 849 375 849 375 849 538 c 0,23,24
 849 686 849 686 773 778.5 c 128,-1,25
 697 871 697 871 567 871 c 0,14,15
567 1071 m 0,26,27
 658 1071 658 1071 737 1041 c 128,-1,28
 816 1011 816 1011 872.5 960 c 128,-1,29
 929 909 929 909 969.5 841 c 128,-1,30
 1010 773 1010 773 1029.5 696 c 128,-1,31
 1049 619 1049 619 1049 538 c 0,32,33
 1049 426 1049 426 1010.5 319.5 c 128,-1,34
 972 213 972 213 905 129.5 c 128,-1,35
 838 46 838 46 737 -4.5 c 128,-1,36
 636 -55 636 -55 520 -55 c 0,37,38
 410 -55 410 -55 321 -10 c 128,-1,39
 232 35 232 35 176 111 c 128,-1,40
 120 187 120 187 90 283.5 c 128,-1,41
 60 380 60 380 60 486 c 0,42,43
 60 575 60 575 79.5 659 c 128,-1,44
 99 743 99 743 140.5 818 c 128,-1,45
 182 893 182 893 241 949 c 128,-1,46
 300 1005 300 1005 384 1038 c 128,-1,47
 468 1071 468 1071 567 1071 c 0,26,27
EndSplineSet
Validated: 37
EndChar

StartChar: dotlessi
Encoding: 194 305 194
Width: 390
GlyphClass: 2
Flags: W
LayerCount: 2
Fore
SplineSet
211 1071 m 0,0,1
 252 1071 252 1071 281.5 1041 c 128,-1,2
 311 1011 311 1011 311 971 c 0,3,4
 311 855 311 855 303.5 484.5 c 128,-1,5
 296 114 296 114 296 8 c 2,6,-1
 296 0 l 2,7,8
 296 -41 296 -41 266.5 -70.5 c 128,-1,9
 237 -100 237 -100 196 -100 c 0,10,11
 152 -100 152 -100 124 -69 c 128,-1,12
 96 -38 96 -38 96 8 c 0,13,14
 96 654 96 654 111 976 c 0,15,16
 112 1015 112 1015 142 1043 c 128,-1,17
 172 1071 172 1071 211 1071 c 0,0,1
EndSplineSet
Validated: 1
EndChar

StartChar: OE
Encoding: 195 338 195
Width: 2275
GlyphClass: 2
Flags: W
LayerCount: 2
Fore
SplineSet
1193 107 m 0,0,1
 1193 150 1193 150 1223.5 178 c 128,-1,2
 1254 206 1254 206 1294 206 c 0,3,4
 1308 206 1308 206 1315 204 c 0,5,6
 1566 148 1566 148 1823 148 c 0,7,8
 1975 148 1975 148 2126 170 c 0,9,10
 2131 171 2131 171 2141 171 c 0,11,12
 2181 171 2181 171 2211 142.5 c 128,-1,13
 2241 114 2241 114 2241 71 c 0,14,15
 2241 35 2241 35 2216.5 6 c 128,-1,16
 2192 -23 2192 -23 2156 -28 c 0,17,18
 1997 -52 1997 -52 1823 -52 c 0,19,20
 1537 -52 1537 -52 1271 8 c 0,21,22
 1237 15 1237 15 1215 43.5 c 128,-1,23
 1193 72 1193 72 1193 107 c 0,0,1
1087 1151 m 0,24,25
 1087 1111 1087 1111 1058 1081 c 128,-1,26
 1029 1051 1029 1051 987 1051 c 0,27,28
 936 1051 936 1051 906 1092 c 0,29,30
 814 1216 814 1216 673 1216 c 0,31,32
 584 1216 584 1216 503 1170.5 c 128,-1,33
 422 1125 422 1125 363 1048.5 c 128,-1,34
 304 972 304 972 269 865.5 c 128,-1,35
 234 759 234 759 234 643 c 0,36,37
 234 416 234 416 359 280.5 c 128,-1,38
 484 145 484 145 670 145 c 0,39,40
 886 145 886 145 998 285.5 c 128,-1,41
 1110 426 1110 426 1145 707 c 1,42,43
 1142 719 1142 719 1142 732 c 0,44,45
 1142 758 1142 758 1153 778 c 1,46,47
 1164 899 1164 899 1164 1065 c 0,48,49
 1164 1108 1164 1108 1160.5 1196.5 c 128,-1,50
 1157 1285 1157 1285 1157 1329 c 0,51,52
 1157 1371 1157 1371 1188.5 1400 c 128,-1,53
 1220 1429 1220 1429 1259 1429 c 0,54,55
 1261 1429 1261 1429 1264.5 1428.5 c 128,-1,56
 1268 1428 1268 1428 1270 1428 c 0,57,58
 1689 1372 1689 1372 1863 1372 c 0,59,60
 2000 1372 2000 1372 2100 1395 c 0,61,62
 2110 1398 2110 1398 2122 1398 c 0,63,64
 2162 1398 2162 1398 2192 1370 c 128,-1,65
 2222 1342 2222 1342 2222 1299 c 0,66,67
 2222 1265 2222 1265 2200 1236.5 c 128,-1,68
 2178 1208 2178 1208 2144 1201 c 0,69,70
 2017 1172 2017 1172 1863 1172 c 0,71,72
 1684 1172 1684 1172 1362 1214 c 1,73,74
 1364 1118 1364 1118 1364 1065 c 0,75,76
 1364 927 1364 927 1356 819 c 1,77,78
 1513 804 1513 804 1675 804 c 0,79,80
 1838 804 1838 804 1963 820 c 0,81,82
 1967 821 1967 821 1976 821 c 0,83,84
 2016 821 2016 821 2046 792 c 128,-1,85
 2076 763 2076 763 2076 721 c 0,86,87
 2076 684 2076 684 2051 655 c 128,-1,88
 2026 626 2026 626 1989 622 c 0,89,90
 1853 604 1853 604 1675 604 c 0,91,92
 1494 604 1494 604 1332 620 c 1,93,94
 1312 501 1312 501 1280 403.5 c 128,-1,95
 1248 306 1248 306 1194 219 c 128,-1,96
 1140 132 1140 132 1068.5 73 c 128,-1,97
 997 14 997 14 895.5 -20.5 c 128,-1,98
 794 -55 794 -55 670 -55 c 0,99,100
 537 -55 537 -55 419 -2 c 128,-1,101
 301 51 301 51 216.5 142.5 c 128,-1,102
 132 234 132 234 83 364 c 128,-1,103
 34 494 34 494 34 643 c 0,104,105
 34 757 34 757 62 869 c 128,-1,106
 90 981 90 981 145.5 1079.5 c 128,-1,107
 201 1178 201 1178 277 1253.5 c 128,-1,108
 353 1329 353 1329 455.5 1372.5 c 128,-1,109
 558 1416 558 1416 673 1416 c 0,110,111
 798 1416 798 1416 899.5 1359 c 128,-1,112
 1001 1302 1001 1302 1068 1210 c 0,113,114
 1087 1184 1087 1184 1087 1151 c 0,24,25
EndSplineSet
Validated: 1
EndChar

StartChar: uni060C
Encoding: 197 1548 197
Width: 633
GlyphClass: 2
Flags: W
LayerCount: 2
Fore
SplineSet
232 245 m 1,0,-1
 232 241 l 2,1,2
 232 169 232 169 258 139.5 c 128,-1,3
 284 110 284 110 333 110 c 0,4,5
 356 110 356 110 371.5 131 c 128,-1,6
 387 152 387 152 387 196 c 0,7,8
 387 238 387 238 366 265 c 128,-1,9
 345 292 345 292 321 292 c 0,10,11
 314 292 314 292 303 288 c 128,-1,12
 292 284 292 284 291 282 c 0,13,14
 272 245 272 245 232 245 c 1,0,-1
324 700 m 0,15,16
 350 700 350 700 369.5 680.5 c 128,-1,17
 389 661 389 661 389 635 c 0,18,19
 389 608 389 608 371 590 c 0,20,21
 298 514 298 514 262 412 c 1,22,23
 291 422 291 422 321 422 c 0,24,25
 412 422 412 422 464.5 351.5 c 128,-1,26
 517 281 517 281 517 196 c 0,27,28
 517 115 517 115 470 47.5 c 128,-1,29
 423 -20 423 -20 333 -20 c 0,30,31
 229 -20 229 -20 165.5 53 c 128,-1,32
 102 126 102 126 102 241 c 0,33,34
 102 299 102 299 112 352 c 0,35,36
 148 546 148 546 277 680 c 0,37,38
 297 700 297 700 324 700 c 0,15,16
EndSplineSet
Validated: 1
EndChar

StartChar: uni0615
Encoding: 198 1557 198
Width: 0
GlyphClass: 4
Flags: W
AnchorPoint: "Anchor-4" 247 1347 basemark 0
AnchorPoint: "Anchor-4" 256 768 mark 0
AnchorPoint: "Anchor-2" 256 768 mark 0
AnchorPoint: "Anchor-1" 256 768 mark 0
LayerCount: 2
Fore
SplineSet
9 1256 m 0,0,1
 23 1256 23 1256 38 1253 c 128,-1,2
 53 1250 53 1250 70.5 1244.5 c 128,-1,3
 88 1239 88 1239 97 1237 c 1,4,5
 109 1342 109 1342 109 1441 c 0,6,7
 109 1571 109 1571 87 1708 c 0,8,9
 86 1711 86 1711 86 1719 c 0,10,11
 86 1745 86 1745 104.5 1764.5 c 128,-1,12
 123 1784 123 1784 151 1784 c 0,13,14
 174 1784 174 1784 192.5 1768.5 c 128,-1,15
 211 1753 211 1753 215 1730 c 0,16,17
 239 1590 239 1590 239 1441 c 2,18,-1
 239 1432 l 1,19,20
 309 1487 309 1487 393 1487 c 0,21,22
 469 1487 469 1487 524.5 1437 c 128,-1,23
 580 1387 580 1387 580 1309 c 0,24,25
 580 1256 580 1256 556.5 1215 c 128,-1,26
 533 1174 533 1174 498.5 1151.5 c 128,-1,27
 464 1129 464 1129 418 1115 c 128,-1,28
 372 1101 372 1101 334 1096.5 c 128,-1,29
 296 1092 296 1092 258 1092 c 0,30,31
 122 1092 122 1092 -9 1128 c 0,32,33
 -31 1134 -31 1134 -44 1151.5 c 128,-1,34
 -57 1169 -57 1169 -57 1191 c 0,35,36
 -57 1219 -57 1219 -37 1237.5 c 128,-1,37
 -17 1256 -17 1256 9 1256 c 0,0,1
242 1222 m 1,38,-1
 258 1222 l 2,39,40
 347 1222 347 1222 398.5 1246.5 c 128,-1,41
 450 1271 450 1271 450 1309 c 0,42,43
 450 1329 450 1329 435 1343 c 128,-1,44
 420 1357 420 1357 393 1357 c 0,45,46
 304 1357 304 1357 242 1222 c 1,38,-1
EndSplineSet
Validated: 1
EndChar

StartChar: uni061F
Encoding: 200 1567 200
Width: 900
GlyphClass: 2
Flags: W
LayerCount: 2
Fore
SplineSet
759 840 m 0,0,1
 716 840 716 840 687.5 870 c 128,-1,2
 659 900 659 900 659 940 c 0,3,4
 659 954 659 954 663 982 c 128,-1,5
 667 1010 667 1010 667 1020 c 0,6,7
 667 1111 667 1111 611 1163.5 c 128,-1,8
 555 1216 555 1216 473 1216 c 0,9,10
 427 1216 427 1216 386 1200.5 c 128,-1,11
 345 1185 345 1185 310 1155 c 128,-1,12
 275 1125 275 1125 254.5 1073 c 128,-1,13
 234 1021 234 1021 234 955 c 0,14,15
 234 887 234 887 268 838.5 c 128,-1,16
 302 790 302 790 379 725 c 0,17,18
 423 688 423 688 451.5 659 c 128,-1,19
 480 630 480 630 515.5 584 c 128,-1,20
 551 538 551 538 569 483 c 128,-1,21
 587 428 587 428 587 366 c 0,22,23
 587 325 587 325 557.5 295.5 c 128,-1,24
 528 266 528 266 487 266 c 128,-1,25
 446 266 446 266 416.5 296 c 128,-1,26
 387 326 387 326 387 366 c 0,27,28
 387 421 387 421 356 464.5 c 128,-1,29
 325 508 325 508 251 571 c 0,30,31
 216 600 216 600 192 622.5 c 128,-1,32
 168 645 168 645 135.5 683.5 c 128,-1,33
 103 722 103 722 83 759 c 128,-1,34
 63 796 63 796 48.5 848 c 128,-1,35
 34 900 34 900 34 955 c 0,36,37
 34 1063 34 1063 72 1152 c 128,-1,38
 110 1241 110 1241 173 1297.5 c 128,-1,39
 236 1354 236 1354 313.5 1385 c 128,-1,40
 391 1416 391 1416 473 1416 c 0,41,42
 549 1416 549 1416 620 1388 c 128,-1,43
 691 1360 691 1360 746 1310 c 128,-1,44
 801 1260 801 1260 834 1184.5 c 128,-1,45
 867 1109 867 1109 867 1020 c 0,46,47
 867 975 867 975 857 922 c 0,48,49
 850 886 850 886 822 863 c 128,-1,50
 794 840 794 840 759 840 c 0,0,1
331 89 m 0,51,52
 331 148 331 148 372.5 191 c 128,-1,53
 414 234 414 234 475 234 c 0,54,55
 535 234 535 234 577.5 191.5 c 128,-1,56
 620 149 620 149 620 89 c 0,57,58
 620 28 620 28 577 -13.5 c 128,-1,59
 534 -55 534 -55 475 -55 c 128,-1,60
 416 -55 416 -55 373.5 -13 c 128,-1,61
 331 29 331 29 331 89 c 0,51,52
EndSplineSet
Validated: 1
EndChar

StartChar: uni0621
Encoding: 201 1569 201
Width: 857
GlyphClass: 2
Flags: W
AnchorPoint: "Anchor-2" 428 736 basechar 0
AnchorPoint: "Anchor-0" 428 175 basechar 0
LayerCount: 2
Fore
SplineSet
705 680 m 4,0,1
 705 640 705 640 676.5 609.5 c 132,-1,2
 648 579 648 579 606 579 c 4,3,4
 551 579 551 579 522 624 c 4,5,6
 503 653 503 653 483 664.5 c 132,-1,7
 463 676 463 676 423 676 c 4,8,9
 354 676 354 676 298 607 c 132,-1,10
 242 538 242 538 242 451 c 4,11,12
 242 384 242 384 277.5 346 c 132,-1,13
 313 308 313 308 404 308 c 4,14,15
 458 308 458 308 574 319 c 132,-1,16
 690 330 690 330 743 330 c 4,17,18
 784 330 784 330 813.5 300.5 c 132,-1,19
 843 271 843 271 843 230 c 4,20,21
 843 193 843 193 818.5 165.5 c 132,-1,22
 794 138 794 138 762 132 c 4,23,24
 418 67 418 67 178 -98 c 4,25,26
 154 -115 154 -115 122 -115 c 4,27,28
 82 -115 82 -115 51.5 -86.5 c 132,-1,29
 21 -58 21 -58 21 -16 c 4,30,31
 21 38 21 38 65 68 c 4,32,33
 132 114 132 114 208 154 c 5,34,35
 125 200 125 200 83.5 280.5 c 132,-1,36
 42 361 42 361 42 451 c 4,37,38
 42 524 42 524 68 598 c 132,-1,39
 94 672 94 672 141 734.5 c 132,-1,40
 188 797 188 797 262 836.5 c 132,-1,41
 336 876 336 876 423 876 c 132,-1,42
 510 876 510 876 577.5 836.5 c 132,-1,43
 645 797 645 797 688 734 c 4,44,45
 705 708 705 708 705 680 c 4,0,1
EndSplineSet
Validated: 1
EndChar

StartChar: uni0622
Encoding: 202 1570 202
Width: 460
GlyphClass: 3
Flags: W
AnchorPoint: "Anchor-2" 339 1953 basechar 0
AnchorPoint: "Anchor-0" 202 0 basechar 0
LayerCount: 2
Fore
SplineSet
-37 1697 m 0,0,1
 -37 1657 -37 1657 -65.5 1626.5 c 128,-1,2
 -94 1596 -94 1596 -137 1596 c 0,3,4
 -173 1596 -173 1596 -201.5 1620 c 128,-1,5
 -230 1644 -230 1644 -236 1680 c 0,6,7
 -241 1715 -241 1715 -241 1743 c 0,8,9
 -241 1906 -241 1906 -132.5 2012.5 c 128,-1,10
 -24 2119 -24 2119 130 2119 c 0,11,12
 285 2119 285 2119 437 2022 c 0,13,14
 545 1955 545 1955 628 1955 c 0,15,16
 662 1955 662 1955 684.5 1976 c 128,-1,17
 707 1997 707 1997 711 2039 c 0,18,19
 715 2077 715 2077 744 2103.5 c 128,-1,20
 773 2130 773 2130 811 2130 c 0,21,22
 853 2130 853 2130 881.5 2100.5 c 128,-1,23
 910 2071 910 2071 910 2030 c 2,24,-1
 910 2021 l 1,25,26
 900 1905 900 1905 819 1830 c 128,-1,27
 738 1755 738 1755 628 1755 c 0,28,29
 486 1755 486 1755 331 1852 c 0,30,31
 276 1886 276 1886 231 1902.5 c 128,-1,32
 186 1919 186 1919 130 1919 c 0,33,34
 55 1919 55 1919 7 1872 c 128,-1,35
 -41 1825 -41 1825 -41 1743 c 0,36,37
 -41 1734 -41 1734 -39 1719.5 c 128,-1,38
 -37 1705 -37 1705 -37 1697 c 0,0,1
178 1316 m 0,39,40
 178 1356 178 1356 207 1386 c 128,-1,41
 236 1416 236 1416 278 1416 c 0,42,43
 315 1416 315 1416 343.5 1391 c 128,-1,44
 372 1366 372 1366 377 1329 c 0,45,46
 423 985 423 985 423 531 c 0,47,48
 423 246 423 246 402 -7 c 0,49,50
 399 -46 399 -46 370 -72.5 c 128,-1,51
 341 -99 341 -99 302 -99 c 0,52,53
 260 -99 260 -99 231 -69 c 128,-1,54
 202 -39 202 -39 202 1 c 2,55,-1
 202 9 l 1,56,57
 223 250 223 250 223 531 c 0,58,59
 223 972 223 972 179 1303 c 0,60,61
 178 1307 178 1307 178 1316 c 0,39,40
EndSplineSet
Validated: 1
Substitution2: "Mikhak-Light-'fina' Terminal Forms in Arabic lookup 4 subtable" uniFE82
Ligature2: "'liga' Standard Ligatures in Arabic lookup 11 subtable" uni0627 uni0653
Substitution2: "'fina' Terminal Forms in Arabic lookup 4 subtable" uniFE82
Substitution2: "Single Substitution lookup 1 subtable" uniE00A
PairPos2: "'kern' Horizontal Kerning in Arabic lookup 2 per glyph data 1" uni063A dx=-200 dy=0 dh=-200 dv=0 dx=0 dy=0 dh=0 dv=0
PairPos2: "'kern' Horizontal Kerning in Arabic lookup 2 per glyph data 1" uni0639 dx=-200 dy=0 dh=-200 dv=0 dx=0 dy=0 dh=0 dv=0
PairPos2: "'kern' Horizontal Kerning in Arabic lookup 2 per glyph data 0" uni063A dx=-267 dy=0 dh=-267 dv=0 dx=0 dy=0 dh=0 dv=0
PairPos2: "'kern' Horizontal Kerning in Arabic lookup 2 per glyph data 0" uni0639 dx=-267 dy=0 dh=-267 dv=0 dx=0 dy=0 dh=0 dv=0
EndChar

StartChar: uni0627
Encoding: 207 1575 207
Width: 445
GlyphClass: 2
Flags: W
AnchorPoint: "Anchor-2" 269 1459 basechar 0
AnchorPoint: "Anchor-0" 144 0 basechar 0
LayerCount: 2
Fore
SplineSet
100 1316 m 0,0,1
 100 1356 100 1356 129 1386 c 128,-1,2
 158 1416 158 1416 200 1416 c 0,3,4
 237 1416 237 1416 265.5 1391 c 128,-1,5
 294 1366 294 1366 299 1329 c 0,6,7
 345 985 345 985 345 531 c 0,8,9
 345 246 345 246 324 -7 c 0,10,11
 321 -46 321 -46 292 -72.5 c 128,-1,12
 263 -99 263 -99 224 -99 c 0,13,14
 182 -99 182 -99 153 -69 c 128,-1,15
 124 -39 124 -39 124 1 c 2,16,-1
 124 9 l 1,17,18
 145 250 145 250 145 531 c 0,19,20
 145 972 145 972 101 1303 c 0,21,22
 100 1307 100 1307 100 1316 c 0,0,1
EndSplineSet
Validated: 1
Substitution2: "Mikhak-Light-'fina' Terminal Forms in Arabic lookup 4 subtable" uniFE8E
Substitution2: "'fina' Terminal Forms in Arabic lookup 4 subtable" uniFE8E
PairPos2: "'kern' Horizontal Kerning in Arabic lookup 2 per glyph data 1" uni063A dx=-200 dy=0 dh=-200 dv=0 dx=0 dy=0 dh=0 dv=0
PairPos2: "'kern' Horizontal Kerning in Arabic lookup 2 per glyph data 1" uni0639 dx=-200 dy=0 dh=-200 dv=0 dx=0 dy=0 dh=0 dv=0
PairPos2: "'kern' Horizontal Kerning in Arabic lookup 2 per glyph data 0" uni063A dx=-267 dy=0 dh=-267 dv=0 dx=0 dy=0 dh=0 dv=0
PairPos2: "'kern' Horizontal Kerning in Arabic lookup 2 per glyph data 0" uni0639 dx=-267 dy=0 dh=-267 dv=0 dx=0 dy=0 dh=0 dv=0
EndChar

StartChar: uni062D
Encoding: 213 1581 213
Width: 1232
GlyphClass: 2
Flags: W
AnchorPoint: "Anchor-2" 434 811 basechar 0
AnchorPoint: "Anchor-0" 699 -744 basechar 0
LayerCount: 2
Fore
SplineSet
1077 -426 m 0,0,1
 1116 -426 1116 -426 1147 -454 c 128,-1,2
 1178 -482 1178 -482 1178 -525 c 0,3,4
 1178 -586 1178 -586 1125 -614 c 0,5,6
 919 -723 919 -723 683 -723 c 0,7,8
 595 -723 595 -723 509 -706.5 c 128,-1,9
 423 -690 423 -690 339 -652 c 128,-1,10
 255 -614 255 -614 191.5 -558.5 c 128,-1,11
 128 -503 128 -503 89 -418.5 c 128,-1,12
 50 -334 50 -334 50 -231 c 0,13,14
 50 -143 50 -143 76.5 -60.5 c 128,-1,15
 103 22 103 22 146 87 c 128,-1,16
 189 152 189 152 251 212.5 c 128,-1,17
 313 273 313 273 376.5 318 c 128,-1,18
 440 363 440 363 515.5 404.5 c 128,-1,19
 591 446 591 446 652.5 473 c 128,-1,20
 714 500 714 500 781 525 c 1,21,22
 652 593 652 593 566 629 c 128,-1,23
 480 665 480 665 423 665 c 0,24,25
 372 665 372 665 335.5 635 c 128,-1,26
 299 605 299 605 266 510 c 0,27,28
 256 480 256 480 228.5 461.5 c 128,-1,29
 201 443 201 443 170 443 c 0,30,31
 127 443 127 443 99 473.5 c 128,-1,32
 71 504 71 504 71 544 c 0,33,34
 71 560 71 560 77 576 c 0,35,36
 126 717 126 717 217 791 c 128,-1,37
 308 865 308 865 423 865 c 0,38,39
 513 865 513 865 620.5 827.5 c 128,-1,40
 728 790 728 790 809 744.5 c 128,-1,41
 890 699 890 699 974 655.5 c 128,-1,42
 1058 612 1058 612 1101 604 c 0,43,44
 1135 598 1135 598 1158.5 571.5 c 128,-1,45
 1182 545 1182 545 1182 507 c 128,-1,46
 1182 469 1182 469 1156.5 440 c 128,-1,47
 1131 411 1131 411 1093 407 c 0,48,49
 1063 404 1063 404 1006.5 388.5 c 128,-1,50
 950 373 950 373 871 343 c 128,-1,51
 792 313 792 313 708.5 274 c 128,-1,52
 625 235 625 235 542.5 180 c 128,-1,53
 460 125 460 125 395 64.5 c 128,-1,54
 330 4 330 4 290 -73.5 c 128,-1,55
 250 -151 250 -151 250 -231 c 0,56,57
 250 -365 250 -365 371 -444 c 128,-1,58
 492 -523 492 -523 683 -523 c 0,59,60
 870 -523 870 -523 1031 -438 c 0,61,62
 1054 -426 1054 -426 1077 -426 c 0,0,1
EndSplineSet
Validated: 1
Substitution2: "Mikhak-Light-'init' Initial Forms in Arabic lookup 6 subtable" uniFEA3
Substitution2: "Mikhak-Light-'medi' Medial Forms in Arabic lookup 5 subtable" uniFEA4
Substitution2: "Mikhak-Light-'fina' Terminal Forms in Arabic lookup 4 subtable" uniFEA2
Substitution2: "'init' Initial Forms in Arabic lookup 6 subtable" uniFEA3
Substitution2: "'medi' Medial Forms in Arabic lookup 5 subtable" uniFEA4
Substitution2: "'fina' Terminal Forms in Arabic lookup 4 subtable" uniFEA2
EndChar

StartChar: uni062F
Encoding: 215 1583 215
Width: 880
GlyphClass: 2
Flags: W
AnchorPoint: "Anchor-2" 483 1006 basechar 0
AnchorPoint: "Anchor-0" 367 0 basechar 0
LayerCount: 2
Fore
SplineSet
265 788 m 0,0,1
 265 831 265 831 295.5 859 c 128,-1,2
 326 887 326 887 366 887 c 0,3,4
 388 887 388 887 405 879 c 0,5,6
 460 855 460 855 518 815.5 c 128,-1,7
 576 776 576 776 632 719.5 c 128,-1,8
 688 663 688 663 732 599 c 128,-1,9
 776 535 776 535 803 456.5 c 128,-1,10
 830 378 830 378 830 299 c 0,11,12
 830 212 830 212 792 142.5 c 128,-1,13
 754 73 754 73 690.5 31 c 128,-1,14
 627 -11 627 -11 549.5 -33 c 128,-1,15
 472 -55 472 -55 387 -55 c 0,16,17
 249 -55 249 -55 118 -10 c 0,18,19
 88 0 88 0 69 27 c 128,-1,20
 50 54 50 54 50 86 c 0,21,22
 50 129 50 129 80.5 157 c 128,-1,23
 111 185 111 185 151 185 c 0,24,25
 165 185 165 185 182 180 c 0,26,27
 287 145 287 145 387 145 c 0,28,29
 510 145 510 145 570 188 c 128,-1,30
 630 231 630 231 630 299 c 0,31,32
 630 407 630 407 530 528 c 128,-1,33
 430 649 430 649 325 695 c 0,34,35
 298 707 298 707 281.5 732.5 c 128,-1,36
 265 758 265 758 265 788 c 0,0,1
EndSplineSet
Validated: 1
Substitution2: "Mikhak-Light-'fina' Terminal Forms in Arabic lookup 4 subtable" uniFEAA
Substitution2: "'fina' Terminal Forms in Arabic lookup 4 subtable" uniFEAA
PairPos2: "'kern' Horizontal Kerning in Arabic lookup 2 per glyph data 3" uniFEDB dx=-267 dy=0 dh=-267 dv=0 dx=0 dy=0 dh=0 dv=0
PairPos2: "'kern' Horizontal Kerning in Arabic lookup 2 per glyph data 3" uniFB94 dx=-267 dy=0 dh=-267 dv=0 dx=0 dy=0 dh=0 dv=0
PairPos2: "'kern' Horizontal Kerning in Arabic lookup 2 per glyph data 3" uniFB90 dx=-267 dy=0 dh=-267 dv=0 dx=0 dy=0 dh=0 dv=0
PairPos2: "'kern' Horizontal Kerning in Arabic lookup 2 per glyph data 3" uni06AF dx=-267 dy=0 dh=-267 dv=0 dx=0 dy=0 dh=0 dv=0
PairPos2: "'kern' Horizontal Kerning in Arabic lookup 2 per glyph data 3" uni06A9 dx=-267 dy=0 dh=-267 dv=0 dx=0 dy=0 dh=0 dv=0
PairPos2: "'kern' Horizontal Kerning in Arabic lookup 2 per glyph data 1" uni063A dx=-334 dy=0 dh=-334 dv=0 dx=0 dy=0 dh=0 dv=0
PairPos2: "'kern' Horizontal Kerning in Arabic lookup 2 per glyph data 1" uni0639 dx=-334 dy=0 dh=-334 dv=0 dx=0 dy=0 dh=0 dv=0
EndChar

StartChar: uni0631
Encoding: 217 1585 217
Width: 885
GlyphClass: 2
Flags: W
AnchorPoint: "Anchor-2" 648 624 basechar 0
AnchorPoint: "Anchor-0" 505 -394 basechar 0
LayerCount: 2
Fore
SplineSet
200 -557 m 0,0,1
 160 -557 160 -557 130 -528 c 128,-1,2
 100 -499 100 -499 100 -457 c 0,3,4
 100 -420 100 -420 124.5 -391.5 c 128,-1,5
 149 -363 149 -363 186 -358 c 0,6,7
 338 -337 338 -337 435 -278 c 128,-1,8
 532 -219 532 -219 583.5 -105.5 c 128,-1,9
 635 8 635 8 635 181 c 0,10,11
 635 359 635 359 581 489 c 0,12,13
 573 508 573 508 573 526 c 0,14,15
 573 566 573 566 601 596.5 c 128,-1,16
 629 627 629 627 672 627 c 0,17,18
 702 627 702 627 727.5 610 c 128,-1,19
 753 593 753 593 765 565 c 0,20,21
 835 396 835 396 835 181 c 0,22,23
 835 -141 835 -141 671 -328 c 128,-1,24
 507 -515 507 -515 214 -556 c 0,25,26
 210 -557 210 -557 200 -557 c 0,0,1
EndSplineSet
Validated: 1
Substitution2: "Mikhak-Light-'fina' Terminal Forms in Arabic lookup 4 subtable" uniFEAE
PairPos2: "'kern' Horizontal Kerning in Arabic lookup 2 per glyph data 2" uni06a4.init dx=-334 dy=0 dh=-334 dv=0 dx=0 dy=0 dh=0 dv=0
PairPos2: "'kern' Horizontal Kerning in Arabic lookup 2 per glyph data 2" uni06a4 dx=-334 dy=0 dh=-334 dv=0 dx=0 dy=0 dh=0 dv=0
PairPos2: "'kern' Horizontal Kerning in Arabic lookup 2 per glyph data 2" uni0762.init dx=-601 dy=0 dh=-601 dv=0 dx=0 dy=0 dh=0 dv=0
PairPos2: "'kern' Horizontal Kerning in Arabic lookup 2 per glyph data 2" uni0762 dx=-601 dy=0 dh=-601 dv=0 dx=0 dy=0 dh=0 dv=0
Substitution2: "'fina' Terminal Forms in Arabic lookup 4 subtable" uniFEAE
PairPos2: "'kern' Horizontal Kerning in Arabic lookup 2 per glyph data 3" uniFEDB dx=-267 dy=0 dh=-267 dv=0 dx=0 dy=0 dh=0 dv=0
PairPos2: "'kern' Horizontal Kerning in Arabic lookup 2 per glyph data 3" uniFB94 dx=-267 dy=0 dh=-267 dv=0 dx=0 dy=0 dh=0 dv=0
PairPos2: "'kern' Horizontal Kerning in Arabic lookup 2 per glyph data 3" uniFB90 dx=-267 dy=0 dh=-267 dv=0 dx=0 dy=0 dh=0 dv=0
PairPos2: "'kern' Horizontal Kerning in Arabic lookup 2 per glyph data 3" uni06AF dx=-267 dy=0 dh=-267 dv=0 dx=0 dy=0 dh=0 dv=0
PairPos2: "'kern' Horizontal Kerning in Arabic lookup 2 per glyph data 3" uni06A9 dx=-267 dy=0 dh=-267 dv=0 dx=0 dy=0 dh=0 dv=0
PairPos2: "'kern' Horizontal Kerning in Arabic lookup 2 per glyph data 2" uniFEFB dx=-334 dy=0 dh=-334 dv=0 dx=0 dy=0 dh=0 dv=0
PairPos2: "'kern' Horizontal Kerning in Arabic lookup 2 per glyph data 2" uniFEF9 dx=-334 dy=0 dh=-334 dv=0 dx=0 dy=0 dh=0 dv=0
PairPos2: "'kern' Horizontal Kerning in Arabic lookup 2 per glyph data 2" uniFEF7 dx=-334 dy=0 dh=-334 dv=0 dx=0 dy=0 dh=0 dv=0
PairPos2: "'kern' Horizontal Kerning in Arabic lookup 2 per glyph data 2" uniFEF5 dx=-334 dy=0 dh=-334 dv=0 dx=0 dy=0 dh=0 dv=0
PairPos2: "'kern' Horizontal Kerning in Arabic lookup 2 per glyph data 2" uniFEF3 dx=-134 dy=0 dh=-134 dv=0 dx=0 dy=0 dh=0 dv=0
PairPos2: "'kern' Horizontal Kerning in Arabic lookup 2 per glyph data 2" uniFEEB dx=-334 dy=0 dh=-334 dv=0 dx=0 dy=0 dh=0 dv=0
PairPos2: "'kern' Horizontal Kerning in Arabic lookup 2 per glyph data 2" uniFEE7 dx=-334 dy=0 dh=-334 dv=0 dx=0 dy=0 dh=0 dv=0
PairPos2: "'kern' Horizontal Kerning in Arabic lookup 2 per glyph data 2" uniFEE3 dx=-334 dy=0 dh=-334 dv=0 dx=0 dy=0 dh=0 dv=0
PairPos2: "'kern' Horizontal Kerning in Arabic lookup 2 per glyph data 2" uniFEDF dx=-334 dy=0 dh=-334 dv=0 dx=0 dy=0 dh=0 dv=0
PairPos2: "'kern' Horizontal Kerning in Arabic lookup 2 per glyph data 2" uniFEDB dx=-601 dy=0 dh=-601 dv=0 dx=0 dy=0 dh=0 dv=0
PairPos2: "'kern' Horizontal Kerning in Arabic lookup 2 per glyph data 2" uniFED7 dx=-334 dy=0 dh=-334 dv=0 dx=0 dy=0 dh=0 dv=0
PairPos2: "'kern' Horizontal Kerning in Arabic lookup 2 per glyph data 2" uniFED3 dx=-334 dy=0 dh=-334 dv=0 dx=0 dy=0 dh=0 dv=0
PairPos2: "'kern' Horizontal Kerning in Arabic lookup 2 per glyph data 2" uniFECF dx=-334 dy=0 dh=-334 dv=0 dx=0 dy=0 dh=0 dv=0
PairPos2: "'kern' Horizontal Kerning in Arabic lookup 2 per glyph data 2" uniFECB dx=-334 dy=0 dh=-334 dv=0 dx=0 dy=0 dh=0 dv=0
PairPos2: "'kern' Horizontal Kerning in Arabic lookup 2 per glyph data 2" uniFEC7 dx=-334 dy=0 dh=-334 dv=0 dx=0 dy=0 dh=0 dv=0
PairPos2: "'kern' Horizontal Kerning in Arabic lookup 2 per glyph data 2" uniFEC3 dx=-334 dy=0 dh=-334 dv=0 dx=0 dy=0 dh=0 dv=0
PairPos2: "'kern' Horizontal Kerning in Arabic lookup 2 per glyph data 2" uniFEBF dx=-334 dy=0 dh=-334 dv=0 dx=0 dy=0 dh=0 dv=0
PairPos2: "'kern' Horizontal Kerning in Arabic lookup 2 per glyph data 2" uniFEBB dx=-334 dy=0 dh=-334 dv=0 dx=0 dy=0 dh=0 dv=0
PairPos2: "'kern' Horizontal Kerning in Arabic lookup 2 per glyph data 2" uniFEB7 dx=-334 dy=0 dh=-334 dv=0 dx=0 dy=0 dh=0 dv=0
PairPos2: "'kern' Horizontal Kerning in Arabic lookup 2 per glyph data 2" uniFEB3 dx=-334 dy=0 dh=-334 dv=0 dx=0 dy=0 dh=0 dv=0
PairPos2: "'kern' Horizontal Kerning in Arabic lookup 2 per glyph data 2" uniFEA7 dx=-334 dy=0 dh=-334 dv=0 dx=0 dy=0 dh=0 dv=0
PairPos2: "'kern' Horizontal Kerning in Arabic lookup 2 per glyph data 2" uniFEA3 dx=-334 dy=0 dh=-334 dv=0 dx=0 dy=0 dh=0 dv=0
PairPos2: "'kern' Horizontal Kerning in Arabic lookup 2 per glyph data 2" uniFE9F dx=-334 dy=0 dh=-334 dv=0 dx=0 dy=0 dh=0 dv=0
PairPos2: "'kern' Horizontal Kerning in Arabic lookup 2 per glyph data 2" uniFE9B dx=-334 dy=0 dh=-334 dv=0 dx=0 dy=0 dh=0 dv=0
PairPos2: "'kern' Horizontal Kerning in Arabic lookup 2 per glyph data 2" uniFE97 dx=-334 dy=0 dh=-334 dv=0 dx=0 dy=0 dh=0 dv=0
PairPos2: "'kern' Horizontal Kerning in Arabic lookup 2 per glyph data 2" uniFE91 dx=-334 dy=0 dh=-334 dv=0 dx=0 dy=0 dh=0 dv=0
PairPos2: "'kern' Horizontal Kerning in Arabic lookup 2 per glyph data 2" uniFE8B dx=-334 dy=0 dh=-334 dv=0 dx=0 dy=0 dh=0 dv=0
PairPos2: "'kern' Horizontal Kerning in Arabic lookup 2 per glyph data 2" uniFBFE dx=-134 dy=0 dh=-134 dv=0 dx=0 dy=0 dh=0 dv=0
PairPos2: "'kern' Horizontal Kerning in Arabic lookup 2 per glyph data 2" uniFB94 dx=-601 dy=0 dh=-601 dv=0 dx=0 dy=0 dh=0 dv=0
PairPos2: "'kern' Horizontal Kerning in Arabic lookup 2 per glyph data 2" uniFB90 dx=-601 dy=0 dh=-601 dv=0 dx=0 dy=0 dh=0 dv=0
PairPos2: "'kern' Horizontal Kerning in Arabic lookup 2 per glyph data 2" uniFB7C dx=-334 dy=0 dh=-334 dv=0 dx=0 dy=0 dh=0 dv=0
PairPos2: "'kern' Horizontal Kerning in Arabic lookup 2 per glyph data 2" uniFB58 dx=-134 dy=0 dh=-134 dv=0 dx=0 dy=0 dh=0 dv=0
PairPos2: "'kern' Horizontal Kerning in Arabic lookup 2 per glyph data 2" uni06CA dx=-233 dy=0 dh=-233 dv=0 dx=0 dy=0 dh=0 dv=0
PairPos2: "'kern' Horizontal Kerning in Arabic lookup 2 per glyph data 2" uni06C0 dx=-334 dy=0 dh=-334 dv=0 dx=0 dy=0 dh=0 dv=0
PairPos2: "'kern' Horizontal Kerning in Arabic lookup 2 per glyph data 2" uni06AF dx=-601 dy=0 dh=-601 dv=0 dx=0 dy=0 dh=0 dv=0
PairPos2: "'kern' Horizontal Kerning in Arabic lookup 2 per glyph data 2" uni06A9 dx=-601 dy=0 dh=-601 dv=0 dx=0 dy=0 dh=0 dv=0
PairPos2: "'kern' Horizontal Kerning in Arabic lookup 2 per glyph data 2" uni0698 dx=-233 dy=0 dh=-233 dv=0 dx=0 dy=0 dh=0 dv=0
PairPos2: "'kern' Horizontal Kerning in Arabic lookup 2 per glyph data 2" uni0686 dx=-111 dy=0 dh=-111 dv=0 dx=0 dy=0 dh=0 dv=0
PairPos2: "'kern' Horizontal Kerning in Arabic lookup 2 per glyph data 2" uni067E dx=-334 dy=0 dh=-334 dv=0 dx=0 dy=0 dh=0 dv=0
PairPos2: "'kern' Horizontal Kerning in Arabic lookup 2 per glyph data 2" uni0648 dx=-233 dy=0 dh=-233 dv=0 dx=0 dy=0 dh=0 dv=0
PairPos2: "'kern' Horizontal Kerning in Arabic lookup 2 per glyph data 2" uni0647 dx=-334 dy=0 dh=-334 dv=0 dx=0 dy=0 dh=0 dv=0
PairPos2: "'kern' Horizontal Kerning in Arabic lookup 2 per glyph data 2" uni0646 dx=-134 dy=0 dh=-134 dv=0 dx=0 dy=0 dh=0 dv=0
PairPos2: "'kern' Horizontal Kerning in Arabic lookup 2 per glyph data 2" uni0645 dx=-334 dy=0 dh=-334 dv=0 dx=0 dy=0 dh=0 dv=0
PairPos2: "'kern' Horizontal Kerning in Arabic lookup 2 per glyph data 2" uni0644 dx=-100 dy=0 dh=-100 dv=0 dx=0 dy=0 dh=0 dv=0
PairPos2: "'kern' Horizontal Kerning in Arabic lookup 2 per glyph data 2" uni0643 dx=-334 dy=0 dh=-334 dv=0 dx=0 dy=0 dh=0 dv=0
PairPos2: "'kern' Horizontal Kerning in Arabic lookup 2 per glyph data 2" uni0642 dx=-134 dy=0 dh=-134 dv=0 dx=0 dy=0 dh=0 dv=0
PairPos2: "'kern' Horizontal Kerning in Arabic lookup 2 per glyph data 2" uni0641 dx=-334 dy=0 dh=-334 dv=0 dx=0 dy=0 dh=0 dv=0
PairPos2: "'kern' Horizontal Kerning in Arabic lookup 2 per glyph data 2" uni0638 dx=-334 dy=0 dh=-334 dv=0 dx=0 dy=0 dh=0 dv=0
PairPos2: "'kern' Horizontal Kerning in Arabic lookup 2 per glyph data 2" uni0637 dx=-334 dy=0 dh=-334 dv=0 dx=0 dy=0 dh=0 dv=0
PairPos2: "'kern' Horizontal Kerning in Arabic lookup 2 per glyph data 2" uni0636 dx=-334 dy=0 dh=-334 dv=0 dx=0 dy=0 dh=0 dv=0
PairPos2: "'kern' Horizontal Kerning in Arabic lookup 2 per glyph data 2" uni0635 dx=-334 dy=0 dh=-334 dv=0 dx=0 dy=0 dh=0 dv=0
PairPos2: "'kern' Horizontal Kerning in Arabic lookup 2 per glyph data 2" uni0634 dx=-334 dy=0 dh=-334 dv=0 dx=0 dy=0 dh=0 dv=0
PairPos2: "'kern' Horizontal Kerning in Arabic lookup 2 per glyph data 2" uni0633 dx=-334 dy=0 dh=-334 dv=0 dx=0 dy=0 dh=0 dv=0
PairPos2: "'kern' Horizontal Kerning in Arabic lookup 2 per glyph data 2" uni0632 dx=-233 dy=0 dh=-233 dv=0 dx=0 dy=0 dh=0 dv=0
PairPos2: "'kern' Horizontal Kerning in Arabic lookup 2 per glyph data 2" uni0631 dx=-233 dy=0 dh=-233 dv=0 dx=0 dy=0 dh=0 dv=0
PairPos2: "'kern' Horizontal Kerning in Arabic lookup 2 per glyph data 2" uni0630 dx=-334 dy=0 dh=-334 dv=0 dx=0 dy=0 dh=0 dv=0
PairPos2: "'kern' Horizontal Kerning in Arabic lookup 2 per glyph data 2" uni062F dx=-334 dy=0 dh=-334 dv=0 dx=0 dy=0 dh=0 dv=0
PairPos2: "'kern' Horizontal Kerning in Arabic lookup 2 per glyph data 2" uni062E dx=-111 dy=0 dh=-111 dv=0 dx=0 dy=0 dh=0 dv=0
PairPos2: "'kern' Horizontal Kerning in Arabic lookup 2 per glyph data 2" uni062D dx=-111 dy=0 dh=-111 dv=0 dx=0 dy=0 dh=0 dv=0
PairPos2: "'kern' Horizontal Kerning in Arabic lookup 2 per glyph data 2" uni062C dx=-111 dy=0 dh=-111 dv=0 dx=0 dy=0 dh=0 dv=0
PairPos2: "'kern' Horizontal Kerning in Arabic lookup 2 per glyph data 2" uni062B dx=-334 dy=0 dh=-334 dv=0 dx=0 dy=0 dh=0 dv=0
PairPos2: "'kern' Horizontal Kerning in Arabic lookup 2 per glyph data 2" uni062A dx=-334 dy=0 dh=-334 dv=0 dx=0 dy=0 dh=0 dv=0
PairPos2: "'kern' Horizontal Kerning in Arabic lookup 2 per glyph data 2" uni0629 dx=-334 dy=0 dh=-334 dv=0 dx=0 dy=0 dh=0 dv=0
PairPos2: "'kern' Horizontal Kerning in Arabic lookup 2 per glyph data 2" uni0628 dx=-334 dy=0 dh=-334 dv=0 dx=0 dy=0 dh=0 dv=0
PairPos2: "'kern' Horizontal Kerning in Arabic lookup 2 per glyph data 2" uni0627 dx=-267 dy=0 dh=-267 dv=0 dx=0 dy=0 dh=0 dv=0
PairPos2: "'kern' Horizontal Kerning in Arabic lookup 2 per glyph data 2" uni0624 dx=-233 dy=0 dh=-233 dv=0 dx=0 dy=0 dh=0 dv=0
PairPos2: "'kern' Horizontal Kerning in Arabic lookup 2 per glyph data 2" uni0623 dx=-267 dy=0 dh=-267 dv=0 dx=0 dy=0 dh=0 dv=0
PairPos2: "'kern' Horizontal Kerning in Arabic lookup 2 per glyph data 2" uni0622 dx=-267 dy=0 dh=-267 dv=0 dx=0 dy=0 dh=0 dv=0
PairPos2: "'kern' Horizontal Kerning in Arabic lookup 2 per glyph data 1" uni063A dx=-134 dy=0 dh=-134 dv=0 dx=0 dy=0 dh=0 dv=0
PairPos2: "'kern' Horizontal Kerning in Arabic lookup 2 per glyph data 1" uni0639 dx=-134 dy=0 dh=-134 dv=0 dx=0 dy=0 dh=0 dv=0
EndChar

